{
.appVersion = "1306";
DisplayStrings = (
"/quoteleft Yann"
);
classes = (
{
code = "\012	C C.ss01 C.ss02 c c.ss01 c.ss02\012";
name = ss03_src;
},
{
code = "\012	C.alt C.alt.ss01 C.alt.ss02 c.alt c.alt.ss01 c.alt.ss02\012";
name = ss03_tgt;
},
{
code = "\012	G G.ss01 G.ss02\012";
name = ss04_src;
},
{
code = "\012	G.alt G.alt.ss01 G.alt.ss02\012";
name = ss04_tgt;
},
{
code = "\012	u u.ss01 u.ss02\012";
name = ss05_src;
},
{
code = "\012	u.alt u.alt.ss01 u.alt.ss02\012";
name = ss05_tgt;
}
);
customParameters = (
{
name = vendorID;
value = JENS;
},
{
name = license;
value = "SIL Open Font License";
},
{
name = licenseURL;
value = "https://scripts.sil.org/OFL";
}
);
date = "2009-09-19 09:46:00 +0000";
designerURL = "https://www.kutilek.de/";
familyName = Malerblock;
featurePrefixes = (
{
automatic = 1;
code = "languagesystem DFLT dflt;\012";
name = Languagesystems;
}
);
features = (
{
automatic = 1;
code = "feature calt;\012feature salt;\012feature ss01;\012feature ss02;\012feature ss03;\012feature ss04;\012feature ss05;\012";
name = aalt;
},
{
code = "  sub c' [h k] by c.alt;";
name = calt;
},
{
automatic = 1;

glyphs = (
{
glyphname = A;
lastChange = "2020-03-17 07:22:43 +0000";
layers = (
{
anchors = (
{
name = bottom;
position = "{312, 0}";
},
{
name = measure;
position = "{0, 0}";
},
{
name = ogonek;
position = "{562, 10}";
},
{
name = top;
position = "{312, 660}";
}
);
layerId = master01;
paths = (
{
closed = 1;
nodes = (
"25 5 OFFCURVE",
"27 0 OFFCURVE",
"31 0 CURVE SMOOTH",
"124 0 LINE SMOOTH",
"126 0 OFFCURVE",
"131 0 OFFCURVE",
"132 1 CURVE SMOOTH",
"133 2 OFFCURVE",
"138 7 OFFCURVE",
"140 9 CURVE",
"140 9 OFFCURVE",
"141 11 OFFCURVE",
"141 12 CURVE SMOOTH",
"142 13 OFFCURVE",
"144 18 OFFCURVE",
"144 19 CURVE SMOOTH",
"145 21 OFFCURVE",
"150 37 OFFCURVE",
"151 39 CURVE SMOOTH",
"155 50 OFFCURVE",
"159 62 OFFCURVE",
"163 74 CURVE SMOOTH",
"168 88 OFFCURVE",
"174 102 OFFCURVE",
"179 116 CURVE SMOOTH",
"180 117 OFFCURVE",
"182 127 OFFCURVE",
"183 128 CURVE SMOOTH",
"184 131 OFFCURVE",
"187 136 OFFCURVE",
"187 136 CURVE",
"198 137 LINE SMOOTH",
"201 137 OFFCURVE",
"242 137 OFFCURVE",
"257 137 CURVE SMOOTH",
"279 137 OFFCURVE",
"342 137 OFFCURVE",
"348 137 CURVE SMOOTH",
"354 137 OFFCURVE",
"406 136 OFFCURVE",
"412 136 CURVE SMOOTH",
"414 136 OFFCURVE",
"424 136 OFFCURVE",
"426 136 CURVE",
"432 132 OFFCURVE",
"431 123 OFFCURVE",
"434 117 CURVE SMOOTH",
"436 111 OFFCURVE",
"439 106 OFFCURVE",
"441 100 CURVE SMOOTH",
"441 98 OFFCURVE",
"443 93 OFFCURVE",
"443 91 CURVE",
"444 90 OFFCURVE",
"448 79 OFFCURVE",
"449 78 CURVE SMOOTH",
"453 67 OFFCURVE",
"456 54 OFFCURVE",
"460 43 CURVE",
"460 42 OFFCURVE",
"464 35 OFFCURVE",
"464 35 CURVE",
"464 34 OFFCURVE",
"465 30 OFFCURVE",
"465 29 CURVE SMOOTH",
"465 29 OFFCURVE",
"466 27 OFFCURVE",
"466 27 CURVE",
"467 25 OFFCURVE",
"469 20 OFFCURVE",
"469 19 CURVE SMOOTH",
"470 15 OFFCURVE",
"470 12 OFFCURVE",
"472 9 CURVE SMOOTH",
"474 6 OFFCURVE",
"479 0 OFFCURVE",
"484 0 CURVE SMOOTH",
"592 0 LINE",
"593 0 OFFCURVE",
"596 4 OFFCURVE",
"596 6 CURVE SMOOTH",
"596 6 OFFCURVE",
"596 6 OFFCURVE",
"596 6 CURVE",
"595 7 OFFCURVE",
"592 14 OFFCURVE",
"592 15 CURVE SMOOTH",
"592 15 OFFCURVE",
"592 17 OFFCURVE",
"592 17 CURVE",
"591 19 OFFCURVE",
"587 29 OFFCURVE",
"586 31 CURVE SMOOTH",
"579 52 OFFCURVE",
"572 72 OFFCURVE",
"565 93 CURVE SMOOTH",
"564 98 OFFCURVE",
"561 102 OFFCURVE",
"559 106 CURVE",
"559 108 OFFCURVE",
"556 118 OFFCURVE",
"555 120 CURVE SMOOTH",
"553 129 OFFCURVE",
"549 137 OFFCURVE",
"546 145 CURVE",
"546 145 OFFCURVE",
"546 148 OFFCURVE",
"546 148 CURVE",
"545 152 OFFCURVE",
"545 152 OFFCURVE",
"543 155 CURVE",
"543 156 OFFCURVE",
"541 161 OFFCURVE",
"541 162 CURVE SMOOTH",
"537 172 OFFCURVE",
"534 183 OFFCURVE",
"530 193 CURVE",
"530 193 OFFCURVE",
"527 197 OFFCURVE",
"527 198 CURVE SMOOTH",
"527 199 OFFCURVE",
"526 206 OFFCURVE",
"526 206 CURVE",
"525 208 OFFCURVE",
"520 222 OFFCURVE",
"519 224 CURVE",
"519 224 OFFCURVE",
"518 228 OFFCURVE",
"518 229 CURVE SMOOTH",
"517 231 OFFCURVE",
"514 240 OFFCURVE",
"514 241 CURVE SMOOTH",
"513 243 OFFCURVE",
"509 253 OFFCURVE",
"508 255 CURVE SMOOTH",
"502 272 OFFCURVE",
"476 349 OFFCURVE",
"470 365 CURVE",
"470 366 OFFCURVE",
"469 367 OFFCURVE",
"469 368 CURVE SMOOTH",
"468 370 OFFCURVE",
"464 383 OFFCURVE",
"464 384 CURVE SMOOTH",
"464 384 OFFCURVE",
"462 387 OFFCURVE",
"462 387 CURVE",
"462 389 OFFCURVE",
"458 401 OFFCURVE",
"457 403 CURVE",
"457 404 OFFCURVE",
"456 408 OFFCURVE",
"456 409 CURVE SMOOTH",
"456 409 OFFCURVE",
"452 416 OFFCURVE",
"452 417 CURVE SMOOTH",
"451 419 OFFCURVE",
"444 440 OFFCURVE",
"443 442 CURVE SMOOTH",
"442 446 OFFCURVE",
"441 450 OFFCURVE",
"439 453 CURVE",
"431 483 OFFCURVE",
"420 510 OFFCURVE",
"410 540 CURVE SMOOTH",
"406 550 OFFCURVE",
"404 560 OFFCURVE",
"400 569 CURVE",
"400 570 OFFCURVE",
"399 573 OFFCURVE",
"399 573 CURVE",
"399 574 OFFCURVE",
"398 578 OFFCURVE",
"398 579 CURVE SMOOTH",
"398 579 OFFCURVE",
"395 582 OFFCURVE",
"395 583 CURVE SMOOTH",
"394 587 OFFCURVE",
"394 589 OFFCURVE",
"392 592 CURVE",
"376 641 LINE",
"376 642 OFFCURVE",
"375 647 OFFCURVE",
"375 648 CURVE SMOOTH",
"374 650 OFFCURVE",
"370 660 OFFCURVE",
"369 662 CURVE SMOOTH",
"368 665 OFFCURVE",
"364 666 OFFCURVE",
"361 666 CURVE SMOOTH",
"272 666 LINE",
"272 666 OFFCURVE",
"269 664 OFFCURVE",
"268 664 CURVE SMOOTH",
"267 664 OFFCURVE",
"267 662 OFFCURVE",
"267 662 CURVE",
"267 662 OFFCURVE",
"265 656 OFFCURVE",
"265 656 CURVE",
"259 638 OFFCURVE",
"251 621 OFFCURVE",
"245 603 CURVE SMOOTH",
"239 587 OFFCURVE",
"234 571 OFFCURVE",
"228 556 CURVE SMOOTH",
"220 536 OFFCURVE",
"213 516 OFFCURVE",
"205 496 CURVE",
"205 496 OFFCURVE",
"203 493 OFFCURVE",
"203 492 CURVE SMOOTH",
"203 492 OFFCURVE",
"202 488 OFFCURVE",
"202 487 CURVE SMOOTH",
"198 477 OFFCURVE",
"193 467 OFFCURVE",
"190 457 CURVE SMOOTH",
"189 456 OFFCURVE",
"188 450 OFFCURVE",
"187 449 CURVE SMOOTH",
"184 442 OFFCURVE",
"180 434 OFFCURVE",
"178 426 CURVE",
"178 426 OFFCURVE",
"176 421 OFFCURVE",
"176 421 CURVE",
"176 419 OFFCURVE",
"170 407 OFFCURVE",
"170 406 CURVE SMOOTH",
"168 401 OFFCURVE",
"166 394 OFFCURVE",
"164 388 CURVE SMOOTH",
"158 372 OFFCURVE",
"152 356 OFFCURVE",
"147 340 CURVE SMOOTH",
"144 332 OFFCURVE",
"140 324 OFFCURVE",
"137 317 CURVE",
"137 316 OFFCURVE",
"135 308 OFFCURVE",
"135 307 CURVE SMOOTH",
"133 302 OFFCURVE",
"130 297 OFFCURVE",
"128 291 CURVE SMOOTH",
"121 272 OFFCURVE",
"114 253 OFFCURVE",
"108 235 CURVE SMOOTH",
"105 227 OFFCURVE",
"101 219 OFFCURVE",
"98 212 CURVE SMOOTH",
"89 189 OFFCURVE",
"82 166 OFFCURVE",
"74 144 CURVE SMOOTH",
"66 122 OFFCURVE",
"56 100 OFFCURVE",
"48 77 CURVE SMOOTH",
"47 73 OFFCURVE",
"39 48 OFFCURVE",
"37 44 CURVE",
"37 44 OFFCURVE",
"33 35 OFFCURVE",
"33 35 CURVE",
"33 34 OFFCURVE",
"32 29 OFFCURVE",
"32 28 CURVE SMOOTH",
"32 27 OFFCURVE",
"31 25 OFFCURVE",
"31 24 CURVE SMOOTH",
"29 19 OFFCURVE",
"25 13 OFFCURVE",
"25 8 CURVE SMOOTH"
);
},
{
closed = 1;
nodes = (
"226 241 OFFCURVE",
"227 244 OFFCURVE",
"228 245 CURVE SMOOTH",
"229 249 OFFCURVE",
"237 274 OFFCURVE",
"238 278 CURVE",
"238 278 OFFCURVE",
"240 282 OFFCURVE",
"240 283 CURVE SMOOTH",
"241 286 OFFCURVE",
"250 310 OFFCURVE",
"251 313 CURVE",
"251 314 OFFCURVE",
"257 333 OFFCURVE",
"259 340 CURVE SMOOTH",
"263 354 OFFCURVE",
"268 367 OFFCURVE",
"274 382 CURVE SMOOTH",
"284 410 OFFCURVE",
"293 442 OFFCURVE",
"307 469 CURVE",
"307 469 OFFCURVE",
"309 471 OFFCURVE",
"309 471 CURVE",
"312 469 OFFCURVE",
"314 463 OFFCURVE",
"315 460 CURVE SMOOTH",
"317 456 OFFCURVE",
"323 437 OFFCURVE",
"325 433 CURVE",
"325 433 OFFCURVE",
"325 432 OFFCURVE",
"325 432 CURVE",
"325 431 OFFCURVE",
"327 427 OFFCURVE",
"327 426 CURVE SMOOTH",
"328 425 OFFCURVE",
"331 414 OFFCURVE",
"332 413 CURVE SMOOTH",
"335 403 OFFCURVE",
"339 394 OFFCURVE",
"342 384 CURVE",
"342 384 OFFCURVE",
"344 380 OFFCURVE",
"344 379 CURVE SMOOTH",
"346 370 OFFCURVE",
"351 360 OFFCURVE",
"354 351 CURVE",
"354 350 OFFCURVE",
"356 346 OFFCURVE",
"356 345 CURVE SMOOTH",
"358 340 OFFCURVE",
"363 323 OFFCURVE",
"364 321 CURVE",
"364 320 OFFCURVE",
"368 313 OFFCURVE",
"368 313 CURVE",
"369 310 OFFCURVE",
"377 287 OFFCURVE",
"377 284 CURVE",
"381 272 OFFCURVE",
"386 260 OFFCURVE",
"390 247 CURVE",
"390 246 OFFCURVE",
"391 243 OFFCURVE",
"391 243 CURVE",
"391 243 OFFCURVE",
"391 240 OFFCURVE",
"391 239 CURVE SMOOTH",
"391 239 OFFCURVE",
"391 237 OFFCURVE",
"391 237 CURVE",
"383 236 LINE",
"236 236 LINE",
"228 237 LINE",
"227 237 OFFCURVE",
"226 239 OFFCURVE",
"226 240 CURVE"
);
}
);
width = 624;
}
);
leftKerningGroup = A;
rightKerningGroup = A;
unicode = 0041;
},
{
glyphname = A.ss02;
lastChange = "2020-03-17 07:32:46 +0000";
layers = (
{
anchors = (
{
name = _measure;
position = "{0, 0}";
}
);
layerId = master01;
paths = (
{
closed = 1;
nodes = (
"24 -146 OFFCURVE",
"24 -149 OFFCURVE",
"24 -149 CURVE",
"24 -154 OFFCURVE",
"25 -166 OFFCURVE",
"25 -166 CURVE",
"28 -169 LINE",
"32 -165 LINE",
"35 -141 LINE",
"51 -139 LINE",
"57 -139 OFFCURVE",
"139 -139 OFFCURVE",
"169 -139 CURVE SMOOTH",
"211 -139 OFFCURVE",
"338 -139 OFFCURVE",
"349 -139 CURVE SMOOTH",
"358 -139 OFFCURVE",
"428 -141 OFFCURVE",
"437 -141 CURVE SMOOTH",
"458 -141 OFFCURVE",
"555 -141 OFFCURVE",
"576 -141 CURVE SMOOTH",
"577 -141 OFFCURVE",
"582 -141 OFFCURVE",
"584 -142 CURVE",
"584 -142 OFFCURVE",
"585 -143 OFFCURVE",
"585 -143 CURVE",
"585 -164 LINE",
"585 -164 OFFCURVE",
"587 -168 OFFCURVE",
"588 -169 CURVE",
"588 -169 OFFCURVE",
"588 -169 OFFCURVE",
"589 -169 CURVE SMOOTH",
"591 -169 OFFCURVE",
"595 -166 OFFCURVE",
"595 -164 CURVE SMOOTH",
"595 -110 LINE SMOOTH",
"595 -108 OFFCURVE",
"593 -106 OFFCURVE",
"590 -106 CURVE SMOOTH",
"588 -106 OFFCURVE",
"585 -110 OFFCURVE",
"585 -112 CURVE SMOOTH",
"585 -114 OFFCURVE",
"585 -124 OFFCURVE",
"585 -126 CURVE SMOOTH",
"585 -126 OFFCURVE",
"584 -130 OFFCURVE",
"582 -130 CURVE SMOOTH",
"570 -131 LINE",
"569 -131 OFFCURVE",
"548 -131 OFFCURVE",
"541 -131 CURVE SMOOTH",
"530 -131 OFFCURVE",
"501 -131 OFFCURVE",
"499 -131 CURVE SMOOTH",
"497 -131 OFFCURVE",
"479 -130 OFFCURVE",
"477 -130 CURVE SMOOTH",
"477 -130 OFFCURVE",
"477 -130 OFFCURVE",
"477 -130 CURVE",
"477 -130 OFFCURVE",
"476 -130 OFFCURVE",
"476 -130 CURVE",
"473 -130 OFFCURVE",
"462 -131 OFFCURVE",
"460 -131 CURVE SMOOTH",
"43 -131 LINE",
"42 -131 OFFCURVE",
"37 -131 OFFCURVE",
"36 -130 CURVE SMOOTH",
"33 -128 OFFCURVE",
"33 -115 OFFCURVE",
"32 -111 CURVE",
"32 -110 OFFCURVE",
"31 -108 OFFCURVE",
"31 -108 CURVE",
"31 -108 OFFCURVE",
"30 -108 OFFCURVE",
"29 -108 CURVE SMOOTH",
"28 -108 OFFCURVE",
"27 -108 OFFCURVE",
"25 -110 CURVE",
"25 -114 OFFCURVE",
"24 -137 OFFCURVE",
"24 -142 CURVE SMOOTH",
"24 -142 OFFCURVE",
"24 -145 OFFCURVE",
"24 -145 CURVE"
);
},
{
closed = 1;
nodes = (
"291 -89 OFFCURVE",
"291 -95 OFFCURVE",
"291 -96 CURVE SMOOTH",
"291 -97 OFFCURVE",
"292 -99 OFFCURVE",
"292 -100 CURVE SMOOTH",
"297 -107 OFFCURVE",
"306 -111 OFFCURVE",
"314 -111 CURVE SMOOTH",
"318 -111 OFFCURVE",
"319 -112 OFFCURVE",
"322 -110 CURVE SMOOTH",
"323 -109 OFFCURVE",
"327 -105 OFFCURVE",
"329 -104 CURVE SMOOTH",
"336 -98 OFFCURVE",
"338 -90 OFFCURVE",
"338 -81 CURVE SMOOTH",
"338 -81 OFFCURVE",
"338 -80 OFFCURVE",
"338 -80 CURVE",
"338 -77 OFFCURVE",
"334 -70 OFFCURVE",
"333 -69 CURVE SMOOTH",
"332 -68 OFFCURVE",
"327 -66 OFFCURVE",
"326 -65 CURVE SMOOTH",
"321 -63 OFFCURVE",
"314 -63 OFFCURVE",
"310 -64 CURVE",
"311 -58 OFFCURVE",
"315 -56 OFFCURVE",
"318 -52 CURVE",
"318 -51 OFFCURVE",
"321 -48 OFFCURVE",
"321 -48 CURVE",
"321 -47 OFFCURVE",
"325 -43 OFFCURVE",
"326 -42 CURVE",
"326 -42 OFFCURVE",
"326 -40 OFFCURVE",
"326 -39 CURVE SMOOTH",
"326 -36 OFFCURVE",
"325 -35 OFFCURVE",
"322 -35 CURVE SMOOTH",
"315 -35 OFFCURVE",
"292 -67 OFFCURVE",
"291 -77 CURVE",
"291 -78 OFFCURVE",
"291 -84 OFFCURVE",
"291 -87 CURVE SMOOTH"
);
},
{
closed = 1;
nodes = (
"300 -86 OFFCURVE",
"301 -84 OFFCURVE",
"303 -81 CURVE SMOOTH",
"305 -79 OFFCURVE",
"309 -75 OFFCURVE",
"310 -75 CURVE SMOOTH",
"310 -75 OFFCURVE",
"313 -75 OFFCURVE",
"314 -75 CURVE SMOOTH",
"320 -75 OFFCURVE",
"327 -77 OFFCURVE",
"327 -85 CURVE SMOOTH",
"327 -85 OFFCURVE",
"327 -85 OFFCURVE",
"327 -85 CURVE",
"327 -87 OFFCURVE",
"326 -92 OFFCURVE",
"326 -92 CURVE",
"326 -92 OFFCURVE",
"323 -95 OFFCURVE",
"322 -96 CURVE SMOOTH",
"320 -98 OFFCURVE",
"316 -101 OFFCURVE",
"313 -101 CURVE SMOOTH",
"307 -101 OFFCURVE",
"300 -95 OFFCURVE",
"300 -89 CURVE SMOOTH"
);
}
);
userData = {
com.typemytype.robofont.mark = (
0.939,
1,
0.6,
1
);
};
width = 624;
}
);
leftKerningGroup = A;
rightKerningGroup = A;
},
{
glyphname = B;
lastChange = "2020-03-17 07:22:48 +0000";
layers = (
{
anchors = (
{
name = bottom;
position = "{272, 0}";
},
{
name = measure;
position = "{0, 0}";
},
{
name = top;
position = "{272, 660}";
}
);
layerId = master01;
paths = (
{
closed = 1;
nodes = (
"81 18 OFFCURVE",
"82 7 OFFCURVE",
"82 5 CURVE SMOOTH",
"82 3 OFFCURVE",
"85 1 OFFCURVE",
"87 0 CURVE",
"95 0 OFFCURVE",
"134 0 OFFCURVE",
"143 0 CURVE SMOOTH",
"158 0 OFFCURVE",
"198 0 OFFCURVE",
"200 0 CURVE SMOOTH",
"203 0 OFFCURVE",
"221 1 OFFCURVE",
"224 1 CURVE SMOOTH",
"249 2 OFFCURVE",
"275 1 OFFCURVE",
"300 4 CURVE",
"300 4 OFFCURVE",
"306 5 OFFCURVE",
"306 5 CURVE",
"307 5 OFFCURVE",
"312 5 OFFCURVE",
"313 5 CURVE SMOOTH",
"314 5 OFFCURVE",
"319 6 OFFCURVE",
"320 6 CURVE SMOOTH",
"321 6 OFFCURVE",
"323 8 OFFCURVE",
"324 8 CURVE SMOOTH",
"325 8 OFFCURVE",
"336 11 OFFCURVE",
"337 11 CURVE SMOOTH",
"338 11 OFFCURVE",
"341 12 OFFCURVE",
"341 12 CURVE",
"342 12 OFFCURVE",
"345 15 OFFCURVE",
"345 15 CURVE",
"346 15 OFFCURVE",
"353 17 OFFCURVE",
"354 17 CURVE SMOOTH",
"354 17 OFFCURVE",
"360 21 OFFCURVE",
"360 21 CURVE",
"361 22 OFFCURVE",
"368 24 OFFCURVE",
"368 24 CURVE",
"368 24 OFFCURVE",
"370 25 OFFCURVE",
"371 25 CURVE SMOOTH",
"373 27 OFFCURVE",
"380 30 OFFCURVE",
"381 31 CURVE SMOOTH",
"399 42 OFFCURVE",
"414 54 OFFCURVE",
"429 70 CURVE SMOOTH",
"430 71 OFFCURVE",
"438 81 OFFCURVE",
"439 82 CURVE",
"439 82 OFFCURVE",
"441 85 OFFCURVE",
"441 85 CURVE",
"443 88 OFFCURVE",
"453 103 OFFCURVE",
"455 106 CURVE SMOOTH",
"460 115 OFFCURVE",
"463 125 OFFCURVE",
"467 135 CURVE SMOOTH",
"469 140 OFFCURVE",
"472 145 OFFCURVE",
"474 151 CURVE",
"474 156 OFFCURVE",
"478 179 OFFCURVE",
"479 183 CURVE",
"479 184 OFFCURVE",
"479 187 OFFCURVE",
"479 187 CURVE",
"479 189 OFFCURVE",
"480 198 OFFCURVE",
"480 199 CURVE SMOOTH",
"480 229 OFFCURVE",
"474 257 OFFCURVE",
"459 283 CURVE SMOOTH",
"453 293 OFFCURVE",
"448 303 OFFCURVE",
"440 311 CURVE SMOOTH",
"439 312 OFFCURVE",
"434 316 OFFCURVE",
"433 317 CURVE",
"433 317 OFFCURVE",
"432 320 OFFCURVE",
"432 320 CURVE",
"432 320 OFFCURVE",
"429 322 OFFCURVE",
"429 322 CURVE",
"429 323 OFFCURVE",
"426 326 OFFCURVE",
"426 326 CURVE",
"421 332 OFFCURVE",
"416 338 OFFCURVE",
"409 343 CURVE SMOOTH",
"406 345 OFFCURVE",
"390 353 OFFCURVE",
"390 355 CURVE SMOOTH",
"390 355 OFFCURVE",
"390 356 OFFCURVE",
"390 356 CURVE",
"391 357 OFFCURVE",
"394 361 OFFCURVE",
"395 361 CURVE SMOOTH",
"396 362 OFFCURVE",
"400 365 OFFCURVE",
"401 365 CURVE SMOOTH",
"416 379 OFFCURVE",
"431 394 OFFCURVE",
"441 411 CURVE",
"441 412 OFFCURVE",
"443 415 OFFCURVE",
"443 415 CURVE",
"446 423 OFFCURVE",
"451 430 OFFCURVE",
"453 438 CURVE SMOOTH",
"458 453 OFFCURVE",
"459 469 OFFCURVE",
"459 485 CURVE SMOOTH",
"459 504 OFFCURVE",
"457 524 OFFCURVE",
"449 542 CURVE",
"449 543 OFFCURVE",
"447 547 OFFCURVE",
"447 548 CURVE SMOOTH",
"444 555 OFFCURVE",
"443 559 OFFCURVE",
"440 565 CURVE SMOOTH",
"439 567 OFFCURVE",
"426 586 OFFCURVE",
"425 588 CURVE",
"425 589 OFFCURVE",
"423 593 OFFCURVE",
"422 594 CURVE SMOOTH",
"411 608 OFFCURVE",
"397 620 OFFCURVE",
"382 631 CURVE",
"382 631 OFFCURVE",
"381 633 OFFCURVE",
"381 633 CURVE",
"380 633 OFFCURVE",
"373 636 OFFCURVE",
"372 637 CURVE SMOOTH",
"369 639 OFFCURVE",
"364 643 OFFCURVE",
"360 645 CURVE SMOOTH",
"356 646 OFFCURVE",
"336 654 OFFCURVE",
"332 656 CURVE",
"332 656 OFFCURVE",
"331 656 OFFCURVE",
"331 656 CURVE",
"329 656 OFFCURVE",
"319 659 OFFCURVE",
"317 660 CURVE",
"317 660 OFFCURVE",
"316 660 OFFCURVE",
"316 660 CURVE",
"314 660 OFFCURVE",
"308 661 OFFCURVE",
"308 661 CURVE",
"308 661 OFFCURVE",
"305 662 OFFCURVE",
"305 662 CURVE",
"304 662 OFFCURVE",
"294 664 OFFCURVE",
"293 664 CURVE SMOOTH",
"292 664 OFFCURVE",
"287 665 OFFCURVE",
"286 665 CURVE SMOOTH",
"286 665 OFFCURVE",
"285 665 OFFCURVE",
"285 665 CURVE",
"285 665 OFFCURVE",
"283 665 OFFCURVE",
"283 665 CURVE",
"282 665 OFFCURVE",
"275 664 OFFCURVE",
"274 664 CURVE SMOOTH",
"267 664 OFFCURVE",
"238 664 OFFCURVE",
"231 664 CURVE SMOOTH",
"219 664 OFFCURVE",
"190 664 OFFCURVE",
"188 664 CURVE SMOOTH",
"184 664 OFFCURVE",
"159 665 OFFCURVE",
"155 665 CURVE SMOOTH",
"155 665 OFFCURVE",
"151 665 OFFCURVE",
"149 665 CURVE SMOOTH",
"148 665 OFFCURVE",
"144 665 OFFCURVE",
"143 665 CURVE SMOOTH",
"136 665 OFFCURVE",
"105 664 OFFCURVE",
"99 664 CURVE SMOOTH",
"97 664 OFFCURVE",
"91 662 OFFCURVE",
"89 661 CURVE SMOOTH",
"88 660 OFFCURVE",
"84 658 OFFCURVE",
"84 658 CURVE",
"83 658 OFFCURVE",
"82 654 OFFCURVE",
"82 653 CURVE SMOOTH",
"82 640 OFFCURVE",
"82 579 OFFCURVE",
"82 567 CURVE SMOOTH",
"82 565 OFFCURVE",
"81 550 OFFCURVE",
"81 548 CURVE SMOOTH",
"81 547 OFFCURVE",
"82 539 OFFCURVE",
"82 538 CURVE SMOOTH",
"82 538 OFFCURVE",
"82 537 OFFCURVE",
"82 537 CURVE",
"82 536 OFFCURVE",
"82 534 OFFCURVE",
"82 534 CURVE",
"82 523 OFFCURVE",
"81 428 OFFCURVE",
"81 417 CURVE SMOOTH",
"81 409 OFFCURVE",
"81 270 OFFCURVE",
"81 218 CURVE SMOOTH",
"81 189 OFFCURVE",
"81 50 OFFCURVE",
"81 20 CURVE SMOOTH"
);
},
{
closed = 1;
nodes = (
"196 303 LINE",
"263 303 LINE SMOOTH",
"265 303 OFFCURVE",
"277 301 OFFCURVE",
"281 301 CURVE SMOOTH",
"282 301 OFFCURVE",
"289 299 OFFCURVE",
"290 298 CURVE SMOOTH",
"296 296 OFFCURVE",
"311 289 OFFCURVE",
"313 289 CURVE",
"323 283 OFFCURVE",
"333 276 OFFCURVE",
"340 267 CURVE SMOOTH",
"341 266 OFFCURVE",
"348 256 OFFCURVE",
"348 255 CURVE SMOOTH",
"359 240 OFFCURVE",
"363 222 OFFCURVE",
"363 204 CURVE SMOOTH",
"363 201 OFFCURVE",
"363 193 OFFCURVE",
"363 193 CURVE",
"363 192 OFFCURVE",
"362 187 OFFCURVE",
"362 185 CURVE SMOOTH",
"362 184 OFFCURVE",
"360 180 OFFCURVE",
"360 179 CURVE SMOOTH",
"360 179 OFFCURVE",
"360 178 OFFCURVE",
"360 178 CURVE",
"360 174 OFFCURVE",
"355 160 OFFCURVE",
"354 156 CURVE",
"354 156 OFFCURVE",
"352 154 OFFCURVE",
"352 154 CURVE",
"337 127 OFFCURVE",
"312 107 OFFCURVE",
"282 101 CURVE",
"276 101 OFFCURVE",
"246 101 OFFCURVE",
"240 101 CURVE SMOOTH",
"239 101 OFFCURVE",
"229 100 OFFCURVE",
"228 100 CURVE SMOOTH",
"225 100 OFFCURVE",
"204 101 OFFCURVE",
"201 101 CURVE SMOOTH",
"198 101 OFFCURVE",
"196 100 OFFCURVE",
"194 102 CURVE",
"194 103 OFFCURVE",
"193 106 OFFCURVE",
"193 106 CURVE",
"193 301 LINE"
);
},
{
closed = 1;
nodes = (
"193 448 OFFCURVE",
"193 467 OFFCURVE",
"193 468 CURVE SMOOTH",
"193 469 OFFCURVE",
"194 479 OFFCURVE",
"194 480 CURVE SMOOTH",
"194 484 OFFCURVE",
"194 515 OFFCURVE",
"194 519 CURVE SMOOTH",
"194 521 OFFCURVE",
"196 540 OFFCURVE",
"196 542 CURVE SMOOTH",
"196 544 OFFCURVE",
"196 553 OFFCURVE",
"196 554 CURVE SMOOTH",
"196 556 OFFCURVE",
"197 560 OFFCURVE",
"197 561 CURVE SMOOTH",
"198 562 OFFCURVE",
"199 564 OFFCURVE",
"200 564 CURVE",
"282 564 LINE",
"283 564 OFFCURVE",
"287 563 OFFCURVE",
"289 562 CURVE",
"290 562 OFFCURVE",
"294 560 OFFCURVE",
"294 560 CURVE",
"295 560 OFFCURVE",
"298 558 OFFCURVE",
"298 558 CURVE",
"306 555 OFFCURVE",
"313 550 OFFCURVE",
"320 544 CURVE SMOOTH",
"323 541 OFFCURVE",
"331 532 OFFCURVE",
"332 531 CURVE",
"333 531 OFFCURVE",
"335 524 OFFCURVE",
"336 523 CURVE",
"337 523 OFFCURVE",
"341 516 OFFCURVE",
"341 515 CURVE SMOOTH",
"342 514 OFFCURVE",
"344 503 OFFCURVE",
"344 502 CURVE SMOOTH",
"344 501 OFFCURVE",
"345 498 OFFCURVE",
"345 498 CURVE",
"345 498 OFFCURVE",
"345 493 OFFCURVE",
"345 491 CURVE SMOOTH",
"345 479 OFFCURVE",
"345 465 OFFCURVE",
"340 455 CURVE SMOOTH",
"333 438 OFFCURVE",
"322 428 OFFCURVE",
"309 415 CURVE SMOOTH",
"300 406 OFFCURVE",
"290 407 OFFCURVE",
"278 402 CURVE",
"203 402 LINE",
"194 403 LINE",
"194 403 OFFCURVE",
"193 412 OFFCURVE",
"193 415 CURVE SMOOTH",
"193 416 OFFCURVE",
"193 435 OFFCURVE",
"193 442 CURVE SMOOTH"
);
}
);
width = 543;
}
);
unicode = 0042;
},
{
glyphname = B.ss02;
lastChange = "2020-03-17 07:24:59 +0000";
layers = (
{
anchors = (
{
name = _measure;
position = "{0, 0}";
}
);
layerId = master01;
paths = (
{
closed = 1;
nodes = (
"466 -143 OFFCURVE",
"468 -145 OFFCURVE",
"468 -145 CURVE",
"469 -145 OFFCURVE",
"470 -146 OFFCURVE",
"470 -146 CURVE",
"470 -168 LINE",
"470 -168 OFFCURVE",
"473 -170 OFFCURVE",
"474 -170 CURVE SMOOTH",
"474 -170 OFFCURVE",
"474 -170 OFFCURVE",
"475 -170 CURVE SMOOTH",
"477 -170 OFFCURVE",
"478 -168 OFFCURVE",
"479 -166 CURVE",
"478 -148 OFFCURVE",
"480 -133 OFFCURVE",
"480 -114 CURVE SMOOTH",
"480 -110 OFFCURVE",
"479 -107 OFFCURVE",
"475 -107 CURVE SMOOTH",
"474 -107 OFFCURVE",
"474 -107 OFFCURVE",
"474 -107 CURVE",
"473 -108 OFFCURVE",
"470 -109 OFFCURVE",
"470 -110 CURVE",
"470 -127 LINE",
"470 -128 OFFCURVE",
"468 -131 OFFCURVE",
"467 -131 CURVE SMOOTH",
"463 -132 OFFCURVE",
"445 -133 OFFCURVE",
"441 -133 CURVE SMOOTH",
"430 -133 OFFCURVE",
"379 -133 OFFCURVE",
"367 -133 CURVE",
"363 -135 OFFCURVE",
"359 -134 OFFCURVE",
"355 -134 CURVE SMOOTH",
"353 -134 OFFCURVE",
"348 -134 OFFCURVE",
"348 -134 CURVE",
"348 -134 OFFCURVE",
"342 -133 OFFCURVE",
"341 -133 CURVE SMOOTH",
"341 -133 OFFCURVE",
"331 -133 OFFCURVE",
"328 -133 CURVE SMOOTH",
"323 -133 OFFCURVE",
"314 -132 OFFCURVE",
"308 -134 CURVE",
"305 -134 OFFCURVE",
"291 -134 OFFCURVE",
"287 -134 CURVE SMOOTH",
"275 -134 OFFCURVE",
"264 -135 OFFCURVE",
"251 -133 CURVE",
"237 -133 OFFCURVE",
"172 -133 OFFCURVE",
"158 -133 CURVE SMOOTH",
"155 -133 OFFCURVE",
"129 -131 OFFCURVE",
"126 -131 CURVE SMOOTH",
"122 -131 OFFCURVE",
"101 -131 OFFCURVE",
"97 -131 CURVE SMOOTH",
"97 -131 OFFCURVE",
"93 -130 OFFCURVE",
"92 -130 CURVE SMOOTH",
"92 -130 OFFCURVE",
"91 -128 OFFCURVE",
"91 -128 CURVE",
"91 -126 OFFCURVE",
"89 -112 OFFCURVE",
"88 -110 CURVE SMOOTH",
"87 -108 OFFCURVE",
"86 -106 OFFCURVE",
"83 -106 CURVE SMOOTH",
"82 -106 OFFCURVE",
"81 -106 OFFCURVE",
"81 -107 CURVE SMOOTH",
"80 -108 OFFCURVE",
"80 -114 OFFCURVE",
"80 -115 CURVE",
"80 -155 LINE",
"79 -155 OFFCURVE",
"78 -157 OFFCURVE",
"78 -158 CURVE SMOOTH",
"78 -160 OFFCURVE",
"80 -164 OFFCURVE",
"81 -165 CURVE",
"82 -165 OFFCURVE",
"86 -164 OFFCURVE",
"87 -164 CURVE",
"87 -163 OFFCURVE",
"89 -162 OFFCURVE",
"89 -161 CURVE",
"89 -145 LINE",
"92 -142 LINE",
"356 -142 LINE",
"360 -143 OFFCURVE",
"376 -143 OFFCURVE",
"379 -143 CURVE SMOOTH",
"381 -143 OFFCURVE",
"390 -142 OFFCURVE",
"391 -142 CURVE SMOOTH",
"392 -142 OFFCURVE",
"409 -142 OFFCURVE",
"415 -142 CURVE SMOOTH",
"422 -142 OFFCURVE",
"439 -142 OFFCURVE",
"440 -142 CURVE SMOOTH",
"444 -142 OFFCURVE",
"461 -143 OFFCURVE",
"466 -143 CURVE"
);
},
{
closed = 1;
nodes = (
"282 -96 OFFCURVE",
"282 -104 OFFCURVE",
"282 -106 CURVE SMOOTH",
"282 -108 OFFCURVE",
"283 -111 OFFCURVE",
"286 -111 CURVE SMOOTH",
"294 -111 OFFCURVE",
"292 -102 OFFCURVE",
"293 -97 CURVE SMOOTH",
"294 -90 OFFCURVE",
"306 -91 OFFCURVE",
"306 -85 CURVE SMOOTH",
"306 -77 OFFCURVE",
"294 -83 OFFCURVE",
"293 -79 CURVE SMOOTH",
"291 -68 OFFCURVE",
"291 -56 OFFCURVE",
"292 -45 CURVE",
"290 -43 OFFCURVE",
"290 -42 OFFCURVE",
"287 -42 CURVE SMOOTH",
"287 -42 OFFCURVE",
"286 -42 OFFCURVE",
"286 -42 CURVE",
"279 -48 OFFCURVE",
"273 -54 OFFCURVE",
"269 -62 CURVE",
"269 -62 OFFCURVE",
"267 -65 OFFCURVE",
"267 -65 CURVE",
"267 -66 OFFCURVE",
"258 -73 OFFCURVE",
"258 -75 CURVE SMOOTH",
"258 -75 OFFCURVE",
"254 -79 OFFCURVE",
"254 -81 CURVE SMOOTH",
"253 -83 OFFCURVE",
"251 -87 OFFCURVE",
"251 -87 CURVE",
"251 -87 OFFCURVE",
"252 -90 OFFCURVE",
"252 -91 CURVE SMOOTH",
"254 -93 OFFCURVE",
"258 -93 OFFCURVE",
"259 -93 CURVE SMOOTH",
"260 -93 OFFCURVE",
"265 -92 OFFCURVE",
"266 -92 CURVE SMOOTH",
"266 -92 OFFCURVE",
"267 -92 OFFCURVE",
"267 -92 CURVE",
"267 -92 OFFCURVE",
"269 -92 OFFCURVE",
"269 -92 CURVE",
"272 -92 OFFCURVE",
"281 -93 OFFCURVE",
"281 -93 CURVE",
"282 -95 LINE"
);
},
{
closed = 1;
nodes = (
"267 -81 OFFCURVE",
"267 -80 OFFCURVE",
"267 -80 CURVE",
"268 -78 OFFCURVE",
"271 -72 OFFCURVE",
"271 -72 CURVE",
"273 -69 OFFCURVE",
"279 -64 OFFCURVE",
"279 -64 CURVE",
"281 -64 LINE",
"281 -64 OFFCURVE",
"282 -71 OFFCURVE",
"282 -75 CURVE SMOOTH",
"282 -81 OFFCURVE",
"275 -83 OFFCURVE",
"271 -83 CURVE SMOOTH",
"269 -83 OFFCURVE",
"267 -83 OFFCURVE",
"267 -81 CURVE"
);
},
{
closed = 1;
nodes = (
"272 185 OFFCURVE",
"273 180 OFFCURVE",
"274 179 CURVE",
"274 179 OFFCURVE",
"275 177 OFFCURVE",
"275 177 CURVE",
"276 176 OFFCURVE",
"279 174 OFFCURVE",
"279 174 CURVE",
"279 174 OFFCURVE",
"281 176 OFFCURVE",
"282 177 CURVE SMOOTH",
"285 183 OFFCURVE",
"284 191 OFFCURVE",
"287 197 CURVE SMOOTH",
"290 201 OFFCURVE",
"300 197 OFFCURVE",
"300 204 CURVE SMOOTH",
"300 206 OFFCURVE",
"298 207 OFFCURVE",
"296 208 CURVE",
"295 208 OFFCURVE",
"288 209 OFFCURVE",
"287 209 CURVE SMOOTH",
"283 210 OFFCURVE",
"283 224 OFFCURVE",
"276 224 CURVE SMOOTH",
"274 224 OFFCURVE",
"272 220 OFFCURVE",
"271 218 CURVE",
"270 222 OFFCURVE",
"267 224 OFFCURVE",
"263 225 CURVE",
"259 223 OFFCURVE",
"261 208 OFFCURVE",
"256 208 CURVE SMOOTH",
"244 208 LINE",
"244 208 OFFCURVE",
"241 205 OFFCURVE",
"240 204 CURVE",
"240 204 OFFCURVE",
"240 203 OFFCURVE",
"240 203 CURVE",
"240 201 OFFCURVE",
"244 199 OFFCURVE",
"246 199 CURVE SMOOTH",
"246 199 OFFCURVE",
"250 199 OFFCURVE",
"251 199 CURVE SMOOTH",
"252 199 OFFCURVE",
"257 198 OFFCURVE",
"258 198 CURVE SMOOTH",
"262 196 OFFCURVE",
"258 178 OFFCURVE",
"265 178 CURVE SMOOTH",
"269 178 OFFCURVE",
"269 186 OFFCURVE",
"271 186 CURVE SMOOTH",
"271 186 OFFCURVE",
"271 186 OFFCURVE",
"271 186 CURVE"
);
},
{
closed = 1;
nodes = (
"263 476 OFFCURVE",
"260 460 OFFCURVE",
"266 460 CURVE SMOOTH",
"274 460 OFFCURVE",
"269 475 OFFCURVE",
"273 475 CURVE SMOOTH",
"273 475 OFFCURVE",
"274 475 OFFCURVE",
"274 475 CURVE",
"275 471 OFFCURVE",
"276 464 OFFCURVE",
"281 464 CURVE SMOOTH",
"282 464 OFFCURVE",
"283 464 OFFCURVE",
"283 465 CURVE SMOOTH",
"283 466 OFFCURVE",
"285 472 OFFCURVE",
"285 473 CURVE SMOOTH",
"285 475 OFFCURVE",
"283 478 OFFCURVE",
"286 479 CURVE SMOOTH",
"290 480 OFFCURVE",
"301 479 OFFCURVE",
"301 485 CURVE SMOOTH",
"301 489 OFFCURVE",
"291 489 OFFCURVE",
"289 490 CURVE SMOOTH",
"284 492 OFFCURVE",
"285 502 OFFCURVE",
"279 502 CURVE SMOOTH",
"279 502 OFFCURVE",
"278 502 OFFCURVE",
"278 502 CURVE",
"277 500 OFFCURVE",
"275 495 OFFCURVE",
"274 494 CURVE",
"274 494 OFFCURVE",
"274 492 OFFCURVE",
"274 492 CURVE",
"274 492 OFFCURVE",
"273 491 OFFCURVE",
"273 491 CURVE",
"271 496 OFFCURVE",
"273 506 OFFCURVE",
"265 506 CURVE SMOOTH",
"259 506 OFFCURVE",
"265 493 OFFCURVE",
"258 490 CURVE SMOOTH",
"256 489 OFFCURVE",
"250 486 OFFCURVE",
"248 486 CURVE",
"248 485 OFFCURVE",
"250 482 OFFCURVE",
"251 482 CURVE SMOOTH",
"252 481 OFFCURVE",
"258 480 OFFCURVE",
"259 480 CURVE"
);
}
);
userData = {
com.typemytype.robofont.mark = (
0.939,
1,
0.6,
1
);
};
width = 543;
}
);
},
{
glyphname = C;
lastChange = "2020-03-17 07:22:50 +0000";
layers = (
{
anchors = (
{
name = bottom;
position = "{342, 0}";
},
{
name = measure;
position = "{0, 0}";
},
{
name = top;
position = "{342, 660}";
}
);
layerId = master01;
paths = (
{
closed = 1;
nodes = (
"42 332 OFFCURVE",
"42 331 OFFCURVE",
"42 331 CURVE",
"42 331 OFFCURVE",
"43 328 OFFCURVE",
"43 327 CURVE SMOOTH",
"43 326 OFFCURVE",
"43 318 OFFCURVE",
"43 317 CURVE SMOOTH",
"44 304 OFFCURVE",
"44 290 OFFCURVE",
"46 277 CURVE",
"46 277 OFFCURVE",
"47 271 OFFCURVE",
"47 271 CURVE",
"48 261 OFFCURVE",
"50 248 OFFCURVE",
"52 238 CURVE",
"52 237 OFFCURVE",
"56 227 OFFCURVE",
"56 226 CURVE SMOOTH",
"56 225 OFFCURVE",
"58 219 OFFCURVE",
"58 218 CURVE SMOOTH",
"62 202 OFFCURVE",
"70 188 OFFCURVE",
"75 173 CURVE",
"75 173 OFFCURVE",
"77 170 OFFCURVE",
"77 169 CURVE SMOOTH",
"80 162 OFFCURVE",
"85 155 OFFCURVE",
"89 148 CURVE SMOOTH",
"91 144 OFFCURVE",
"90 144 OFFCURVE",
"92 141 CURVE",
"92 140 OFFCURVE",
"99 132 OFFCURVE",
"100 130 CURVE",
"100 130 OFFCURVE",
"102 126 OFFCURVE",
"102 125 CURVE SMOOTH",
"103 124 OFFCURVE",
"106 119 OFFCURVE",
"106 118 CURVE SMOOTH",
"107 117 OFFCURVE",
"112 111 OFFCURVE",
"113 110 CURVE SMOOTH",
"115 107 OFFCURVE",
"117 105 OFFCURVE",
"119 102 CURVE",
"119 101 OFFCURVE",
"126 95 OFFCURVE",
"127 94 CURVE",
"127 93 OFFCURVE",
"129 90 OFFCURVE",
"129 90 CURVE",
"139 79 OFFCURVE",
"150 68 OFFCURVE",
"162 59 CURVE",
"163 57 OFFCURVE",
"174 49 OFFCURVE",
"175 48 CURVE",
"175 48 OFFCURVE",
"178 45 OFFCURVE",
"178 45 CURVE",
"179 45 OFFCURVE",
"190 38 OFFCURVE",
"191 37 CURVE SMOOTH",
"204 30 OFFCURVE",
"215 22 OFFCURVE",
"228 16 CURVE SMOOTH",
"239 11 OFFCURVE",
"249 7 OFFCURVE",
"260 2 CURVE SMOOTH",
"265 0 OFFCURVE",
"270 -2 OFFCURVE",
"275 -3 CURVE SMOOTH",
"278 -4 OFFCURVE",
"303 -11 OFFCURVE",
"306 -11 CURVE SMOOTH",
"307 -11 OFFCURVE",
"309 -13 OFFCURVE",
"310 -13 CURVE SMOOTH",
"334 -17 OFFCURVE",
"359 -20 OFFCURVE",
"383 -20 CURVE SMOOTH",
"396 -20 OFFCURVE",
"408 -17 OFFCURVE",
"421 -15 CURVE SMOOTH",
"435 -13 OFFCURVE",
"448 -11 OFFCURVE",
"462 -7 CURVE",
"463 -7 OFFCURVE",
"469 -6 OFFCURVE",
"469 -6 CURVE",
"470 -6 OFFCURVE",
"474 -3 OFFCURVE",
"475 -3 CURVE SMOOTH",
"476 -3 OFFCURVE",
"487 0 OFFCURVE",
"488 1 CURVE SMOOTH",
"493 3 OFFCURVE",
"514 11 OFFCURVE",
"519 13 CURVE SMOOTH",
"520 14 OFFCURVE",
"523 15 OFFCURVE",
"523 16 CURVE",
"526 17 OFFCURVE",
"549 29 OFFCURVE",
"552 30 CURVE",
"552 30 OFFCURVE",
"556 34 OFFCURVE",
"557 34 CURVE SMOOTH",
"571 45 OFFCURVE",
"586 55 OFFCURVE",
"599 67 CURVE SMOOTH",
"605 73 OFFCURVE",
"623 90 OFFCURVE",
"624 92 CURVE SMOOTH",
"626 95 OFFCURVE",
"634 106 OFFCURVE",
"635 109 CURVE",
"635 109 OFFCURVE",
"635 110 OFFCURVE",
"635 110 CURVE",
"635 112 OFFCURVE",
"634 113 OFFCURVE",
"632 115 CURVE SMOOTH",
"626 122 OFFCURVE",
"618 130 OFFCURVE",
"611 136 CURVE",
"610 136 OFFCURVE",
"607 138 OFFCURVE",
"607 138 CURVE",
"605 140 OFFCURVE",
"595 151 OFFCURVE",
"593 152 CURVE SMOOTH",
"587 157 OFFCURVE",
"581 163 OFFCURVE",
"574 168 CURVE",
"572 171 OFFCURVE",
"560 183 OFFCURVE",
"557 186 CURVE SMOOTH",
"556 187 OFFCURVE",
"554 187 OFFCURVE",
"552 187 CURVE SMOOTH",
"545 187 OFFCURVE",
"539 178 OFFCURVE",
"537 172 CURVE",
"533 167 OFFCURVE",
"512 146 OFFCURVE",
"507 142 CURVE",
"506 142 OFFCURVE",
"494 132 OFFCURVE",
"489 129 CURVE",
"489 128 OFFCURVE",
"486 126 OFFCURVE",
"485 126 CURVE SMOOTH",
"469 117 OFFCURVE",
"452 110 OFFCURVE",
"436 103 CURVE",
"429 101 OFFCURVE",
"423 101 OFFCURVE",
"417 98 CURVE",
"410 97 OFFCURVE",
"380 94 OFFCURVE",
"373 94 CURVE SMOOTH",
"371 94 OFFCURVE",
"355 95 OFFCURVE",
"349 95 CURVE SMOOTH",
"349 95 OFFCURVE",
"344 97 OFFCURVE",
"344 97 CURVE",
"342 97 OFFCURVE",
"327 99 OFFCURVE",
"325 99 CURVE SMOOTH",
"315 101 OFFCURVE",
"307 107 OFFCURVE",
"298 109 CURVE",
"272 121 OFFCURVE",
"247 134 OFFCURVE",
"228 156 CURVE SMOOTH",
"222 162 OFFCURVE",
"219 169 OFFCURVE",
"214 175 CURVE",
"214 176 OFFCURVE",
"207 184 OFFCURVE",
"206 186 CURVE SMOOTH",
"197 201 OFFCURVE",
"189 219 OFFCURVE",
"185 237 CURVE",
"185 238 OFFCURVE",
"183 244 OFFCURVE",
"183 245 CURVE SMOOTH",
"182 251 OFFCURVE",
"179 256 OFFCURVE",
"178 263 CURVE",
"178 263 OFFCURVE",
"178 266 OFFCURVE",
"178 267 CURVE SMOOTH",
"178 268 OFFCURVE",
"175 281 OFFCURVE",
"175 283 CURVE SMOOTH",
"175 285 OFFCURVE",
"172 304 OFFCURVE",
"172 306 CURVE SMOOTH",
"172 306 OFFCURVE",
"171 313 OFFCURVE",
"171 314 CURVE SMOOTH",
"171 314 OFFCURVE",
"171 319 OFFCURVE",
"171 321 CURVE SMOOTH",
"171 323 OFFCURVE",
"171 329 OFFCURVE",
"171 330 CURVE SMOOTH",
"171 335 OFFCURVE",
"172 358 OFFCURVE",
"172 362 CURVE",
"173 363 OFFCURVE",
"174 367 OFFCURVE",
"174 368 CURVE SMOOTH",
"174 369 OFFCURVE",
"174 383 OFFCURVE",
"174 384 CURVE SMOOTH",
"174 385 OFFCURVE",
"177 393 OFFCURVE",
"177 393 CURVE",
"177 396 OFFCURVE",
"181 415 OFFCURVE",
"182 418 CURVE SMOOTH",
"183 424 OFFCURVE",
"187 429 OFFCURVE",
"189 434 CURVE SMOOTH",
"192 443 OFFCURVE",
"196 451 OFFCURVE",
"199 460 CURVE",
"199 460 OFFCURVE",
"201 462 OFFCURVE",
"201 462 CURVE",
"213 481 OFFCURVE",
"225 501 OFFCURVE",
"243 516 CURVE SMOOTH",
"254 526 OFFCURVE",
"267 534 OFFCURVE",
"279 542 CURVE",
"279 542 OFFCURVE",
"281 543 OFFCURVE",
"282 543 CURVE SMOOTH",
"283 544 OFFCURVE",
"293 548 OFFCURVE",
"294 549 CURVE SMOOTH",
"307 554 OFFCURVE",
"320 558 OFFCURVE",
"333 561 CURVE SMOOTH",
"335 561 OFFCURVE",
"354 566 OFFCURVE",
"356 566 CURVE SMOOTH",
"357 566 OFFCURVE",
"368 566 OFFCURVE",
"369 566 CURVE SMOOTH",
"371 566 OFFCURVE",
"380 568 OFFCURVE",
"382 568 CURVE SMOOTH",
"382 568 OFFCURVE",
"384 568 OFFCURVE",
"385 568 CURVE SMOOTH",
"386 568 OFFCURVE",
"388 568 OFFCURVE",
"388 568 CURVE",
"391 568 OFFCURVE",
"415 564 OFFCURVE",
"418 563 CURVE",
"419 563 OFFCURVE",
"423 563 OFFCURVE",
"423 563 CURVE",
"446 559 OFFCURVE",
"465 549 OFFCURVE",
"484 538 CURVE",
"484 538 OFFCURVE",
"485 536 OFFCURVE",
"485 536 CURVE",
"487 536 OFFCURVE",
"496 529 OFFCURVE",
"498 528 CURVE",
"498 528 OFFCURVE",
"504 522 OFFCURVE",
"504 522 CURVE",
"512 515 OFFCURVE",
"522 510 OFFCURVE",
"527 501 CURVE SMOOTH",
"529 499 OFFCURVE",
"530 492 OFFCURVE",
"535 492 CURVE SMOOTH",
"535 492 OFFCURVE",
"535 492 OFFCURVE",
"535 492 CURVE",
"537 493 OFFCURVE",
"541 495 OFFCURVE",
"541 495 CURVE",
"542 496 OFFCURVE",
"547 501 OFFCURVE",
"547 503 CURVE",
"557 512 OFFCURVE",
"599 554 OFFCURVE",
"608 563 CURVE SMOOTH",
"610 565 OFFCURVE",
"616 572 OFFCURVE",
"618 574 CURVE",
"618 574 OFFCURVE",
"618 576 OFFCURVE",
"618 576 CURVE",
"618 578 OFFCURVE",
"617 579 OFFCURVE",
"615 581 CURVE SMOOTH",
"605 592 OFFCURVE",
"594 602 OFFCURVE",
"583 611 CURVE SMOOTH",
"581 612 OFFCURVE",
"573 617 OFFCURVE",
"572 619 CURVE",
"568 621 OFFCURVE",
"565 622 OFFCURVE",
"562 626 CURVE",
"558 628 OFFCURVE",
"541 638 OFFCURVE",
"537 640 CURVE",
"536 640 OFFCURVE",
"532 643 OFFCURVE",
"531 643 CURVE SMOOTH",
"531 643 OFFCURVE",
"529 646 OFFCURVE",
"529 646 CURVE",
"528 646 OFFCURVE",
"525 647 OFFCURVE",
"525 647 CURVE",
"519 649 OFFCURVE",
"514 652 OFFCURVE",
"508 654 CURVE SMOOTH",
"500 658 OFFCURVE",
"491 662 OFFCURVE",
"483 665 CURVE",
"453 673 OFFCURVE",
"422 679 OFFCURVE",
"391 680 CURVE",
"390 680 OFFCURVE",
"375 680 OFFCURVE",
"369 680 CURVE SMOOTH",
"366 680 OFFCURVE",
"351 680 OFFCURVE",
"348 680 CURVE",
"345 677 OFFCURVE",
"339 678 OFFCURVE",
"337 678 CURVE SMOOTH",
"332 678 OFFCURVE",
"328 676 OFFCURVE",
"324 675 CURVE SMOOTH",
"322 675 OFFCURVE",
"313 674 OFFCURVE",
"311 674 CURVE SMOOTH",
"289 669 OFFCURVE",
"268 661 OFFCURVE",
"247 653 CURVE SMOOTH",
"241 651 OFFCURVE",
"235 649 OFFCURVE",
"230 646 CURVE",
"230 646 OFFCURVE",
"228 643 OFFCURVE",
"228 643 CURVE",
"227 643 OFFCURVE",
"224 642 OFFCURVE",
"224 642 CURVE",
"214 637 OFFCURVE",
"208 634 OFFCURVE",
"199 628 CURVE",
"199 628 OFFCURVE",
"197 626 OFFCURVE",
"197 626 CURVE",
"196 626 OFFCURVE",
"193 624 OFFCURVE",
"193 624 CURVE",
"147 588 LINE",
"146 586 OFFCURVE",
"137 578 OFFCURVE",
"136 576 CURVE SMOOTH",
"135 575 OFFCURVE",
"131 571 OFFCURVE",
"131 570 CURVE SMOOTH",
"122 560 OFFCURVE",
"113 550 OFFCURVE",
"105 539 CURVE",
"105 539 OFFCURVE",
"103 536 OFFCURVE",
"102 535 CURVE SMOOTH",
"85 506 OFFCURVE",
"67 477 OFFCURVE",
"59 443 CURVE",
"56 434 OFFCURVE",
"50 406 OFFCURVE",
"50 404 CURVE SMOOTH",
"48 396 OFFCURVE",
"48 387 OFFCURVE",
"47 379 CURVE SMOOTH",
"47 377 OFFCURVE",
"44 364 OFFCURVE",
"44 362 CURVE SMOOTH",
"44 361 OFFCURVE",
"43 346 OFFCURVE",
"43 341 CURVE SMOOTH",
"43 340 OFFCURVE",
"43 337 OFFCURVE",
"43 337 CURVE",
"43 336 OFFCURVE",
"42 333 OFFCURVE",
"42 333 CURVE",
"42 333 OFFCURVE",
"42 332 OFFCURVE",
"42 332 CURVE"
);
}
);
width = 684;
}
);
leftKerningGroup = O;
unicode = 0043;
},
{
glyphname = C.alt;
lastChange = "2020-03-17 07:22:50 +0000";
layers = (
{
anchors = (
{
name = bottom;
position = "{283, 0}";
},
{
name = measure;
position = "{0, 0}";
},
{
name = top;
position = "{283, 660}";
}
);
layerId = master01;
paths = (
{
closed = 1;
nodes = (
"198 42 OFFCURVE",
"219 30 OFFCURVE",
"241 20 CURVE SMOOTH",
"247 17 OFFCURVE",
"255 15 OFFCURVE",
"262 12 CURVE SMOOTH",
"274 7 OFFCURVE",
"287 3 OFFCURVE",
"300 1 CURVE SMOOTH",
"302 1 OFFCURVE",
"320 -1 OFFCURVE",
"322 -1 CURVE SMOOTH",
"343 -5 OFFCURVE",
"363 -8 OFFCURVE",
"384 -8 CURVE SMOOTH",
"385 -8 OFFCURVE",
"388 -8 OFFCURVE",
"388 -8 CURVE",
"389 -8 OFFCURVE",
"400 -7 OFFCURVE",
"401 -7 CURVE SMOOTH",
"411 -6 OFFCURVE",
"421 -6 OFFCURVE",
"431 -4 CURVE SMOOTH",
"438 -3 OFFCURVE",
"464 3 OFFCURVE",
"467 4 CURVE SMOOTH",
"469 5 OFFCURVE",
"479 7 OFFCURVE",
"481 8 CURVE SMOOTH",
"493 13 OFFCURVE",
"504 16 OFFCURVE",
"515 23 CURVE",
"515 23 OFFCURVE",
"517 25 OFFCURVE",
"517 26 CURVE SMOOTH",
"517 34 OFFCURVE",
"519 77 OFFCURVE",
"519 86 CURVE SMOOTH",
"519 88 OFFCURVE",
"519 107 OFFCURVE",
"519 115 CURVE SMOOTH",
"519 119 OFFCURVE",
"519 139 OFFCURVE",
"519 143 CURVE",
"518 145 OFFCURVE",
"516 148 OFFCURVE",
"513 148 CURVE SMOOTH",
"507 148 OFFCURVE",
"507 145 OFFCURVE",
"502 142 CURVE SMOOTH",
"500 140 OFFCURVE",
"486 131 OFFCURVE",
"483 130 CURVE SMOOTH",
"482 129 OFFCURVE",
"473 125 OFFCURVE",
"471 124 CURVE",
"471 124 OFFCURVE",
"465 121 OFFCURVE",
"465 120 CURVE",
"460 118 OFFCURVE",
"454 116 OFFCURVE",
"450 115 CURVE SMOOTH",
"427 108 OFFCURVE",
"404 104 OFFCURVE",
"380 104 CURVE SMOOTH",
"378 104 OFFCURVE",
"370 104 OFFCURVE",
"369 104 CURVE SMOOTH",
"367 104 OFFCURVE",
"355 105 OFFCURVE",
"354 105 CURVE SMOOTH",
"353 105 OFFCURVE",
"351 105 OFFCURVE",
"350 105 CURVE SMOOTH",
"350 105 OFFCURVE",
"347 107 OFFCURVE",
"347 107 CURVE",
"346 107 OFFCURVE",
"338 109 OFFCURVE",
"336 109 CURVE SMOOTH",
"334 110 OFFCURVE",
"332 111 OFFCURVE",
"330 111 CURVE SMOOTH",
"326 111 OFFCURVE",
"312 116 OFFCURVE",
"308 117 CURVE SMOOTH",
"307 118 OFFCURVE",
"296 124 OFFCURVE",
"295 124 CURVE SMOOTH",
"289 127 OFFCURVE",
"283 129 OFFCURVE",
"278 132 CURVE",
"277 134 OFFCURVE",
"264 142 OFFCURVE",
"262 143 CURVE",
"262 144 OFFCURVE",
"255 149 OFFCURVE",
"253 151 CURVE",
"253 151 OFFCURVE",
"250 154 OFFCURVE",
"250 154 CURVE",
"239 163 OFFCURVE",
"229 173 OFFCURVE",
"220 185 CURVE SMOOTH",
"210 200 OFFCURVE",
"200 213 OFFCURVE",
"193 231 CURVE SMOOTH",
"189 243 OFFCURVE",
"184 256 OFFCURVE",
"181 269 CURVE",
"181 269 OFFCURVE",
"181 272 OFFCURVE",
"181 273 CURVE SMOOTH",
"181 275 OFFCURVE",
"177 292 OFFCURVE",
"177 294 CURVE SMOOTH",
"176 304 OFFCURVE",
"176 311 OFFCURVE",
"176 321 CURVE SMOOTH",
"176 323 OFFCURVE",
"176 329 OFFCURVE",
"176 329 CURVE",
"176 331 OFFCURVE",
"177 346 OFFCURVE",
"177 348 CURVE SMOOTH",
"179 379 OFFCURVE",
"183 410 OFFCURVE",
"195 440 CURVE SMOOTH",
"196 441 OFFCURVE",
"200 449 OFFCURVE",
"200 451 CURVE",
"201 452 OFFCURVE",
"204 461 OFFCURVE",
"204 462 CURVE SMOOTH",
"206 465 OFFCURVE",
"218 482 OFFCURVE",
"220 486 CURVE SMOOTH",
"221 487 OFFCURVE",
"233 500 OFFCURVE",
"237 505 CURVE",
"237 505 OFFCURVE",
"240 508 OFFCURVE",
"241 509 CURVE SMOOTH",
"262 528 OFFCURVE",
"287 542 OFFCURVE",
"312 553 CURVE",
"319 555 OFFCURVE",
"324 558 OFFCURVE",
"331 559 CURVE SMOOTH",
"340 560 OFFCURVE",
"367 564 OFFCURVE",
"370 564 CURVE SMOOTH",
"370 564 OFFCURVE",
"375 564 OFFCURVE",
"377 564 CURVE SMOOTH",
"406 564 OFFCURVE",
"436 562 OFFCURVE",
"463 552 CURVE SMOOTH",
"465 551 OFFCURVE",
"484 543 OFFCURVE",
"492 540 CURVE SMOOTH",
"500 536 OFFCURVE",
"506 529 OFFCURVE",
"515 525 CURVE SMOOTH",
"516 524 OFFCURVE",
"519 524 OFFCURVE",
"519 524 CURVE",
"521 529 LINE",
"521 530 OFFCURVE",
"521 545 OFFCURVE",
"521 551 CURVE SMOOTH",
"521 559 OFFCURVE",
"521 583 OFFCURVE",
"521 586 CURVE SMOOTH",
"521 591 OFFCURVE",
"520 632 OFFCURVE",
"520 637 CURVE SMOOTH",
"520 638 OFFCURVE",
"520 649 OFFCURVE",
"520 651 CURVE SMOOTH",
"519 657 OFFCURVE",
"503 661 OFFCURVE",
"498 663 CURVE",
"497 663 OFFCURVE",
"486 667 OFFCURVE",
"485 668 CURVE SMOOTH",
"483 669 OFFCURVE",
"477 671 OFFCURVE",
"477 671 CURVE",
"462 675 OFFCURVE",
"446 677 OFFCURVE",
"431 680 CURVE",
"430 680 OFFCURVE",
"426 682 OFFCURVE",
"425 682 CURVE SMOOTH",
"419 682 OFFCURVE",
"414 680 OFFCURVE",
"408 683 CURVE",
"405 683 OFFCURVE",
"391 683 OFFCURVE",
"388 683 CURVE SMOOTH",
"350 683 OFFCURVE",
"312 678 OFFCURVE",
"276 665 CURVE SMOOTH",
"258 659 OFFCURVE",
"241 649 OFFCURVE",
"223 642 CURVE",
"223 642 OFFCURVE",
"222 641 OFFCURVE",
"222 641 CURVE",
"220 640 OFFCURVE",
"215 636 OFFCURVE",
"214 636 CURVE SMOOTH",
"213 635 OFFCURVE",
"205 631 OFFCURVE",
"204 630 CURVE",
"204 630 OFFCURVE",
"202 628 OFFCURVE",
"202 628 CURVE",
"202 628 OFFCURVE",
"199 626 OFFCURVE",
"199 626 CURVE",
"198 626 OFFCURVE",
"194 623 OFFCURVE",
"193 622 CURVE",
"193 622 OFFCURVE",
"192 622 OFFCURVE",
"192 622 CURVE",
"192 622 OFFCURVE",
"189 619 OFFCURVE",
"189 619 CURVE",
"188 619 OFFCURVE",
"177 611 OFFCURVE",
"176 610 CURVE SMOOTH",
"156 595 OFFCURVE",
"141 578 OFFCURVE",
"125 559 CURVE SMOOTH",
"120 553 OFFCURVE",
"115 549 OFFCURVE",
"111 543 CURVE",
"111 542 OFFCURVE",
"106 534 OFFCURVE",
"106 533 CURVE SMOOTH",
"102 526 OFFCURVE",
"97 521 OFFCURVE",
"94 514 CURVE SMOOTH",
"79 486 OFFCURVE",
"67 457 OFFCURVE",
"59 426 CURVE",
"55 414 OFFCURVE",
"53 401 OFFCURVE",
"51 387 CURVE",
"51 387 OFFCURVE",
"49 383 OFFCURVE",
"49 382 CURVE SMOOTH",
"49 381 OFFCURVE",
"49 377 OFFCURVE",
"49 377 CURVE",
"49 375 OFFCURVE",
"47 365 OFFCURVE",
"46 363 CURVE",
"46 356 OFFCURVE",
"45 322 OFFCURVE",
"45 314 CURVE SMOOTH",
"45 313 OFFCURVE",
"46 304 OFFCURVE",
"46 302 CURVE SMOOTH",
"46 301 OFFCURVE",
"46 293 OFFCURVE",
"46 292 CURVE SMOOTH",
"47 280 OFFCURVE",
"50 269 OFFCURVE",
"52 258 CURVE SMOOTH",
"52 256 OFFCURVE",
"53 248 OFFCURVE",
"53 247 CURVE SMOOTH",
"53 246 OFFCURVE",
"57 238 OFFCURVE",
"57 238 CURVE",
"57 237 OFFCURVE",
"59 229 OFFCURVE",
"60 227 CURVE",
"60 226 OFFCURVE",
"61 219 OFFCURVE",
"61 219 CURVE",
"63 211 OFFCURVE",
"65 204 OFFCURVE",
"68 197 CURVE",
"68 196 OFFCURVE",
"70 192 OFFCURVE",
"71 190 CURVE",
"71 190 OFFCURVE",
"73 186 OFFCURVE",
"73 185 CURVE SMOOTH",
"73 184 OFFCURVE",
"75 176 OFFCURVE",
"76 175 CURVE SMOOTH",
"77 173 OFFCURVE",
"86 157 OFFCURVE",
"88 153 CURVE SMOOTH",
"90 150 OFFCURVE",
"95 142 OFFCURVE",
"96 140 CURVE",
"97 140 OFFCURVE",
"104 132 OFFCURVE",
"104 131 CURVE SMOOTH",
"114 119 OFFCURVE",
"123 107 OFFCURVE",
"133 96 CURVE",
"133 95 OFFCURVE",
"138 90 OFFCURVE",
"140 89 CURVE SMOOTH",
"141 88 OFFCURVE",
"152 78 OFFCURVE",
"153 77 CURVE SMOOTH",
"160 70 OFFCURVE",
"167 64 OFFCURVE",
"175 58 CURVE SMOOTH",
"177 56 OFFCURVE",
"177 57 OFFCURVE",
"179 55 CURVE SMOOTH"
);
}
);
width = 565;
}
);
leftKerningGroup = O;
},
{
glyphname = C.alt.ss02;
lastChange = "2020-03-17 07:33:06 +0000";
layers = (
{
anchors = (
{
name = _measure;
position = "{0, 0}";
}
);
layerId = master01;
paths = (
{
closed = 1;
nodes = (
"510 -150 OFFCURVE",
"510 -157 OFFCURVE",
"510 -158 CURVE SMOOTH",
"510 -162 OFFCURVE",
"511 -170 OFFCURVE",
"517 -170 CURVE SMOOTH",
"517 -170 OFFCURVE",
"519 -170 OFFCURVE",
"519 -170 CURVE",
"519 -169 OFFCURVE",
"520 -161 OFFCURVE",
"520 -159 CURVE SMOOTH",
"520 -159 OFFCURVE",
"520 -154 OFFCURVE",
"520 -154 CURVE",
"520 -152 OFFCURVE",
"523 -138 OFFCURVE",
"523 -136 CURVE SMOOTH",
"523 -136 OFFCURVE",
"523 -132 OFFCURVE",
"523 -131 CURVE SMOOTH",
"523 -125 OFFCURVE",
"523 -118 OFFCURVE",
"521 -113 CURVE",
"521 -110 OFFCURVE",
"518 -108 OFFCURVE",
"515 -108 CURVE SMOOTH",
"510 -108 OFFCURVE",
"510 -115 OFFCURVE",
"510 -117 CURVE SMOOTH",
"510 -119 OFFCURVE",
"510 -128 OFFCURVE",
"510 -130 CURVE SMOOTH",
"510 -130 OFFCURVE",
"508 -133 OFFCURVE",
"508 -134 CURVE",
"507 -134 OFFCURVE",
"503 -135 OFFCURVE",
"502 -135 CURVE",
"390 -134 LINE",
"380 -134 LINE",
"208 -134 LINE",
"208 -133 OFFCURVE",
"203 -132 OFFCURVE",
"202 -132 CURVE SMOOTH",
"200 -132 OFFCURVE",
"189 -134 OFFCURVE",
"188 -134 CURVE SMOOTH",
"187 -134 OFFCURVE",
"179 -133 OFFCURVE",
"177 -132 CURVE",
"130 -132 LINE",
"122 -133 LINE",
"65 -132 LINE SMOOTH",
"57 -132 OFFCURVE",
"65 -107 OFFCURVE",
"54 -107 CURVE SMOOTH",
"54 -107 OFFCURVE",
"53 -107 OFFCURVE",
"53 -107 CURVE",
"53 -107 OFFCURVE",
"51 -110 OFFCURVE",
"51 -111 CURVE SMOOTH",
"51 -113 OFFCURVE",
"51 -121 OFFCURVE",
"51 -123 CURVE SMOOTH",
"51 -127 OFFCURVE",
"51 -136 OFFCURVE",
"51 -136 CURVE",
"51 -140 OFFCURVE",
"52 -158 OFFCURVE",
"52 -162 CURVE SMOOTH",
"52 -164 OFFCURVE",
"53 -165 OFFCURVE",
"54 -165 CURVE SMOOTH",
"54 -165 OFFCURVE",
"55 -165 OFFCURVE",
"55 -165 CURVE",
"55 -164 OFFCURVE",
"59 -163 OFFCURVE",
"60 -162 CURVE",
"60 -160 OFFCURVE",
"61 -150 OFFCURVE",
"61 -148 CURVE SMOOTH",
"61 -147 OFFCURVE",
"63 -143 OFFCURVE",
"63 -143 CURVE",
"257 -144 LINE",
"268 -144 LINE",
"469 -144 LINE SMOOTH",
"471 -144 OFFCURVE",
"479 -146 OFFCURVE",
"481 -146 CURVE SMOOTH",
"483 -146 OFFCURVE",
"502 -146 OFFCURVE",
"504 -146 CURVE SMOOTH",
"504 -146 OFFCURVE",
"508 -146 OFFCURVE",
"509 -147 CURVE",
"509 -147 OFFCURVE",
"510 -148 OFFCURVE",
"510 -148 CURVE"
);
},
{
closed = 1;
nodes = (
"269 -95 OFFCURVE",
"269 -96 OFFCURVE",
"269 -96 CURVE",
"272 -107 OFFCURVE",
"278 -109 OFFCURVE",
"289 -109 CURVE SMOOTH",
"299 -109 OFFCURVE",
"311 -99 OFFCURVE",
"312 -88 CURVE",
"312 -88 OFFCURVE",
"312 -83 OFFCURVE",
"311 -81 CURVE SMOOTH",
"308 -68 OFFCURVE",
"298 -64 OFFCURVE",
"285 -63 CURVE",
"284 -62 OFFCURVE",
"284 -61 OFFCURVE",
"284 -59 CURVE SMOOTH",
"284 -58 OFFCURVE",
"284 -57 OFFCURVE",
"284 -57 CURVE",
"284 -56 OFFCURVE",
"286 -54 OFFCURVE",
"287 -54 CURVE",
"304 -54 LINE SMOOTH",
"307 -54 OFFCURVE",
"309 -50 OFFCURVE",
"309 -48 CURVE SMOOTH",
"309 -46 OFFCURVE",
"307 -43 OFFCURVE",
"305 -43 CURVE SMOOTH",
"278 -43 LINE",
"278 -43 OFFCURVE",
"276 -44 OFFCURVE",
"276 -45 CURVE",
"275 -45 OFFCURVE",
"273 -48 OFFCURVE",
"273 -49 CURVE",
"273 -66 LINE",
"271 -68 OFFCURVE",
"272 -70 OFFCURVE",
"272 -72 CURVE SMOOTH",
"272 -76 OFFCURVE",
"272 -78 OFFCURVE",
"276 -78 CURVE SMOOTH",
"280 -78 OFFCURVE",
"284 -77 OFFCURVE",
"288 -77 CURVE SMOOTH",
"294 -77 OFFCURVE",
"300 -79 OFFCURVE",
"300 -86 CURVE SMOOTH",
"300 -86 OFFCURVE",
"300 -88 OFFCURVE",
"300 -88 CURVE",
"298 -94 OFFCURVE",
"295 -98 OFFCURVE",
"288 -98 CURVE SMOOTH",
"282 -98 OFFCURVE",
"282 -92 OFFCURVE",
"275 -92 CURVE SMOOTH",
"272 -92 OFFCURVE",
"271 -91 OFFCURVE",
"269 -94 CURVE",
"269 -94 OFFCURVE",
"269 -95 OFFCURVE",
"269 -95 CURVE"
);
}
);
userData = {
com.typemytype.robofont.mark = (
0.939,
1,
0.6,
1
);
};
width = 565;
}
);
leftKerningGroup = O;
},
{
glyphname = C.ss02;
lastChange = "2020-03-17 07:33:06 +0000";
layers = (
{
anchors = (
{
name = _measure;
position = "{0, 0}";
}
);
layerId = master01;
paths = (
{
closed = 1;
nodes = (
"607 -146 LINE",
"607 -146 OFFCURVE",
"607 -158 OFFCURVE",
"608 -163 CURVE SMOOTH",
"608 -165 OFFCURVE",
"610 -172 OFFCURVE",
"614 -172 CURVE SMOOTH",
"615 -172 OFFCURVE",
"616 -168 OFFCURVE",
"616 -168 CURVE",
"616 -113 LINE SMOOTH",
"616 -110 OFFCURVE",
"615 -107 OFFCURVE",
"612 -107 CURVE SMOOTH",
"611 -107 OFFCURVE",
"607 -110 OFFCURVE",
"607 -111 CURVE",
"607 -129 LINE SMOOTH",
"607 -132 OFFCURVE",
"603 -133 OFFCURVE",
"601 -133 CURVE SMOOTH",
"601 -133 OFFCURVE",
"589 -134 OFFCURVE",
"584 -134 CURVE SMOOTH",
"584 -134 OFFCURVE",
"583 -134 OFFCURVE",
"583 -134 CURVE",
"583 -134 OFFCURVE",
"583 -134 OFFCURVE",
"583 -134 CURVE",
"582 -134 OFFCURVE",
"574 -133 OFFCURVE",
"573 -133 CURVE SMOOTH",
"572 -133 OFFCURVE",
"560 -134 OFFCURVE",
"558 -134 CURVE SMOOTH",
"558 -134 OFFCURVE",
"551 -133 OFFCURVE",
"550 -133 CURVE SMOOTH",
"550 -133 OFFCURVE",
"549 -133 OFFCURVE",
"549 -133 CURVE",
"549 -133 OFFCURVE",
"549 -133 OFFCURVE",
"549 -133 CURVE",
"548 -133 OFFCURVE",
"543 -134 OFFCURVE",
"542 -134 CURVE SMOOTH",
"541 -134 OFFCURVE",
"532 -134 OFFCURVE",
"529 -134 CURVE SMOOTH",
"525 -134 OFFCURVE",
"516 -134 OFFCURVE",
"515 -134 CURVE SMOOTH",
"514 -134 OFFCURVE",
"506 -133 OFFCURVE",
"506 -133 CURVE",
"506 -133 OFFCURVE",
"503 -133 OFFCURVE",
"502 -133 CURVE SMOOTH",
"501 -133 OFFCURVE",
"498 -133 OFFCURVE",
"498 -133 CURVE",
"496 -133 OFFCURVE",
"486 -134 OFFCURVE",
"484 -134 CURVE SMOOTH",
"268 -134 LINE SMOOTH",
"266 -134 OFFCURVE",
"251 -133 OFFCURVE",
"248 -133 CURVE SMOOTH",
"245 -133 OFFCURVE",
"225 -134 OFFCURVE",
"222 -134 CURVE SMOOTH",
"222 -134 OFFCURVE",
"208 -134 OFFCURVE",
"204 -134 CURVE SMOOTH",
"189 -134 OFFCURVE",
"174 -133 OFFCURVE",
"159 -133 CURVE SMOOTH",
"148 -133 OFFCURVE",
"138 -134 OFFCURVE",
"127 -134 CURVE SMOOTH",
"103 -134 OFFCURVE",
"79 -132 OFFCURVE",
"55 -133 CURVE",
"55 -133 OFFCURVE",
"54 -132 OFFCURVE",
"54 -132 CURVE",
"54 -131 OFFCURVE",
"52 -127 OFFCURVE",
"52 -126 CURVE SMOOTH",
"52 -125 OFFCURVE",
"52 -117 OFFCURVE",
"52 -117 CURVE",
"52 -115 OFFCURVE",
"51 -109 OFFCURVE",
"51 -107 CURVE SMOOTH",
"51 -107 OFFCURVE",
"49 -107 OFFCURVE",
"49 -107 CURVE",
"46 -107 OFFCURVE",
"44 -108 OFFCURVE",
"43 -111 CURVE",
"43 -115 OFFCURVE",
"43 -131 OFFCURVE",
"43 -134 CURVE SMOOTH",
"43 -140 OFFCURVE",
"43 -156 OFFCURVE",
"43 -157 CURVE SMOOTH",
"43 -159 OFFCURVE",
"44 -167 OFFCURVE",
"44 -168 CURVE SMOOTH",
"45 -169 OFFCURVE",
"46 -171 OFFCURVE",
"48 -171 CURVE SMOOTH",
"50 -171 OFFCURVE",
"52 -167 OFFCURVE",
"52 -165 CURVE SMOOTH",
"52 -165 OFFCURVE",
"52 -156 OFFCURVE",
"52 -156 CURVE",
"52 -154 OFFCURVE",
"54 -148 OFFCURVE",
"54 -146 CURVE SMOOTH",
"54 -146 OFFCURVE",
"55 -145 OFFCURVE",
"55 -145 CURVE",
"56 -145 OFFCURVE",
"65 -145 OFFCURVE",
"66 -145 CURVE SMOOTH",
"68 -145 OFFCURVE",
"83 -144 OFFCURVE",
"85 -144 CURVE SMOOTH",
"93 -144 OFFCURVE",
"160 -144 OFFCURVE",
"168 -144 CURVE SMOOTH",
"171 -144 OFFCURVE",
"194 -142 OFFCURVE",
"197 -142 CURVE SMOOTH",
"197 -142 OFFCURVE",
"204 -142 OFFCURVE",
"206 -142 CURVE SMOOTH",
"208 -142 OFFCURVE",
"215 -142 OFFCURVE",
"216 -142 CURVE SMOOTH",
"223 -142 OFFCURVE",
"282 -144 OFFCURVE",
"290 -144 CURVE SMOOTH",
"329 -144 OFFCURVE",
"510 -144 OFFCURVE",
"549 -144 CURVE",
"567 -145 OFFCURVE",
"587 -146 OFFCURVE",
"605 -145 CURVE"
);
},
{
closed = 1;
nodes = (
"311 -89 OFFCURVE",
"311 -92 OFFCURVE",
"313 -98 CURVE",
"313 -101 OFFCURVE",
"318 -105 OFFCURVE",
"320 -106 CURVE SMOOTH",
"321 -107 OFFCURVE",
"324 -110 OFFCURVE",
"325 -110 CURVE SMOOTH",
"326 -111 OFFCURVE",
"334 -113 OFFCURVE",
"336 -113 CURVE SMOOTH",
"336 -113 OFFCURVE",
"339 -112 OFFCURVE",
"340 -111 CURVE SMOOTH",
"342 -110 OFFCURVE",
"350 -107 OFFCURVE",
"351 -106 CURVE",
"351 -106 OFFCURVE",
"353 -104 OFFCURVE",
"353 -103 CURVE SMOOTH",
"353 -103 OFFCURVE",
"357 -96 OFFCURVE",
"359 -94 CURVE",
"359 -93 OFFCURVE",
"360 -91 OFFCURVE",
"360 -91 CURVE",
"360 -91 OFFCURVE",
"360 -88 OFFCURVE",
"360 -87 CURVE SMOOTH",
"360 -80 OFFCURVE",
"357 -71 OFFCURVE",
"351 -68 CURVE",
"350 -68 OFFCURVE",
"344 -66 OFFCURVE",
"341 -65 CURVE",
"341 -65 OFFCURVE",
"340 -65 OFFCURVE",
"340 -65 CURVE",
"336 -65 OFFCURVE",
"332 -69 OFFCURVE",
"327 -69 CURVE SMOOTH",
"327 -69 OFFCURVE",
"326 -69 OFFCURVE",
"326 -69 CURVE",
"327 -67 OFFCURVE",
"330 -62 OFFCURVE",
"332 -60 CURVE SMOOTH",
"333 -59 OFFCURVE",
"342 -49 OFFCURVE",
"344 -48 CURVE SMOOTH",
"345 -47 OFFCURVE",
"345 -45 OFFCURVE",
"345 -43 CURVE SMOOTH",
"345 -40 OFFCURVE",
"344 -40 OFFCURVE",
"341 -40 CURVE SMOOTH",
"340 -40 OFFCURVE",
"340 -40 OFFCURVE",
"340 -40 CURVE",
"339 -40 OFFCURVE",
"336 -42 OFFCURVE",
"336 -42 CURVE",
"323 -53 OFFCURVE",
"311 -67 OFFCURVE",
"311 -84 CURVE SMOOTH"
);
},
{
closed = 1;
nodes = (
"322 -83 OFFCURVE",
"331 -76 OFFCURVE",
"338 -76 CURVE SMOOTH",
"344 -76 OFFCURVE",
"347 -78 OFFCURVE",
"349 -84 CURVE",
"349 -84 OFFCURVE",
"349 -86 OFFCURVE",
"349 -86 CURVE",
"349 -95 OFFCURVE",
"343 -100 OFFCURVE",
"334 -100 CURVE SMOOTH",
"329 -100 OFFCURVE",
"327 -98 OFFCURVE",
"324 -94 CURVE",
"324 -94 OFFCURVE",
"322 -92 OFFCURVE",
"322 -91 CURVE SMOOTH",
"322 -91 OFFCURVE",
"322 -90 OFFCURVE",
"322 -90 CURVE"
);
},
{
closed = 1;
nodes = (
"605 166 OFFCURVE",
"607 161 OFFCURVE",
"610 161 CURVE SMOOTH",
"610 161 OFFCURVE",
"611 161 OFFCURVE",
"611 161 CURVE",
"615 168 LINE",
"615 169 OFFCURVE",
"616 186 OFFCURVE",
"616 192 CURVE SMOOTH",
"616 196 OFFCURVE",
"616 230 OFFCURVE",
"616 234 CURVE SMOOTH",
"616 237 OFFCURVE",
"618 257 OFFCURVE",
"618 260 CURVE SMOOTH",
"618 260 OFFCURVE",
"618 263 OFFCURVE",
"618 265 CURVE SMOOTH",
"618 266 OFFCURVE",
"618 269 OFFCURVE",
"618 269 CURVE",
"618 271 OFFCURVE",
"616 286 OFFCURVE",
"616 288 CURVE SMOOTH",
"616 297 OFFCURVE",
"617 339 OFFCURVE",
"617 348 CURVE SMOOTH",
"617 353 LINE SMOOTH",
"617 371 OFFCURVE",
"618 451 OFFCURVE",
"618 469 CURVE SMOOTH",
"618 472 OFFCURVE",
"616 497 OFFCURVE",
"616 500 CURVE SMOOTH",
"616 501 OFFCURVE",
"618 512 OFFCURVE",
"618 514 CURVE SMOOTH",
"618 514 OFFCURVE",
"618 522 OFFCURVE",
"618 524 CURVE SMOOTH",
"618 530 OFFCURVE",
"618 534 OFFCURVE",
"616 539 CURVE",
"616 540 OFFCURVE",
"613 542 OFFCURVE",
"612 542 CURVE SMOOTH",
"612 542 OFFCURVE",
"610 540 OFFCURVE",
"610 539 CURVE SMOOTH",
"609 538 OFFCURVE",
"608 531 OFFCURVE",
"608 530 CURVE SMOOTH",
"608 519 OFFCURVE",
"608 469 OFFCURVE",
"608 458 CURVE SMOOTH",
"608 453 OFFCURVE",
"607 417 OFFCURVE",
"607 412 CURVE SMOOTH",
"607 402 OFFCURVE",
"607 323 OFFCURVE",
"607 312 CURVE SMOOTH",
"607 308 OFFCURVE",
"605 279 OFFCURVE",
"605 275 CURVE SMOOTH",
"605 273 OFFCURVE",
"605 236 OFFCURVE",
"605 221 CURVE SMOOTH",
"605 213 OFFCURVE",
"605 176 OFFCURVE",
"605 168 CURVE SMOOTH"
);
},
{
closed = 1;
nodes = (
"424 275 OFFCURVE",
"465 242 OFFCURVE",
"473 236 CURVE SMOOTH",
"474 235 OFFCURVE",
"482 227 OFFCURVE",
"485 225 CURVE",
"485 225 OFFCURVE",
"487 223 OFFCURVE",
"487 223 CURVE",
"498 215 OFFCURVE",
"509 208 OFFCURVE",
"519 199 CURVE SMOOTH",
"522 197 OFFCURVE",
"525 193 OFFCURVE",
"529 192 CURVE",
"529 192 OFFCURVE",
"535 192 OFFCURVE",
"535 192 CURVE",
"535 204 OFFCURVE",
"524 207 OFFCURVE",
"516 213 CURVE",
"516 213 OFFCURVE",
"509 219 OFFCURVE",
"507 221 CURVE",
"507 221 OFFCURVE",
"504 223 OFFCURVE",
"504 223 CURVE",
"504 224 OFFCURVE",
"496 229 OFFCURVE",
"495 230 CURVE SMOOTH",
"494 231 OFFCURVE",
"489 235 OFFCURVE",
"488 236 CURVE",
"487 236 OFFCURVE",
"482 242 OFFCURVE",
"481 242 CURVE",
"481 243 OFFCURVE",
"477 245 OFFCURVE",
"476 245 CURVE SMOOTH",
"475 246 OFFCURVE",
"472 248 OFFCURVE",
"471 249 CURVE SMOOTH",
"469 250 OFFCURVE",
"462 256 OFFCURVE",
"461 257 CURVE SMOOTH",
"459 259 OFFCURVE",
"458 261 OFFCURVE",
"456 261 CURVE",
"418 292 LINE",
"417 292 OFFCURVE",
"416 294 OFFCURVE",
"415 294 CURVE SMOOTH",
"407 300 OFFCURVE",
"400 307 OFFCURVE",
"390 307 CURVE",
"390 296 OFFCURVE",
"409 289 OFFCURVE",
"415 281 CURVE"
);
},
{
closed = 1;
nodes = (
"387 342 OFFCURVE",
"388 342 OFFCURVE",
"390 342 CURVE SMOOTH",
"390 342 OFFCURVE",
"392 342 OFFCURVE",
"392 342 CURVE",
"396 346 OFFCURVE",
"411 360 OFFCURVE",
"414 364 CURVE",
"415 364 OFFCURVE",
"419 367 OFFCURVE",
"419 368 CURVE SMOOTH",
"419 368 OFFCURVE",
"421 369 OFFCURVE",
"421 369 CURVE",
"421 371 OFFCURVE",
"429 379 OFFCURVE",
"430 380 CURVE SMOOTH",
"436 387 OFFCURVE",
"459 409 OFFCURVE",
"462 412 CURVE SMOOTH",
"464 414 OFFCURVE",
"476 423 OFFCURVE",
"477 424 CURVE SMOOTH",
"479 427 OFFCURVE",
"489 437 OFFCURVE",
"492 439 CURVE",
"492 440 OFFCURVE",
"495 443 OFFCURVE",
"495 443 CURVE",
"500 450 OFFCURVE",
"516 458 OFFCURVE",
"518 466 CURVE",
"518 466 OFFCURVE",
"518 468 OFFCURVE",
"518 469 CURVE SMOOTH",
"518 470 OFFCURVE",
"518 473 OFFCURVE",
"516 473 CURVE SMOOTH",
"516 473 OFFCURVE",
"513 472 OFFCURVE",
"512 472 CURVE SMOOTH",
"498 459 OFFCURVE",
"483 445 OFFCURVE",
"469 430 CURVE",
"469 430 OFFCURVE",
"468 427 OFFCURVE",
"468 427 CURVE",
"468 427 OFFCURVE",
"467 426 OFFCURVE",
"467 426 CURVE",
"460 421 OFFCURVE",
"453 416 OFFCURVE",
"448 410 CURVE SMOOTH",
"447 409 OFFCURVE",
"442 402 OFFCURVE",
"441 402 CURVE SMOOTH",
"440 401 OFFCURVE",
"436 398 OFFCURVE",
"436 397 CURVE",
"431 393 OFFCURVE",
"414 376 OFFCURVE",
"410 372 CURVE",
"409 372 OFFCURVE",
"405 370 OFFCURVE",
"404 369 CURVE",
"404 369 OFFCURVE",
"402 366 OFFCURVE",
"402 365 CURVE SMOOTH",
"402 365 OFFCURVE",
"400 362 OFFCURVE",
"400 362 CURVE",
"398 360 OFFCURVE",
"390 352 OFFCURVE",
"388 350 CURVE SMOOTH",
"387 348 OFFCURVE",
"387 347 OFFCURVE",
"387 345 CURVE SMOOTH"
);
},
{
closed = 1;
nodes = (
"365 370 OFFCURVE",
"369 371 OFFCURVE",
"369 371 CURVE",
"370 371 OFFCURVE",
"372 371 OFFCURVE",
"372 371 CURVE",
"386 383 LINE",
"386 383 OFFCURVE",
"386 383 OFFCURVE",
"387 383 CURVE SMOOTH",
"391 383 OFFCURVE",
"393 377 OFFCURVE",
"397 377 CURVE SMOOTH",
"398 377 OFFCURVE",
"398 377 OFFCURVE",
"399 379 CURVE",
"399 379 OFFCURVE",
"399 383 OFFCURVE",
"399 383 CURVE",
"399 385 OFFCURVE",
"399 388 OFFCURVE",
"399 388 CURVE",
"399 388 OFFCURVE",
"398 391 OFFCURVE",
"398 391 CURVE",
"398 391 OFFCURVE",
"398 391 OFFCURVE",
"398 391 CURVE",
"398 395 OFFCURVE",
"400 397 OFFCURVE",
"400 401 CURVE SMOOTH",
"400 402 OFFCURVE",
"400 403 OFFCURVE",
"400 403 CURVE",
"400 404 OFFCURVE",
"398 404 OFFCURVE",
"398 404 CURVE",
"397 404 OFFCURVE",
"390 402 OFFCURVE",
"390 402 CURVE",
"390 402 OFFCURVE",
"388 402 OFFCURVE",
"388 402 CURVE",
"388 402 OFFCURVE",
"387 402 OFFCURVE",
"387 402 CURVE",
"386 404 OFFCURVE",
"378 411 OFFCURVE",
"376 412 CURVE",
"376 412 OFFCURVE",
"373 414 OFFCURVE",
"373 414 CURVE",
"371 415 OFFCURVE",
"369 419 OFFCURVE",
"366 419 CURVE SMOOTH",
"365 419 OFFCURVE",
"363 418 OFFCURVE",
"363 416 CURVE SMOOTH",
"363 415 OFFCURVE",
"363 410 OFFCURVE",
"363 408 CURVE SMOOTH",
"363 406 OFFCURVE",
"363 401 OFFCURVE",
"363 400 CURVE SMOOTH",
"363 396 OFFCURVE",
"364 376 OFFCURVE",
"364 372 CURVE"
);
},
{
closed = 1;
nodes = (
"372 393 OFFCURVE",
"372 396 OFFCURVE",
"375 396 CURVE SMOOTH",
"378 396 OFFCURVE",
"380 395 OFFCURVE",
"380 392 CURVE SMOOTH",
"380 391 OFFCURVE",
"375 387 OFFCURVE",
"375 387 CURVE",
"375 387 OFFCURVE",
"374 387 OFFCURVE",
"374 387 CURVE",
"372 387 OFFCURVE",
"372 389 OFFCURVE",
"372 391 CURVE SMOOTH"
);
},
{
closed = 1;
nodes = (
"407 404 OFFCURVE",
"407 403 OFFCURVE",
"407 403 CURVE",
"407 402 OFFCURVE",
"409 400 OFFCURVE",
"410 400 CURVE SMOOTH",
"411 400 OFFCURVE",
"415 400 OFFCURVE",
"415 400 CURVE",
"418 400 OFFCURVE",
"421 400 OFFCURVE",
"423 402 CURVE SMOOTH",
"429 406 OFFCURVE",
"434 411 OFFCURVE",
"434 418 CURVE SMOOTH",
"434 425 OFFCURVE",
"432 433 OFFCURVE",
"426 437 CURVE",
"425 437 OFFCURVE",
"421 439 OFFCURVE",
"421 439 CURVE",
"419 439 OFFCURVE",
"414 439 OFFCURVE",
"413 438 CURVE SMOOTH",
"412 437 OFFCURVE",
"405 433 OFFCURVE",
"404 433 CURVE SMOOTH",
"404 433 OFFCURVE",
"403 433 OFFCURVE",
"402 433 CURVE SMOOTH",
"400 433 OFFCURVE",
"399 433 OFFCURVE",
"399 436 CURVE SMOOTH",
"399 441 OFFCURVE",
"407 441 OFFCURVE",
"407 447 CURVE SMOOTH",
"407 449 OFFCURVE",
"404 455 OFFCURVE",
"402 454 CURVE SMOOTH",
"400 454 OFFCURVE",
"396 450 OFFCURVE",
"395 449 CURVE",
"395 449 OFFCURVE",
"394 446 OFFCURVE",
"394 446 CURVE",
"390 443 OFFCURVE",
"384 443 OFFCURVE",
"384 437 CURVE SMOOTH",
"384 435 OFFCURVE",
"384 433 OFFCURVE",
"386 431 CURVE",
"386 431 OFFCURVE",
"392 425 OFFCURVE",
"392 424 CURVE",
"395 422 OFFCURVE",
"397 416 OFFCURVE",
"401 416 CURVE SMOOTH",
"407 416 OFFCURVE",
"409 426 OFFCURVE",
"417 426 CURVE SMOOTH",
"420 426 OFFCURVE",
"422 424 OFFCURVE",
"422 420 CURVE SMOOTH",
"422 410 OFFCURVE",
"407 410 OFFCURVE",
"407 404 CURVE"
);
},
{
closed = 1;
nodes = (
"422 455 OFFCURVE",
"427 449 OFFCURVE",
"438 449 CURVE SMOOTH",
"441 449 OFFCURVE",
"443 448 OFFCURVE",
"445 450 CURVE SMOOTH",
"446 451 OFFCURVE",
"450 455 OFFCURVE",
"450 456 CURVE SMOOTH",
"452 458 OFFCURVE",
"452 460 OFFCURVE",
"452 463 CURVE SMOOTH",
"452 469 OFFCURVE",
"450 474 OFFCURVE",
"446 480 CURVE SMOOTH",
"445 482 OFFCURVE",
"440 481 OFFCURVE",
"438 481 CURVE SMOOTH",
"430 481 OFFCURVE",
"429 483 OFFCURVE",
"425 476 CURVE SMOOTH",
"423 474 OFFCURVE",
"422 474 OFFCURVE",
"422 472 CURVE SMOOTH",
"422 472 OFFCURVE",
"422 467 OFFCURVE",
"422 465 CURVE SMOOTH"
);
},
{
closed = 1;
nodes = (
"431 470 OFFCURVE",
"433 472 OFFCURVE",
"438 472 CURVE SMOOTH",
"438 472 OFFCURVE",
"440 472 OFFCURVE",
"441 472 CURVE",
"442 470 OFFCURVE",
"442 470 OFFCURVE",
"442 468 CURVE SMOOTH",
"442 464 OFFCURVE",
"442 460 OFFCURVE",
"437 460 CURVE SMOOTH",
"433 460 OFFCURVE",
"431 462 OFFCURVE",
"431 466 CURVE SMOOTH"
);
}
);
userData = {
com.typemytype.robofont.mark = (
0.939,
1,
0.6,
1
);
};
width = 684;
}
);
leftKerningGroup = O;
},
{
glyphname = D;
lastChange = "2020-03-17 07:22:53 +0000";
layers = (
{
anchors = (
{
name = bottom;
position = "{338, 0}";
},
{
name = center;
position = "{338, 330}";
},
{
name = measure;
position = "{0, 0}";
},
{
name = top;
position = "{338, 660}";
}
);
layerId = master01;
paths = (
{
closed = 1;
nodes = (
"91 0 OFFCURVE",
"111 0 OFFCURVE",
"115 0 CURVE SMOOTH",
"117 0 OFFCURVE",
"159 0 OFFCURVE",
"175 0 CURVE SMOOTH",
"227 0 OFFCURVE",
"280 -1 OFFCURVE",
"332 5 CURVE SMOOTH",
"343 6 OFFCURVE",
"352 8 OFFCURVE",
"363 10 CURVE",
"364 10 OFFCURVE",
"369 12 OFFCURVE",
"370 12 CURVE SMOOTH",
"403 21 OFFCURVE",
"434 33 OFFCURVE",
"464 52 CURVE SMOOTH",
"465 53 OFFCURVE",
"472 57 OFFCURVE",
"472 58 CURVE",
"473 58 OFFCURVE",
"477 60 OFFCURVE",
"478 60 CURVE SMOOTH",
"486 66 OFFCURVE",
"492 72 OFFCURVE",
"499 78 CURVE SMOOTH",
"501 79 OFFCURVE",
"507 84 OFFCURVE",
"507 85 CURVE",
"522 99 OFFCURVE",
"534 111 OFFCURVE",
"546 127 CURVE SMOOTH",
"561 145 OFFCURVE",
"574 165 OFFCURVE",
"586 186 CURVE SMOOTH",
"599 211 OFFCURVE",
"608 241 OFFCURVE",
"613 268 CURVE",
"613 268 OFFCURVE",
"613 270 OFFCURVE",
"613 270 CURVE",
"613 270 OFFCURVE",
"614 273 OFFCURVE",
"614 274 CURVE SMOOTH",
"614 275 OFFCURVE",
"615 278 OFFCURVE",
"615 279 CURVE SMOOTH",
"617 288 OFFCURVE",
"617 298 OFFCURVE",
"618 307 CURVE",
"618 308 OFFCURVE",
"619 312 OFFCURVE",
"619 313 CURVE SMOOTH",
"619 315 OFFCURVE",
"619 328 OFFCURVE",
"619 331 CURVE SMOOTH",
"619 357 OFFCURVE",
"617 382 OFFCURVE",
"611 407 CURVE SMOOTH",
"608 422 OFFCURVE",
"602 436 OFFCURVE",
"598 450 CURVE",
"598 450 OFFCURVE",
"596 453 OFFCURVE",
"596 453 CURVE",
"590 467 OFFCURVE",
"584 481 OFFCURVE",
"576 495 CURVE SMOOTH",
"569 507 OFFCURVE",
"563 520 OFFCURVE",
"555 531 CURVE SMOOTH",
"535 557 OFFCURVE",
"515 581 OFFCURVE",
"488 599 CURVE SMOOTH",
"482 604 OFFCURVE",
"474 608 OFFCURVE",
"467 614 CURVE",
"466 614 OFFCURVE",
"462 618 OFFCURVE",
"461 619 CURVE",
"461 619 OFFCURVE",
"458 621 OFFCURVE",
"457 622 CURVE SMOOTH",
"445 629 OFFCURVE",
"432 635 OFFCURVE",
"418 641 CURVE SMOOTH",
"415 642 OFFCURVE",
"389 652 OFFCURVE",
"386 653 CURVE SMOOTH",
"383 654 OFFCURVE",
"362 659 OFFCURVE",
"359 660 CURVE",
"358 660 OFFCURVE",
"356 661 OFFCURVE",
"355 661 CURVE SMOOTH",
"354 661 OFFCURVE",
"352 661 OFFCURVE",
"351 661 CURVE SMOOTH",
"350 661 OFFCURVE",
"346 662 OFFCURVE",
"345 662 CURVE SMOOTH",
"316 666 OFFCURVE",
"286 669 OFFCURVE",
"256 670 CURVE",
"256 670 OFFCURVE",
"256 670 OFFCURVE",
"256 670 CURVE",
"256 670 OFFCURVE",
"255 670 OFFCURVE",
"255 670 CURVE",
"252 670 OFFCURVE",
"238 669 OFFCURVE",
"235 669 CURVE SMOOTH",
"84 669 LINE",
"80 664 LINE",
"80 663 OFFCURVE",
"80 637 OFFCURVE",
"80 626 CURVE SMOOTH",
"80 566 OFFCURVE",
"81 507 OFFCURVE",
"81 448 CURVE SMOOTH",
"81 430 OFFCURVE",
"81 381 OFFCURVE",
"81 378 CURVE SMOOTH",
"81 369 OFFCURVE",
"80 295 OFFCURVE",
"80 286 CURVE SMOOTH",
"80 281 OFFCURVE",
"80 245 OFFCURVE",
"80 240 CURVE SMOOTH",
"80 238 OFFCURVE",
"79 230 OFFCURVE",
"78 228 CURVE",
"78 10 LINE SMOOTH",
"78 6 OFFCURVE",
"82 2 OFFCURVE",
"86 1 CURVE SMOOTH"
);
},
{
closed = 1;
nodes = (
"198 117 OFFCURVE",
"197 156 OFFCURVE",
"197 164 CURVE SMOOTH",
"197 165 OFFCURVE",
"197 170 OFFCURVE",
"197 172 CURVE SMOOTH",
"197 174 OFFCURVE",
"197 180 OFFCURVE",
"197 181 CURVE SMOOTH",
"197 185 OFFCURVE",
"198 214 OFFCURVE",
"198 218 CURVE SMOOTH",
"198 223 OFFCURVE",
"198 258 OFFCURVE",
"198 263 CURVE SMOOTH",
"198 267 OFFCURVE",
"200 286 OFFCURVE",
"200 290 CURVE SMOOTH",
"200 442 LINE SMOOTH",
"200 446 OFFCURVE",
"201 462 OFFCURVE",
"201 465 CURVE SMOOTH",
"201 472 OFFCURVE",
"201 525 OFFCURVE",
"201 531 CURVE SMOOTH",
"201 533 OFFCURVE",
"202 545 OFFCURVE",
"202 546 CURVE SMOOTH",
"202 549 OFFCURVE",
"202 561 OFFCURVE",
"202 564 CURVE SMOOTH",
"202 564 OFFCURVE",
"204 568 OFFCURVE",
"205 568 CURVE",
"300 568 LINE",
"300 568 OFFCURVE",
"308 567 OFFCURVE",
"310 566 CURVE",
"323 564 OFFCURVE",
"338 560 OFFCURVE",
"350 556 CURVE SMOOTH",
"369 549 OFFCURVE",
"389 538 OFFCURVE",
"406 526 CURVE SMOOTH",
"407 525 OFFCURVE",
"411 521 OFFCURVE",
"412 521 CURVE",
"412 520 OFFCURVE",
"420 515 OFFCURVE",
"421 514 CURVE SMOOTH",
"443 494 OFFCURVE",
"461 467 OFFCURVE",
"474 440 CURVE",
"474 439 OFFCURVE",
"476 434 OFFCURVE",
"476 433 CURVE SMOOTH",
"480 422 OFFCURVE",
"485 412 OFFCURVE",
"488 400 CURVE SMOOTH",
"489 398 OFFCURVE",
"492 386 OFFCURVE",
"492 384 CURVE SMOOTH",
"492 384 OFFCURVE",
"492 381 OFFCURVE",
"492 380 CURVE SMOOTH",
"492 380 OFFCURVE",
"494 373 OFFCURVE",
"494 371 CURVE SMOOTH",
"494 370 OFFCURVE",
"495 365 OFFCURVE",
"495 364 CURVE SMOOTH",
"495 363 OFFCURVE",
"495 353 OFFCURVE",
"495 352 CURVE SMOOTH",
"495 351 OFFCURVE",
"497 338 OFFCURVE",
"497 337 CURVE SMOOTH",
"497 336 OFFCURVE",
"497 331 OFFCURVE",
"497 330 CURVE SMOOTH",
"497 328 OFFCURVE",
"497 322 OFFCURVE",
"497 322 CURVE",
"495 296 OFFCURVE",
"492 270 OFFCURVE",
"484 244 CURVE SMOOTH",
"484 242 OFFCURVE",
"482 237 OFFCURVE",
"482 236 CURVE SMOOTH",
"482 235 OFFCURVE",
"478 230 OFFCURVE",
"478 229 CURVE SMOOTH",
"477 228 OFFCURVE",
"476 222 OFFCURVE",
"475 221 CURVE",
"475 220 OFFCURVE",
"472 215 OFFCURVE",
"471 214 CURVE SMOOTH",
"470 212 OFFCURVE",
"463 197 OFFCURVE",
"461 195 CURVE",
"461 195 OFFCURVE",
"459 191 OFFCURVE",
"457 190 CURVE",
"450 181 OFFCURVE",
"443 168 OFFCURVE",
"434 160 CURVE SMOOTH",
"431 158 OFFCURVE",
"416 144 OFFCURVE",
"413 141 CURVE",
"406 139 OFFCURVE",
"399 133 OFFCURVE",
"393 129 CURVE",
"392 129 OFFCURVE",
"387 127 OFFCURVE",
"386 127 CURVE SMOOTH",
"385 126 OFFCURVE",
"379 123 OFFCURVE",
"378 122 CURVE",
"376 122 OFFCURVE",
"364 117 OFFCURVE",
"360 116 CURVE SMOOTH",
"358 115 OFFCURVE",
"350 112 OFFCURVE",
"348 112 CURVE SMOOTH",
"345 111 OFFCURVE",
"341 111 OFFCURVE",
"339 109 CURVE",
"308 104 LINE",
"204 104 LINE",
"203 104 OFFCURVE",
"200 104 OFFCURVE",
"200 105 CURVE SMOOTH",
"199 106 OFFCURVE",
"198 108 OFFCURVE",
"198 109 CURVE"
);
}
);
width = 675;
}
);
rightKerningGroup = O;
unicode = 0044;
},
{
glyphname = D.ss02;
lastChange = "2020-03-17 07:33:13 +0000";
layers = (
{
anchors = (
{
name = _measure;
position = "{0, 0}";
}
);
layerId = master01;
paths = (
{
closed = 1;
nodes = (
"615 -148 OFFCURVE",
"609 -170 OFFCURVE",
"619 -170 CURVE SMOOTH",
"621 -170 OFFCURVE",
"623 -166 OFFCURVE",
"623 -164 CURVE SMOOTH",
"623 -162 OFFCURVE",
"623 -152 OFFCURVE",
"623 -150 CURVE SMOOTH",
"623 -147 OFFCURVE",
"623 -137 OFFCURVE",
"623 -137 CURVE",
"623 -132 OFFCURVE",
"622 -110 OFFCURVE",
"622 -106 CURVE SMOOTH",
"622 -105 OFFCURVE",
"620 -103 OFFCURVE",
"619 -103 CURVE SMOOTH",
"619 -103 OFFCURVE",
"618 -103 OFFCURVE",
"617 -103 CURVE SMOOTH",
"616 -103 OFFCURVE",
"615 -102 OFFCURVE",
"614 -104 CURVE SMOOTH",
"613 -105 OFFCURVE",
"613 -109 OFFCURVE",
"613 -110 CURVE SMOOTH",
"613 -110 OFFCURVE",
"613 -112 OFFCURVE",
"614 -112 CURVE",
"614 -114 OFFCURVE",
"613 -125 OFFCURVE",
"613 -127 CURVE SMOOTH",
"613 -129 OFFCURVE",
"612 -132 OFFCURVE",
"610 -133 CURVE SMOOTH",
"608 -133 OFFCURVE",
"603 -133 OFFCURVE",
"602 -133 CURVE SMOOTH",
"600 -133 OFFCURVE",
"594 -133 OFFCURVE",
"594 -133 CURVE",
"593 -133 OFFCURVE",
"590 -131 OFFCURVE",
"590 -131 CURVE",
"589 -131 OFFCURVE",
"587 -132 OFFCURVE",
"587 -133 CURVE",
"582 -133 OFFCURVE",
"561 -133 OFFCURVE",
"556 -133 CURVE SMOOTH",
"554 -133 OFFCURVE",
"538 -134 OFFCURVE",
"536 -134 CURVE SMOOTH",
"536 -134 OFFCURVE",
"535 -134 OFFCURVE",
"535 -134 CURVE",
"535 -134 OFFCURVE",
"534 -134 OFFCURVE",
"534 -134 CURVE",
"533 -134 OFFCURVE",
"524 -133 OFFCURVE",
"522 -133 CURVE SMOOTH",
"521 -133 OFFCURVE",
"505 -133 OFFCURVE",
"499 -133 CURVE SMOOTH",
"493 -133 OFFCURVE",
"476 -133 OFFCURVE",
"475 -133 CURVE SMOOTH",
"470 -133 OFFCURVE",
"443 -134 OFFCURVE",
"437 -134 CURVE SMOOTH",
"124 -134 LINE",
"91 -133 LINE",
"90 -133 OFFCURVE",
"89 -131 OFFCURVE",
"88 -130 CURVE",
"88 -130 OFFCURVE",
"88 -129 OFFCURVE",
"88 -129 CURVE",
"88 -124 OFFCURVE",
"89 -123 OFFCURVE",
"89 -118 CURVE SMOOTH",
"89 -114 OFFCURVE",
"89 -106 OFFCURVE",
"84 -106 CURVE SMOOTH",
"83 -106 OFFCURVE",
"82 -106 OFFCURVE",
"82 -106 CURVE",
"82 -106 OFFCURVE",
"80 -108 OFFCURVE",
"80 -108 CURVE",
"80 -166 LINE",
"80 -167 OFFCURVE",
"82 -168 OFFCURVE",
"82 -169 CURVE SMOOTH",
"82 -169 OFFCURVE",
"83 -169 OFFCURVE",
"84 -169 CURVE SMOOTH",
"86 -169 OFFCURVE",
"90 -168 OFFCURVE",
"90 -165 CURVE SMOOTH",
"90 -145 LINE",
"403 -145 LINE",
"408 -144 OFFCURVE",
"431 -143 OFFCURVE",
"436 -143 CURVE SMOOTH",
"438 -143 OFFCURVE",
"479 -143 OFFCURVE",
"495 -143 CURVE SMOOTH",
"509 -143 OFFCURVE",
"552 -143 OFFCURVE",
"555 -143 CURVE SMOOTH",
"563 -143 OFFCURVE",
"602 -144 OFFCURVE",
"611 -145 CURVE"
);
},
{
closed = 1;
nodes = (
"358 -114 OFFCURVE",
"358 -115 OFFCURVE",
"362 -115 CURVE SMOOTH",
"362 -115 OFFCURVE",
"364 -115 OFFCURVE",
"364 -115 CURVE",
"367 -114 OFFCURVE",
"377 -92 OFFCURVE",
"376 -91 CURVE",
"377 -88 OFFCURVE",
"382 -77 OFFCURVE",
"383 -75 CURVE",
"383 -74 OFFCURVE",
"386 -71 OFFCURVE",
"386 -71 CURVE",
"386 -70 OFFCURVE",
"387 -64 OFFCURVE",
"387 -64 CURVE",
"389 -61 OFFCURVE",
"394 -50 OFFCURVE",
"395 -48 CURVE",
"395 -48 OFFCURVE",
"395 -46 OFFCURVE",
"395 -46 CURVE",
"395 -44 OFFCURVE",
"393 -44 OFFCURVE",
"391 -44 CURVE SMOOTH",
"390 -44 OFFCURVE",
"389 -44 OFFCURVE",
"387 -45 CURVE",
"386 -48 OFFCURVE",
"379 -60 OFFCURVE",
"378 -62 CURVE SMOOTH",
"375 -67 OFFCURVE",
"374 -73 OFFCURVE",
"372 -79 CURVE SMOOTH",
"368 -89 OFFCURVE",
"362 -100 OFFCURVE",
"358 -110 CURVE",
"358 -110 OFFCURVE",
"358 -110 OFFCURVE",
"358 -111 CURVE"
);
},
{
closed = 1;
nodes = (
"389 -109 OFFCURVE",
"389 -110 OFFCURVE",
"389 -110 CURVE",
"389 -110 OFFCURVE",
"392 -113 OFFCURVE",
"393 -114 CURVE",
"393 -114 OFFCURVE",
"398 -114 OFFCURVE",
"399 -114 CURVE SMOOTH",
"400 -114 OFFCURVE",
"405 -114 OFFCURVE",
"405 -114 CURVE",
"408 -114 OFFCURVE",
"418 -112 OFFCURVE",
"421 -112 CURVE SMOOTH",
"422 -112 OFFCURVE",
"424 -110 OFFCURVE",
"424 -110 CURVE",
"424 -110 OFFCURVE",
"424 -108 OFFCURVE",
"424 -108 CURVE",
"424 -107 OFFCURVE",
"424 -106 OFFCURVE",
"424 -106 CURVE",
"423 -104 OFFCURVE",
"422 -102 OFFCURVE",
"421 -102 CURVE",
"408 -102 LINE",
"411 -93 OFFCURVE",
"421 -89 OFFCURVE",
"421 -79 CURVE SMOOTH",
"421 -71 OFFCURVE",
"414 -65 OFFCURVE",
"407 -65 CURVE SMOOTH",
"398 -65 OFFCURVE",
"389 -71 OFFCURVE",
"389 -80 CURVE SMOOTH",
"389 -83 OFFCURVE",
"389 -84 OFFCURVE",
"392 -84 CURVE SMOOTH",
"397 -84 OFFCURVE",
"397 -76 OFFCURVE",
"405 -76 CURVE SMOOTH",
"408 -76 OFFCURVE",
"409 -79 OFFCURVE",
"409 -81 CURVE SMOOTH",
"409 -82 OFFCURVE",
"409 -83 OFFCURVE",
"409 -83 CURVE",
"407 -87 OFFCURVE",
"404 -91 OFFCURVE",
"401 -93 CURVE SMOOTH",
"397 -97 OFFCURVE",
"389 -102 OFFCURVE",
"389 -108 CURVE"
);
},
{
closed = 1;
nodes = (
"287 -100 OFFCURVE",
"296 -109 OFFCURVE",
"300 -110 CURVE",
"301 -110 OFFCURVE",
"308 -110 OFFCURVE",
"309 -110 CURVE SMOOTH",
"312 -110 OFFCURVE",
"318 -110 OFFCURVE",
"318 -110 CURVE",
"319 -110 OFFCURVE",
"322 -109 OFFCURVE",
"323 -108 CURVE SMOOTH",
"325 -107 OFFCURVE",
"331 -100 OFFCURVE",
"332 -99 CURVE",
"332 -98 OFFCURVE",
"333 -94 OFFCURVE",
"333 -93 CURVE SMOOTH",
"333 -93 OFFCURVE",
"335 -90 OFFCURVE",
"335 -89 CURVE SMOOTH",
"335 -89 OFFCURVE",
"335 -86 OFFCURVE",
"335 -85 CURVE SMOOTH",
"335 -77 OFFCURVE",
"332 -68 OFFCURVE",
"325 -64 CURVE",
"324 -62 OFFCURVE",
"318 -60 OFFCURVE",
"317 -60 CURVE SMOOTH",
"316 -59 OFFCURVE",
"308 -59 OFFCURVE",
"306 -60 CURVE",
"304 -59 OFFCURVE",
"305 -57 OFFCURVE",
"305 -56 CURVE SMOOTH",
"305 -45 OFFCURVE",
"322 -55 OFFCURVE",
"328 -45 CURVE",
"328 -45 OFFCURVE",
"328 -44 OFFCURVE",
"328 -44 CURVE",
"328 -41 OFFCURVE",
"326 -39 OFFCURVE",
"324 -39 CURVE SMOOTH",
"297 -39 LINE SMOOTH",
"294 -39 OFFCURVE",
"293 -42 OFFCURVE",
"293 -45 CURVE SMOOTH",
"293 -48 OFFCURVE",
"294 -50 OFFCURVE",
"294 -54 CURVE SMOOTH",
"294 -54 OFFCURVE",
"294 -57 OFFCURVE",
"294 -57 CURVE",
"294 -58 OFFCURVE",
"293 -64 OFFCURVE",
"293 -65 CURVE SMOOTH",
"293 -68 OFFCURVE",
"295 -72 OFFCURVE",
"298 -72 CURVE SMOOTH",
"302 -72 OFFCURVE",
"305 -71 OFFCURVE",
"309 -71 CURVE SMOOTH",
"318 -71 OFFCURVE",
"324 -77 OFFCURVE",
"324 -85 CURVE SMOOTH",
"324 -91 OFFCURVE",
"313 -99 OFFCURVE",
"308 -99 CURVE SMOOTH",
"302 -99 OFFCURVE",
"300 -95 OFFCURVE",
"296 -91 CURVE",
"296 -91 OFFCURVE",
"294 -91 OFFCURVE",
"294 -91 CURVE",
"291 -91 OFFCURVE",
"287 -93 OFFCURVE",
"287 -97 CURVE SMOOTH"
);
},
{
closed = 1;
nodes = (
"356 -56 OFFCURVE",
"358 -56 OFFCURVE",
"358 -57 CURVE",
"358 -76 LINE SMOOTH",
"358 -79 OFFCURVE",
"361 -80 OFFCURVE",
"363 -80 CURVE SMOOTH",
"366 -80 OFFCURVE",
"366 -77 OFFCURVE",
"367 -75 CURVE SMOOTH",
"368 -73 OFFCURVE",
"368 -68 OFFCURVE",
"368 -68 CURVE",
"368 -67 OFFCURVE",
"368 -61 OFFCURVE",
"368 -59 CURVE SMOOTH",
"368 -54 OFFCURVE",
"369 -49 OFFCURVE",
"367 -44 CURVE",
"366 -44 OFFCURVE",
"365 -44 OFFCURVE",
"364 -44 CURVE SMOOTH",
"358 -44 OFFCURVE",
"347 -48 OFFCURVE",
"344 -53 CURVE",
"344 -53 OFFCURVE",
"344 -54 OFFCURVE",
"344 -54 CURVE",
"344 -56 OFFCURVE",
"347 -57 OFFCURVE",
"349 -57 CURVE SMOOTH",
"351 -57 OFFCURVE",
"354 -56 OFFCURVE",
"356 -56 CURVE"
);
},
{
closed = 1;
nodes = (
"263 333 OFFCURVE",
"265 332 OFFCURVE",
"265 332 CURVE",
"265 331 OFFCURVE",
"266 323 OFFCURVE",
"266 322 CURVE SMOOTH",
"267 320 OFFCURVE",
"268 315 OFFCURVE",
"271 315 CURVE SMOOTH",
"279 315 OFFCURVE",
"272 332 OFFCURVE",
"281 333 CURVE",
"281 333 OFFCURVE",
"285 332 OFFCURVE",
"286 332 CURVE",
"286 320 LINE",
"286 319 OFFCURVE",
"288 316 OFFCURVE",
"289 315 CURVE",
"289 315 OFFCURVE",
"289 315 OFFCURVE",
"290 315 CURVE SMOOTH",
"293 315 OFFCURVE",
"295 317 OFFCURVE",
"296 320 CURVE SMOOTH",
"296 322 OFFCURVE",
"298 330 OFFCURVE",
"298 332 CURVE",
"309 332 LINE",
"310 332 OFFCURVE",
"310 336 OFFCURVE",
"310 336 CURVE",
"310 337 OFFCURVE",
"310 338 OFFCURVE",
"310 338 CURVE",
"310 339 OFFCURVE",
"306 342 OFFCURVE",
"305 342 CURVE SMOOTH",
"303 343 OFFCURVE",
"300 341 OFFCURVE",
"298 344 CURVE",
"298 344 OFFCURVE",
"296 350 OFFCURVE",
"296 351 CURVE SMOOTH",
"295 353 OFFCURVE",
"294 356 OFFCURVE",
"291 356 CURVE SMOOTH",
"285 356 OFFCURVE",
"288 340 OFFCURVE",
"283 340 CURVE SMOOTH",
"283 340 OFFCURVE",
"282 340 OFFCURVE",
"282 340 CURVE",
"276 344 OFFCURVE",
"277 348 OFFCURVE",
"275 355 CURVE SMOOTH",
"275 357 OFFCURVE",
"273 356 OFFCURVE",
"271 356 CURVE SMOOTH",
"262 356 OFFCURVE",
"268 344 OFFCURVE",
"263 342 CURVE",
"260 342 OFFCURVE",
"253 342 OFFCURVE",
"251 338 CURVE",
"251 338 OFFCURVE",
"251 337 OFFCURVE",
"251 336 CURVE SMOOTH",
"251 336 OFFCURVE",
"251 334 OFFCURVE",
"251 334 CURVE",
"251 334 OFFCURVE",
"253 333 OFFCURVE",
"254 333 CURVE SMOOTH",
"255 333 OFFCURVE",
"262 333 OFFCURVE",
"263 333 CURVE"
);
}
);
userData = {
com.typemytype.robofont.mark = (
0.939,
1,
0.6,
1
);
};
width = 675;
}
);
rightKerningGroup = O;
},
{
glyphname = E;
lastChange = "2020-03-17 07:22:54 +0000";
layers = (
{
anchors = (
{
name = bottom;
position = "{249, 0}";
},
{
name = measure;
position = "{0, 0}";
},
{
name = ogonek;
position = "{447, 10}";
},
{
name = top;
position = "{249, 660}";
},
{
name = topleft;
position = "{20, 660}";
}
);
layerId = master01;
paths = (
{
closed = 1;
nodes = (
"170 1 OFFCURVE",
"188 0 OFFCURVE",
"192 0 CURVE SMOOTH",
"203 0 OFFCURVE",
"294 0 OFFCURVE",
"305 0 CURVE SMOOTH",
"309 0 OFFCURVE",
"336 -1 OFFCURVE",
"339 -1 CURVE SMOOTH",
"340 -1 OFFCURVE",
"346 -1 OFFCURVE",
"348 -1 CURVE SMOOTH",
"351 -1 OFFCURVE",
"357 -1 OFFCURVE",
"358 -1 CURVE SMOOTH",
"366 -1 OFFCURVE",
"402 0 OFFCURVE",
"411 0 CURVE",
"412 1 OFFCURVE",
"413 4 OFFCURVE",
"413 5 CURVE",
"413 93 LINE",
"413 93 OFFCURVE",
"411 97 OFFCURVE",
"411 99 CURVE SMOOTH",
"411 99 OFFCURVE",
"409 100 OFFCURVE",
"409 100 CURVE",
"408 101 OFFCURVE",
"402 101 OFFCURVE",
"401 101 CURVE",
"224 101 LINE",
"200 103 LINE",
"199 103 OFFCURVE",
"197 104 OFFCURVE",
"196 105 CURVE SMOOTH",
"195 107 OFFCURVE",
"195 115 OFFCURVE",
"195 116 CURVE SMOOTH",
"195 117 OFFCURVE",
"195 134 OFFCURVE",
"195 140 CURVE SMOOTH",
"195 143 OFFCURVE",
"195 160 OFFCURVE",
"195 163 CURVE",
"197 169 OFFCURVE",
"196 177 OFFCURVE",
"196 182 CURVE SMOOTH",
"197 221 OFFCURVE",
"199 260 OFFCURVE",
"199 300 CURVE SMOOTH",
"199 300 OFFCURVE",
"200 304 OFFCURVE",
"201 304 CURVE",
"218 305 LINE SMOOTH",
"220 305 OFFCURVE",
"250 305 OFFCURVE",
"261 305 CURVE SMOOTH",
"309 305 OFFCURVE",
"357 304 OFFCURVE",
"406 304 CURVE SMOOTH",
"411 304 OFFCURVE",
"414 305 OFFCURVE",
"415 310 CURVE",
"415 316 OFFCURVE",
"415 341 OFFCURVE",
"415 346 CURVE SMOOTH",
"415 356 OFFCURVE",
"415 381 OFFCURVE",
"415 382 CURVE SMOOTH",
"415 385 OFFCURVE",
"414 398 OFFCURVE",
"413 401 CURVE SMOOTH",
"413 403 OFFCURVE",
"411 405 OFFCURVE",
"409 405 CURVE SMOOTH",
"384 406 LINE",
"206 406 LINE",
"201 410 LINE",
"201 410 OFFCURVE",
"200 437 OFFCURVE",
"200 448 CURVE SMOOTH",
"200 450 OFFCURVE",
"200 480 OFFCURVE",
"200 491 CURVE SMOOTH",
"200 498 OFFCURVE",
"200 528 OFFCURVE",
"200 534 CURVE SMOOTH",
"200 536 OFFCURVE",
"201 546 OFFCURVE",
"201 548 CURVE SMOOTH",
"201 549 OFFCURVE",
"201 559 OFFCURVE",
"201 560 CURVE SMOOTH",
"201 561 OFFCURVE",
"203 565 OFFCURVE",
"204 565 CURVE SMOOTH",
"206 566 OFFCURVE",
"210 567 OFFCURVE",
"211 567 CURVE",
"382 567 LINE SMOOTH",
"386 567 OFFCURVE",
"406 565 OFFCURVE",
"411 565 CURVE SMOOTH",
"416 565 OFFCURVE",
"419 569 OFFCURVE",
"419 572 CURVE SMOOTH",
"419 664 LINE",
"419 664 OFFCURVE",
"418 666 OFFCURVE",
"417 667 CURVE",
"417 667 OFFCURVE",
"414 670 OFFCURVE",
"413 671 CURVE",
"411 671 OFFCURVE",
"402 672 OFFCURVE",
"400 672 CURVE SMOOTH",
"400 672 OFFCURVE",
"399 672 OFFCURVE",
"399 672 CURVE",
"394 672 OFFCURVE",
"388 671 OFFCURVE",
"382 671 CURVE SMOOTH",
"373 671 OFFCURVE",
"366 671 OFFCURVE",
"357 672 CURVE",
"114 672 LINE",
"84 671 LINE",
"84 671 OFFCURVE",
"81 668 OFFCURVE",
"80 667 CURVE SMOOTH",
"79 665 OFFCURVE",
"79 664 OFFCURVE",
"79 663 CURVE SMOOTH",
"79 662 OFFCURVE",
"79 660 OFFCURVE",
"79 660 CURVE",
"79 655 OFFCURVE",
"80 620 OFFCURVE",
"80 615 CURVE SMOOTH",
"80 611 OFFCURVE",
"80 570 OFFCURVE",
"80 565 CURVE SMOOTH",
"80 561 OFFCURVE",
"81 541 OFFCURVE",
"81 536 CURVE SMOOTH",
"81 522 OFFCURVE",
"81 461 OFFCURVE",
"81 447 CURVE SMOOTH",
"81 424 OFFCURVE",
"81 362 OFFCURVE",
"81 359 CURVE SMOOTH",
"81 352 OFFCURVE",
"80 290 OFFCURVE",
"80 282 CURVE SMOOTH",
"80 276 OFFCURVE",
"80 227 OFFCURVE",
"80 221 CURVE SMOOTH",
"80 217 OFFCURVE",
"79 182 OFFCURVE",
"79 178 CURVE SMOOTH",
"79 172 OFFCURVE",
"79 105 OFFCURVE",
"79 82 CURVE SMOOTH",
"79 66 OFFCURVE",
"79 21 OFFCURVE",
"79 18 CURVE SMOOTH",
"80 5 LINE",
"80 5 OFFCURVE",
"82 3 OFFCURVE",
"83 3 CURVE",
"83 2 OFFCURVE",
"87 1 OFFCURVE",
"88 1 CURVE",
"162 1 LINE",
"166 1 LINE SMOOTH"
);
}
);
width = 497;
}
);
unicode = 0045;
},
{
glyphname = E.ss02;
lastChange = "2020-03-17 07:25:05 +0000";
layers = (
{
anchors = (
{
name = _measure;
position = "{0, 0}";
}
);
layerId = master01;
paths = (
{
closed = 1;
nodes = (
"404 -157 OFFCURVE",
"405 -161 OFFCURVE",
"406 -169 CURVE",
"406 -170 OFFCURVE",
"408 -173 OFFCURVE",
"408 -173 CURVE",
"408 -173 OFFCURVE",
"410 -173 OFFCURVE",
"411 -173 CURVE SMOOTH",
"413 -173 OFFCURVE",
"416 -172 OFFCURVE",
"416 -169 CURVE SMOOTH",
"416 -116 LINE",
"416 -115 OFFCURVE",
"415 -109 OFFCURVE",
"415 -108 CURVE SMOOTH",
"415 -107 OFFCURVE",
"412 -105 OFFCURVE",
"411 -104 CURVE",
"411 -104 OFFCURVE",
"410 -104 OFFCURVE",
"410 -104 CURVE",
"410 -104 OFFCURVE",
"409 -104 OFFCURVE",
"409 -104 CURVE",
"409 -105 OFFCURVE",
"406 -106 OFFCURVE",
"406 -107 CURVE SMOOTH",
"406 -107 OFFCURVE",
"405 -112 OFFCURVE",
"405 -113 CURVE SMOOTH",
"405 -116 OFFCURVE",
"405 -128 OFFCURVE",
"405 -131 CURVE SMOOTH",
"405 -132 OFFCURVE",
"403 -134 OFFCURVE",
"402 -134 CURVE SMOOTH",
"401 -134 OFFCURVE",
"396 -135 OFFCURVE",
"394 -135 CURVE SMOOTH",
"380 -135 OFFCURVE",
"314 -135 OFFCURVE",
"300 -135 CURVE SMOOTH",
"275 -135 OFFCURVE",
"209 -135 OFFCURVE",
"206 -135 CURVE SMOOTH",
"201 -135 OFFCURVE",
"170 -134 OFFCURVE",
"166 -134 CURVE SMOOTH",
"156 -134 OFFCURVE",
"109 -134 OFFCURVE",
"99 -134 CURVE SMOOTH",
"98 -134 OFFCURVE",
"92 -133 OFFCURVE",
"91 -132 CURVE",
"91 -132 OFFCURVE",
"90 -131 OFFCURVE",
"90 -131 CURVE",
"90 -129 OFFCURVE",
"88 -121 OFFCURVE",
"88 -119 CURVE SMOOTH",
"88 -118 OFFCURVE",
"88 -114 OFFCURVE",
"88 -113 CURVE SMOOTH",
"88 -113 OFFCURVE",
"86 -110 OFFCURVE",
"85 -109 CURVE",
"85 -108 OFFCURVE",
"85 -108 OFFCURVE",
"83 -108 CURVE SMOOTH",
"81 -108 OFFCURVE",
"79 -110 OFFCURVE",
"79 -112 CURVE SMOOTH",
"79 -163 LINE",
"79 -164 OFFCURVE",
"81 -168 OFFCURVE",
"81 -169 CURVE SMOOTH",
"81 -169 OFFCURVE",
"83 -169 OFFCURVE",
"83 -169 CURVE",
"94 -169 OFFCURVE",
"84 -144 OFFCURVE",
"94 -144 CURVE SMOOTH",
"189 -144 LINE",
"191 -145 OFFCURVE",
"199 -146 OFFCURVE",
"200 -146 CURVE SMOOTH",
"202 -146 OFFCURVE",
"220 -144 OFFCURVE",
"222 -144 CURVE SMOOTH",
"225 -144 OFFCURVE",
"255 -146 OFFCURVE",
"258 -146 CURVE SMOOTH",
"277 -146 OFFCURVE",
"366 -146 OFFCURVE",
"385 -146 CURVE SMOOTH",
"404 -147 LINE",
"405 -148 LINE"
);
},
{
closed = 1;
nodes = (
"270 -106 OFFCURVE",
"270 -108 OFFCURVE",
"270 -108 CURVE",
"270 -108 OFFCURVE",
"272 -110 OFFCURVE",
"273 -111 CURVE",
"273 -111 OFFCURVE",
"274 -111 OFFCURVE",
"274 -111 CURVE",
"279 -111 OFFCURVE",
"280 -104 OFFCURVE",
"281 -100 CURVE SMOOTH",
"282 -98 OFFCURVE",
"287 -84 OFFCURVE",
"288 -82 CURVE",
"288 -82 OFFCURVE",
"289 -79 OFFCURVE",
"289 -78 CURVE SMOOTH",
"289 -78 OFFCURVE",
"290 -74 OFFCURVE",
"290 -73 CURVE SMOOTH",
"291 -72 OFFCURVE",
"295 -61 OFFCURVE",
"296 -59 CURVE",
"296 -59 OFFCURVE",
"297 -53 OFFCURVE",
"297 -53 CURVE",
"297 -52 OFFCURVE",
"300 -48 OFFCURVE",
"300 -47 CURVE SMOOTH",
"300 -47 OFFCURVE",
"300 -46 OFFCURVE",
"300 -45 CURVE SMOOTH",
"300 -42 OFFCURVE",
"299 -42 OFFCURVE",
"297 -42 CURVE SMOOTH",
"289 -42 OFFCURVE",
"288 -55 OFFCURVE",
"286 -59 CURVE",
"284 -67 OFFCURVE",
"281 -75 OFFCURVE",
"278 -82 CURVE",
"276 -90 OFFCURVE",
"270 -97 OFFCURVE",
"270 -105 CURVE"
);
},
{
closed = 1;
nodes = (
"197 -102 OFFCURVE",
"201 -101 OFFCURVE",
"207 -105 CURVE SMOOTH",
"210 -107 OFFCURVE",
"210 -109 OFFCURVE",
"214 -109 CURVE SMOOTH",
"215 -109 OFFCURVE",
"216 -109 OFFCURVE",
"216 -109 CURVE",
"217 -109 OFFCURVE",
"220 -108 OFFCURVE",
"220 -108 CURVE",
"221 -108 OFFCURVE",
"226 -107 OFFCURVE",
"227 -107 CURVE SMOOTH",
"235 -103 OFFCURVE",
"238 -92 OFFCURVE",
"238 -84 CURVE SMOOTH",
"238 -82 OFFCURVE",
"238 -78 OFFCURVE",
"238 -78 CURVE",
"238 -78 OFFCURVE",
"234 -71 OFFCURVE",
"234 -70 CURVE SMOOTH",
"234 -70 OFFCURVE",
"234 -69 OFFCURVE",
"234 -69 CURVE",
"234 -64 OFFCURVE",
"235 -60 OFFCURVE",
"235 -55 CURVE SMOOTH",
"235 -43 OFFCURVE",
"229 -39 OFFCURVE",
"218 -39 CURVE SMOOTH",
"210 -39 OFFCURVE",
"200 -42 OFFCURVE",
"200 -51 CURVE SMOOTH",
"200 -54 OFFCURVE",
"200 -55 OFFCURVE",
"203 -55 CURVE SMOOTH",
"203 -55 OFFCURVE",
"204 -55 OFFCURVE",
"204 -55 CURVE",
"205 -55 OFFCURVE",
"212 -50 OFFCURVE",
"212 -50 CURVE",
"212 -50 OFFCURVE",
"216 -50 OFFCURVE",
"217 -50 CURVE SMOOTH",
"218 -50 OFFCURVE",
"221 -50 OFFCURVE",
"222 -50 CURVE SMOOTH",
"222 -50 OFFCURVE",
"224 -52 OFFCURVE",
"224 -53 CURVE SMOOTH",
"224 -53 OFFCURVE",
"224 -55 OFFCURVE",
"224 -56 CURVE SMOOTH",
"224 -58 OFFCURVE",
"224 -63 OFFCURVE",
"222 -63 CURVE",
"207 -69 LINE",
"207 -69 OFFCURVE",
"207 -70 OFFCURVE",
"207 -71 CURVE SMOOTH",
"207 -80 OFFCURVE",
"217 -78 OFFCURVE",
"223 -77 CURVE",
"224 -78 OFFCURVE",
"226 -80 OFFCURVE",
"227 -81 CURVE",
"227 -81 OFFCURVE",
"227 -83 OFFCURVE",
"227 -84 CURVE SMOOTH",
"227 -84 OFFCURVE",
"227 -86 OFFCURVE",
"227 -86 CURVE",
"226 -94 OFFCURVE",
"223 -94 OFFCURVE",
"216 -94 CURVE SMOOTH",
"214 -94 OFFCURVE",
"211 -94 OFFCURVE",
"211 -94 CURVE",
"210 -94 OFFCURVE",
"205 -88 OFFCURVE",
"204 -88 CURVE SMOOTH",
"203 -87 OFFCURVE",
"201 -86 OFFCURVE",
"201 -86 CURVE",
"201 -87 OFFCURVE",
"197 -90 OFFCURVE",
"197 -90 CURVE",
"197 -90 OFFCURVE",
"197 -92 OFFCURVE",
"197 -93 CURVE"
);
},
{
closed = 1;
nodes = (
"299 -107 OFFCURVE",
"299 -108 OFFCURVE",
"299 -108 CURVE",
"299 -109 OFFCURVE",
"302 -109 OFFCURVE",
"303 -109 CURVE",
"326 -109 LINE SMOOTH",
"328 -109 OFFCURVE",
"332 -107 OFFCURVE",
"332 -104 CURVE SMOOTH",
"332 -102 OFFCURVE",
"332 -101 OFFCURVE",
"330 -100 CURVE SMOOTH",
"328 -100 OFFCURVE",
"322 -100 OFFCURVE",
"320 -100 CURVE SMOOTH",
"320 -100 OFFCURVE",
"316 -100 OFFCURVE",
"316 -98 CURVE SMOOTH",
"316 -98 OFFCURVE",
"316 -97 OFFCURVE",
"316 -97 CURVE",
"318 -96 OFFCURVE",
"326 -88 OFFCURVE",
"327 -86 CURVE SMOOTH",
"328 -85 OFFCURVE",
"331 -81 OFFCURVE",
"331 -81 CURVE",
"331 -67 LINE",
"331 -67 OFFCURVE",
"329 -64 OFFCURVE",
"328 -63 CURVE",
"328 -63 OFFCURVE",
"325 -61 OFFCURVE",
"324 -61 CURVE SMOOTH",
"324 -61 OFFCURVE",
"321 -61 OFFCURVE",
"320 -61 CURVE SMOOTH",
"316 -61 OFFCURVE",
"311 -61 OFFCURVE",
"308 -63 CURVE SMOOTH",
"303 -67 OFFCURVE",
"299 -71 OFFCURVE",
"299 -77 CURVE SMOOTH",
"299 -80 OFFCURVE",
"299 -81 OFFCURVE",
"303 -81 CURVE SMOOTH",
"312 -81 OFFCURVE",
"307 -70 OFFCURVE",
"317 -70 CURVE SMOOTH",
"322 -70 OFFCURVE",
"322 -72 OFFCURVE",
"322 -76 CURVE SMOOTH",
"322 -76 OFFCURVE",
"322 -78 OFFCURVE",
"322 -78 CURVE",
"319 -80 OFFCURVE",
"311 -88 OFFCURVE",
"309 -90 CURVE",
"309 -92 OFFCURVE",
"302 -100 OFFCURVE",
"300 -103 CURVE SMOOTH",
"299 -104 OFFCURVE",
"299 -105 OFFCURVE",
"299 -107 CURVE"
);
},
{
closed = 1;
nodes = (
"261 -55 OFFCURVE",
"262 -55 OFFCURVE",
"262 -57 CURVE SMOOTH",
"262 -78 LINE",
"262 -78 OFFCURVE",
"264 -80 OFFCURVE",
"265 -81 CURVE SMOOTH",
"266 -82 OFFCURVE",
"268 -82 OFFCURVE",
"268 -82 CURVE",
"268 -82 OFFCURVE",
"272 -79 OFFCURVE",
"272 -78 CURVE SMOOTH",
"272 -78 OFFCURVE",
"273 -70 OFFCURVE",
"273 -67 CURVE SMOOTH",
"273 -67 OFFCURVE",
"273 -59 OFFCURVE",
"273 -56 CURVE SMOOTH",
"273 -54 OFFCURVE",
"273 -47 OFFCURVE",
"273 -45 CURVE SMOOTH",
"272 -43 OFFCURVE",
"272 -40 OFFCURVE",
"270 -40 CURVE SMOOTH",
"267 -40 OFFCURVE",
"251 -52 OFFCURVE",
"251 -55 CURVE SMOOTH",
"251 -57 OFFCURVE",
"255 -58 OFFCURVE",
"255 -58 CURVE",
"256 -58 OFFCURVE",
"259 -55 OFFCURVE",
"259 -55 CURVE",
"259 -55 OFFCURVE",
"260 -55 OFFCURVE",
"260 -55 CURVE"
);
}
);
userData = {
com.typemytype.robofont.mark = (
0.939,
1,
0.6,
1
);
};
width = 497;
}
);
},
{
glyphname = F;
lastChange = "2020-03-17 07:33:24 +0000";
layers = (
{
anchors = (
{
name = bottom;
position = "{243, 0}";
},
{
name = measure;
position = "{0, 0}";
},
{
name = top;
position = "{243, 660}";
}
);
layerId = master01;
paths = (
{
closed = 1;
nodes = (
"80 4 OFFCURVE",
"80 0 OFFCURVE",
"82 0 CURVE SMOOTH",
"84 -1 OFFCURVE",
"88 -2 OFFCURVE",
"89 -2 CURVE SMOOTH",
"91 -2 OFFCURVE",
"107 -2 OFFCURVE",
"109 -2 CURVE SMOOTH",
"117 -2 OFFCURVE",
"177 -3 OFFCURVE",
"185 -3 CURVE SMOOTH",
"185 -3 OFFCURVE",
"186 -3 OFFCURVE",
"186 -3 CURVE",
"192 -3 OFFCURVE",
"195 -2 OFFCURVE",
"197 2 CURVE",
"197 35 OFFCURVE",
"197 186 OFFCURVE",
"197 218 CURVE SMOOTH",
"197 226 OFFCURVE",
"198 264 OFFCURVE",
"198 272 CURVE SMOOTH",
"198 273 OFFCURVE",
"200 277 OFFCURVE",
"200 278 CURVE SMOOTH",
"200 278 OFFCURVE",
"201 279 OFFCURVE",
"201 279 CURVE",
"407 279 LINE SMOOTH",
"412 279 OFFCURVE",
"414 285 OFFCURVE",
"414 288 CURVE SMOOTH",
"414 375 LINE",
"414 376 OFFCURVE",
"412 380 OFFCURVE",
"412 380 CURVE",
"412 381 OFFCURVE",
"409 382 OFFCURVE",
"409 382 CURVE",
"406 382 OFFCURVE",
"394 382 OFFCURVE",
"391 382 CURVE SMOOTH",
"390 382 OFFCURVE",
"382 383 OFFCURVE",
"380 383 CURVE SMOOTH",
"376 383 OFFCURVE",
"347 382 OFFCURVE",
"343 382 CURVE SMOOTH",
"342 382 OFFCURVE",
"337 382 OFFCURVE",
"336 382 CURVE SMOOTH",
"335 382 OFFCURVE",
"330 382 OFFCURVE",
"329 382 CURVE SMOOTH",
"325 382 OFFCURVE",
"293 383 OFFCURVE",
"289 383 CURVE SMOOTH",
"275 383 OFFCURVE",
"213 383 OFFCURVE",
"200 383 CURVE",
"198 386 LINE",
"198 531 LINE SMOOTH",
"198 534 OFFCURVE",
"200 548 OFFCURVE",
"200 550 CURVE SMOOTH",
"200 550 OFFCURVE",
"200 553 OFFCURVE",
"200 553 CURVE",
"200 555 OFFCURVE",
"201 562 OFFCURVE",
"201 562 CURVE",
"201 563 OFFCURVE",
"202 565 OFFCURVE",
"202 565 CURVE",
"219 566 LINE",
"412 566 LINE",
"414 569 LINE",
"414 665 LINE SMOOTH",
"414 667 OFFCURVE",
"406 670 OFFCURVE",
"405 670 CURVE SMOOTH",
"394 670 OFFCURVE",
"345 670 OFFCURVE",
"335 670 CURVE SMOOTH",
"329 670 OFFCURVE",
"304 672 OFFCURVE",
"298 672 CURVE SMOOTH",
"90 672 LINE",
"90 672 OFFCURVE",
"88 671 OFFCURVE",
"86 670 CURVE",
"86 670 OFFCURVE",
"82 669 OFFCURVE",
"82 668 CURVE",
"81 657 LINE",
"81 309 LINE",
"80 306 OFFCURVE",
"80 295 OFFCURVE",
"80 293 CURVE SMOOTH",
"80 290 OFFCURVE",
"81 270 OFFCURVE",
"81 267 CURVE SMOOTH",
"81 266 OFFCURVE",
"81 253 OFFCURVE",
"81 248 CURVE SMOOTH",
"81 243 OFFCURVE",
"81 229 OFFCURVE",
"81 228 CURVE SMOOTH",
"81 224 OFFCURVE",
"80 189 OFFCURVE",
"80 185 CURVE SMOOTH",
"80 181 OFFCURVE",
"80 118 OFFCURVE",
"80 95 CURVE SMOOTH",
"80 81 OFFCURVE",
"80 19 OFFCURVE",
"80 5 CURVE"
);
}
);
width = 486;
}
);
rightKerningGroup = F;
unicode = 0046;
},
{
glyphname = F.ss02;
lastChange = "2020-03-17 07:33:24 +0000";
layers = (
{
anchors = (
{
name = _measure;
position = "{0, 0}";
}
);
layerId = master01;
paths = (
{
closed = 1;
nodes = (
"79 -108 OFFCURVE",
"77 -110 OFFCURVE",
"77 -114 CURVE SMOOTH",
"77 -168 LINE",
"77 -169 OFFCURVE",
"78 -172 OFFCURVE",
"78 -173 CURVE SMOOTH",
"78 -173 OFFCURVE",
"81 -174 OFFCURVE",
"82 -174 CURVE SMOOTH",
"82 -174 OFFCURVE",
"83 -174 OFFCURVE",
"83 -174 CURVE",
"84 -174 OFFCURVE",
"86 -172 OFFCURVE",
"86 -170 CURVE SMOOTH",
"89 -147 LINE",
"401 -147 LINE",
"401 -147 OFFCURVE",
"403 -148 OFFCURVE",
"403 -149 CURVE SMOOTH",
"405 -153 OFFCURVE",
"403 -169 OFFCURVE",
"410 -169 CURVE SMOOTH",
"411 -169 OFFCURVE",
"412 -169 OFFCURVE",
"412 -169 CURVE",
"413 -168 OFFCURVE",
"416 -166 OFFCURVE",
"416 -165 CURVE",
"416 -114 LINE SMOOTH",
"416 -112 OFFCURVE",
"412 -107 OFFCURVE",
"410 -107 CURVE SMOOTH",
"410 -107 OFFCURVE",
"409 -107 OFFCURVE",
"409 -107 CURVE",
"408 -108 OFFCURVE",
"405 -110 OFFCURVE",
"405 -111 CURVE SMOOTH",
"405 -118 OFFCURVE",
"405 -127 OFFCURVE",
"403 -134 CURVE",
"403 -134 OFFCURVE",
"402 -135 OFFCURVE",
"402 -135 CURVE",
"397 -135 OFFCURVE",
"372 -137 OFFCURVE",
"367 -137 CURVE SMOOTH",
"364 -137 OFFCURVE",
"340 -137 OFFCURVE",
"337 -137 CURVE SMOOTH",
"337 -137 OFFCURVE",
"331 -138 OFFCURVE",
"331 -138 CURVE",
"330 -138 OFFCURVE",
"328 -137 OFFCURVE",
"328 -137 CURVE",
"92 -137 LINE SMOOTH",
"82 -137 OFFCURVE",
"93 -108 OFFCURVE",
"82 -108 CURVE SMOOTH"
);
},
{
closed = 1;
nodes = (
"284 -112 OFFCURVE",
"287 -113 OFFCURVE",
"289 -114 CURVE",
"290 -114 OFFCURVE",
"293 -115 OFFCURVE",
"294 -115 CURVE SMOOTH",
"295 -115 OFFCURVE",
"303 -115 OFFCURVE",
"306 -115 CURVE SMOOTH",
"308 -115 OFFCURVE",
"315 -115 OFFCURVE",
"317 -115 CURVE SMOOTH",
"320 -114 OFFCURVE",
"321 -112 OFFCURVE",
"321 -109 CURVE SMOOTH",
"321 -108 OFFCURVE",
"321 -106 OFFCURVE",
"320 -106 CURVE SMOOTH",
"316 -104 OFFCURVE",
"308 -105 OFFCURVE",
"305 -103 CURVE",
"305 -102 OFFCURVE",
"306 -101 OFFCURVE",
"306 -100 CURVE SMOOTH",
"308 -98 OFFCURVE",
"318 -89 OFFCURVE",
"320 -87 CURVE",
"320 -86 OFFCURVE",
"320 -83 OFFCURVE",
"320 -82 CURVE SMOOTH",
"320 -73 OFFCURVE",
"315 -66 OFFCURVE",
"306 -66 CURVE SMOOTH",
"302 -66 OFFCURVE",
"298 -66 OFFCURVE",
"294 -69 CURVE SMOOTH",
"289 -73 OFFCURVE",
"286 -76 OFFCURVE",
"286 -81 CURVE SMOOTH",
"286 -85 OFFCURVE",
"287 -85 OFFCURVE",
"290 -85 CURVE SMOOTH",
"290 -85 OFFCURVE",
"291 -85 OFFCURVE",
"291 -85 CURVE",
"295 -82 OFFCURVE",
"298 -77 OFFCURVE",
"303 -77 CURVE SMOOTH",
"306 -77 OFFCURVE",
"309 -79 OFFCURVE",
"309 -83 CURVE SMOOTH",
"309 -85 OFFCURVE",
"300 -98 OFFCURVE",
"298 -96 CURVE",
"297 -97 OFFCURVE",
"290 -103 OFFCURVE",
"289 -104 CURVE SMOOTH",
"287 -106 OFFCURVE",
"285 -108 OFFCURVE",
"285 -110 CURVE SMOOTH"
);
},
{
closed = 1;
nodes = (
"255 -110 OFFCURVE",
"257 -112 OFFCURVE",
"258 -112 CURVE SMOOTH",
"258 -112 OFFCURVE",
"259 -112 OFFCURVE",
"260 -112 CURVE SMOOTH",
"267 -112 OFFCURVE",
"269 -101 OFFCURVE",
"271 -96 CURVE",
"271 -96 OFFCURVE",
"273 -94 OFFCURVE",
"273 -93 CURVE SMOOTH",
"273 -93 OFFCURVE",
"276 -85 OFFCURVE",
"277 -84 CURVE",
"277 -83 OFFCURVE",
"280 -78 OFFCURVE",
"281 -77 CURVE SMOOTH",
"285 -68 OFFCURVE",
"287 -59 OFFCURVE",
"294 -50 CURVE",
"294 -48 OFFCURVE",
"292 -44 OFFCURVE",
"289 -44 CURVE SMOOTH",
"285 -44 OFFCURVE",
"279 -60 OFFCURVE",
"278 -64 CURVE",
"262 -96 LINE",
"262 -96 OFFCURVE",
"260 -97 OFFCURVE",
"260 -97 CURVE",
"260 -99 OFFCURVE",
"257 -104 OFFCURVE",
"256 -106 CURVE",
"256 -106 OFFCURVE",
"255 -110 OFFCURVE",
"255 -110 CURVE"
);
},
{
closed = 1;
nodes = (
"177 -102 OFFCURVE",
"188 -111 OFFCURVE",
"195 -111 CURVE SMOOTH",
"199 -111 OFFCURVE",
"203 -110 OFFCURVE",
"206 -108 CURVE SMOOTH",
"217 -102 OFFCURVE",
"221 -98 OFFCURVE",
"221 -86 CURVE SMOOTH",
"221 -81 OFFCURVE",
"217 -76 OFFCURVE",
"217 -71 CURVE SMOOTH",
"217 -71 OFFCURVE",
"217 -69 OFFCURVE",
"217 -69 CURVE",
"217 -68 OFFCURVE",
"219 -66 OFFCURVE",
"219 -65 CURVE SMOOTH",
"219 -65 OFFCURVE",
"219 -60 OFFCURVE",
"219 -59 CURVE SMOOTH",
"219 -56 OFFCURVE",
"219 -53 OFFCURVE",
"217 -50 CURVE SMOOTH",
"213 -46 OFFCURVE",
"209 -42 OFFCURVE",
"202 -42 CURVE SMOOTH",
"195 -42 OFFCURVE",
"181 -45 OFFCURVE",
"181 -55 CURVE SMOOTH",
"181 -58 OFFCURVE",
"183 -59 OFFCURVE",
"186 -60 CURVE",
"191 -55 OFFCURVE",
"194 -53 OFFCURVE",
"200 -53 CURVE SMOOTH",
"204 -53 OFFCURVE",
"208 -54 OFFCURVE",
"208 -58 CURVE SMOOTH",
"208 -64 OFFCURVE",
"204 -64 OFFCURVE",
"200 -66 CURVE SMOOTH",
"196 -68 OFFCURVE",
"190 -69 OFFCURVE",
"190 -74 CURVE SMOOTH",
"190 -83 OFFCURVE",
"207 -74 OFFCURVE",
"211 -87 CURVE",
"211 -87 OFFCURVE",
"211 -88 OFFCURVE",
"211 -89 CURVE SMOOTH",
"211 -93 OFFCURVE",
"205 -99 OFFCURVE",
"200 -99 CURVE SMOOTH",
"193 -99 OFFCURVE",
"188 -93 OFFCURVE",
"184 -88 CURVE",
"184 -88 OFFCURVE",
"182 -88 OFFCURVE",
"182 -88 CURVE",
"180 -88 OFFCURVE",
"177 -91 OFFCURVE",
"177 -94 CURVE SMOOTH"
);
},
{
closed = 1;
nodes = (
"252 -80 OFFCURVE",
"253 -85 OFFCURVE",
"254 -85 CURVE SMOOTH",
"254 -85 OFFCURVE",
"256 -85 OFFCURVE",
"256 -85 CURVE",
"260 -85 OFFCURVE",
"260 -85 OFFCURVE",
"262 -81 CURVE",
"262 -78 OFFCURVE",
"264 -63 OFFCURVE",
"264 -60 CURVE SMOOTH",
"264 -58 OFFCURVE",
"264 -48 OFFCURVE",
"263 -46 CURVE SMOOTH",
"262 -45 OFFCURVE",
"262 -45 OFFCURVE",
"260 -45 CURVE SMOOTH",
"257 -45 OFFCURVE",
"255 -48 OFFCURVE",
"252 -49 CURVE",
"252 -49 OFFCURVE",
"249 -50 OFFCURVE",
"248 -50 CURVE SMOOTH",
"248 -50 OFFCURVE",
"245 -52 OFFCURVE",
"244 -53 CURVE SMOOTH",
"243 -54 OFFCURVE",
"240 -57 OFFCURVE",
"240 -57 CURVE",
"240 -58 OFFCURVE",
"241 -60 OFFCURVE",
"242 -60 CURVE",
"252 -60 LINE",
"252 -60 OFFCURVE",
"254 -62 OFFCURVE",
"254 -62 CURVE",
"254 -62 OFFCURVE",
"254 -64 OFFCURVE",
"254 -65 CURVE SMOOTH",
"254 -66 OFFCURVE",
"254 -68 OFFCURVE",
"254 -68 CURVE",
"254 -69 OFFCURVE",
"252 -77 OFFCURVE",
"252 -79 CURVE"
);
}
);
userData = {
com.typemytype.robofont.mark = (
0.939,
1,
0.6,
1
);
};
width = 486;
}
);
rightKerningGroup = F;
},
{
glyphname = G;
lastChange = "2020-03-17 07:22:58 +0000";
layers = (
{
anchors = (
{
name = bottom;
position = "{343, 0}";
},
{
name = measure;
position = "{0, 0}";
},
{
name = top;
position = "{343, 660}";
}
);
layerId = master01;
paths = (
{
closed = 1;
nodes = (
"194 31 OFFCURVE",
"215 20 OFFCURVE",
"239 9 CURVE SMOOTH",
"240 8 OFFCURVE",
"251 3 OFFCURVE",
"252 2 CURVE",
"253 2 OFFCURVE",
"261 0 OFFCURVE",
"262 0 CURVE SMOOTH",
"262 0 OFFCURVE",
"269 -3 OFFCURVE",
"270 -3 CURVE SMOOTH",
"276 -4 OFFCURVE",
"301 -11 OFFCURVE",
"306 -12 CURVE SMOOTH",
"309 -13 OFFCURVE",
"318 -15 OFFCURVE",
"320 -15 CURVE SMOOTH",
"324 -16 OFFCURVE",
"355 -19 OFFCURVE",
"364 -19 CURVE SMOOTH",
"364 -19 OFFCURVE",
"367 -19 OFFCURVE",
"368 -19 CURVE SMOOTH",
"388 -19 OFFCURVE",
"406 -17 OFFCURVE",
"425 -14 CURVE SMOOTH",
"438 -12 OFFCURVE",
"450 -10 OFFCURVE",
"464 -7 CURVE SMOOTH",
"487 -1 OFFCURVE",
"508 9 OFFCURVE",
"530 19 CURVE",
"531 19 OFFCURVE",
"532 20 OFFCURVE",
"533 20 CURVE SMOOTH",
"537 22 OFFCURVE",
"547 28 OFFCURVE",
"547 28 CURVE",
"554 31 OFFCURVE",
"580 50 OFFCURVE",
"585 54 CURVE SMOOTH",
"586 55 OFFCURVE",
"591 60 OFFCURVE",
"592 60 CURVE SMOOTH",
"593 61 OFFCURVE",
"597 64 OFFCURVE",
"597 64 CURVE",
"599 66 OFFCURVE",
"611 77 OFFCURVE",
"614 79 CURVE SMOOTH",
"616 81 OFFCURVE",
"622 88 OFFCURVE",
"623 89 CURVE",
"624 89 OFFCURVE",
"625 93 OFFCURVE",
"626 94 CURVE",
"626 96 OFFCURVE",
"628 102 OFFCURVE",
"628 104 CURVE SMOOTH",
"628 104 OFFCURVE",
"628 106 OFFCURVE",
"628 106 CURVE",
"628 107 OFFCURVE",
"628 110 OFFCURVE",
"628 110 CURVE",
"628 114 OFFCURVE",
"627 149 OFFCURVE",
"627 154 CURVE SMOOTH",
"627 159 OFFCURVE",
"627 201 OFFCURVE",
"627 206 CURVE SMOOTH",
"627 212 OFFCURVE",
"626 256 OFFCURVE",
"626 261 CURVE SMOOTH",
"626 271 OFFCURVE",
"626 315 OFFCURVE",
"626 325 CURVE",
"625 326 OFFCURVE",
"624 333 OFFCURVE",
"624 334 CURVE SMOOTH",
"624 336 OFFCURVE",
"626 348 OFFCURVE",
"626 349 CURVE SMOOTH",
"626 349 OFFCURVE",
"626 350 OFFCURVE",
"626 350 CURVE",
"626 350 OFFCURVE",
"626 351 OFFCURVE",
"626 351 CURVE",
"626 352 OFFCURVE",
"624 355 OFFCURVE",
"624 355 CURVE",
"624 355 OFFCURVE",
"621 356 OFFCURVE",
"620 356 CURVE SMOOTH",
"597 358 OFFCURVE",
"572 357 OFFCURVE",
"549 357 CURVE SMOOTH",
"538 357 OFFCURVE",
"508 357 OFFCURVE",
"506 357 CURVE SMOOTH",
"501 357 OFFCURVE",
"463 356 OFFCURVE",
"458 356 CURVE SMOOTH",
"456 356 OFFCURVE",
"439 356 OFFCURVE",
"437 356 CURVE SMOOTH",
"434 356 OFFCURVE",
"427 355 OFFCURVE",
"425 352 CURVE",
"425 348 OFFCURVE",
"425 330 OFFCURVE",
"425 326 CURVE SMOOTH",
"425 326 OFFCURVE",
"423 322 OFFCURVE",
"423 321 CURVE SMOOTH",
"423 321 OFFCURVE",
"423 320 OFFCURVE",
"423 320 CURVE",
"423 318 OFFCURVE",
"425 316 OFFCURVE",
"425 313 CURVE SMOOTH",
"425 301 OFFCURVE",
"423 288 OFFCURVE",
"423 276 CURVE SMOOTH",
"423 270 OFFCURVE",
"423 266 OFFCURVE",
"425 260 CURVE",
"425 260 OFFCURVE",
"426 259 OFFCURVE",
"426 259 CURVE",
"429 258 OFFCURVE",
"442 257 OFFCURVE",
"445 257 CURVE SMOOTH",
"454 257 OFFCURVE",
"498 257 OFFCURVE",
"507 257 CURVE",
"510 255 LINE",
"510 255 OFFCURVE",
"511 245 OFFCURVE",
"511 241 CURVE SMOOTH",
"511 235 OFFCURVE",
"511 188 OFFCURVE",
"511 182 CURVE SMOOTH",
"511 176 OFFCURVE",
"512 149 OFFCURVE",
"512 144 CURVE SMOOTH",
"512 143 OFFCURVE",
"510 136 OFFCURVE",
"510 135 CURVE SMOOTH",
"510 135 OFFCURVE",
"506 132 OFFCURVE",
"504 131 CURVE SMOOTH",
"498 126 OFFCURVE",
"490 120 OFFCURVE",
"483 116 CURVE",
"482 116 OFFCURVE",
"479 114 OFFCURVE",
"479 114 CURVE",
"471 111 OFFCURVE",
"465 107 OFFCURVE",
"457 104 CURVE",
"456 104 OFFCURVE",
"452 101 OFFCURVE",
"452 101 CURVE",
"440 97 OFFCURVE",
"427 95 OFFCURVE",
"415 91 CURVE",
"380 91 LINE",
"373 94 OFFCURVE",
"364 93 OFFCURVE",
"357 94 CURVE SMOOTH",
"354 95 OFFCURVE",
"338 98 OFFCURVE",
"334 98 CURVE",
"332 99 OFFCURVE",
"320 102 OFFCURVE",
"318 102 CURVE SMOOTH",
"317 102 OFFCURVE",
"313 105 OFFCURVE",
"313 105 CURVE",
"312 105 OFFCURVE",
"309 105 OFFCURVE",
"309 105 CURVE",
"308 105 OFFCURVE",
"301 108 OFFCURVE",
"299 109 CURVE SMOOTH",
"296 110 OFFCURVE",
"286 115 OFFCURVE",
"286 116 CURVE",
"284 116 OFFCURVE",
"274 125 OFFCURVE",
"272 125 CURVE",
"266 130 OFFCURVE",
"258 133 OFFCURVE",
"252 139 CURVE",
"251 139 OFFCURVE",
"246 145 OFFCURVE",
"245 145 CURVE SMOOTH",
"245 145 OFFCURVE",
"242 148 OFFCURVE",
"241 148 CURVE SMOOTH",
"230 159 OFFCURVE",
"218 171 OFFCURVE",
"210 185 CURVE",
"210 186 OFFCURVE",
"204 197 OFFCURVE",
"204 198 CURVE SMOOTH",
"197 210 OFFCURVE",
"192 217 OFFCURVE",
"189 230 CURVE SMOOTH",
"187 237 OFFCURVE",
"185 245 OFFCURVE",
"183 251 CURVE SMOOTH",
"180 263 OFFCURVE",
"175 274 OFFCURVE",
"174 287 CURVE SMOOTH",
"172 304 OFFCURVE",
"170 322 OFFCURVE",
"170 338 CURVE SMOOTH",
"170 340 OFFCURVE",
"170 346 OFFCURVE",
"170 347 CURVE SMOOTH",
"170 349 OFFCURVE",
"171 363 OFFCURVE",
"171 365 CURVE SMOOTH",
"172 375 OFFCURVE",
"172 384 OFFCURVE",
"174 392 CURVE SMOOTH",
"175 394 OFFCURVE",
"177 411 OFFCURVE",
"178 413 CURVE SMOOTH",
"179 415 OFFCURVE",
"180 418 OFFCURVE",
"181 421 CURVE SMOOTH",
"181 423 OFFCURVE",
"182 429 OFFCURVE",
"182 429 CURVE",
"182 430 OFFCURVE",
"186 438 OFFCURVE",
"187 441 CURVE SMOOTH",
"189 444 OFFCURVE",
"193 454 OFFCURVE",
"194 454 CURVE",
"195 456 OFFCURVE",
"201 465 OFFCURVE",
"202 467 CURVE",
"202 467 OFFCURVE",
"204 470 OFFCURVE",
"204 471 CURVE SMOOTH",
"207 476 OFFCURVE",
"212 481 OFFCURVE",
"216 487 CURVE SMOOTH",
"218 490 OFFCURVE",
"226 502 OFFCURVE",
"228 503 CURVE",
"228 504 OFFCURVE",
"237 513 OFFCURVE",
"240 515 CURVE SMOOTH",
"262 535 OFFCURVE",
"285 552 OFFCURVE",
"314 560 CURVE SMOOTH",
"334 565 OFFCURVE",
"352 568 OFFCURVE",
"372 568 CURVE SMOOTH",
"374 568 OFFCURVE",
"380 568 OFFCURVE",
"380 568 CURVE",
"384 567 OFFCURVE",
"411 564 OFFCURVE",
"419 562 CURVE SMOOTH",
"426 561 OFFCURVE",
"434 559 OFFCURVE",
"441 557 CURVE SMOOTH",
"445 556 OFFCURVE",
"465 549 OFFCURVE",
"469 548 CURVE SMOOTH",
"470 547 OFFCURVE",
"474 544 OFFCURVE",
"475 544 CURVE",
"475 543 OFFCURVE",
"481 540 OFFCURVE",
"481 539 CURVE",
"494 530 OFFCURVE",
"506 519 OFFCURVE",
"518 508 CURVE",
"518 508 OFFCURVE",
"521 505 OFFCURVE",
"522 504 CURVE",
"523 504 OFFCURVE",
"527 498 OFFCURVE",
"527 498 CURVE",
"528 496 OFFCURVE",
"533 492 OFFCURVE",
"534 491 CURVE",
"534 491 OFFCURVE",
"535 491 OFFCURVE",
"535 491 CURVE",
"540 491 OFFCURVE",
"546 494 OFFCURVE",
"547 499 CURVE",
"611 562 LINE",
"611 562 OFFCURVE",
"613 566 OFFCURVE",
"614 568 CURVE",
"614 569 OFFCURVE",
"615 572 OFFCURVE",
"615 572 CURVE",
"615 573 OFFCURVE",
"614 575 OFFCURVE",
"614 576 CURVE SMOOTH",
"574 618 OFFCURVE",
"514 653 OFFCURVE",
"458 668 CURVE",
"457 668 OFFCURVE",
"446 670 OFFCURVE",
"445 670 CURVE SMOOTH",
"444 670 OFFCURVE",
"442 673 OFFCURVE",
"441 673 CURVE SMOOTH",
"440 673 OFFCURVE",
"435 673 OFFCURVE",
"434 673 CURVE SMOOTH",
"431 673 OFFCURVE",
"411 676 OFFCURVE",
"409 677 CURVE",
"396 678 OFFCURVE",
"384 678 OFFCURVE",
"371 678 CURVE SMOOTH",
"367 678 OFFCURVE",
"357 678 OFFCURVE",
"356 678 CURVE",
"353 677 LINE",
"341 678 OFFCURVE",
"329 676 OFFCURVE",
"317 674 CURVE",
"303 673 OFFCURVE",
"291 668 OFFCURVE",
"278 665 CURVE",
"277 665 OFFCURVE",
"272 664 OFFCURVE",
"271 664 CURVE SMOOTH",
"270 664 OFFCURVE",
"266 661 OFFCURVE",
"266 661 CURVE",
"264 660 OFFCURVE",
"255 658 OFFCURVE",
"253 657 CURVE SMOOTH",
"251 656 OFFCURVE",
"239 652 OFFCURVE",
"236 650 CURVE",
"234 647 OFFCURVE",
"233 647 OFFCURVE",
"229 646 CURVE SMOOTH",
"227 645 OFFCURVE",
"216 639 OFFCURVE",
"213 638 CURVE SMOOTH",
"211 637 OFFCURVE",
"204 633 OFFCURVE",
"204 633 CURVE",
"203 633 OFFCURVE",
"200 629 OFFCURVE",
"199 629 CURVE SMOOTH",
"199 629 OFFCURVE",
"196 627 OFFCURVE",
"195 627 CURVE SMOOTH",
"193 627 OFFCURVE",
"191 625 OFFCURVE",
"189 623 CURVE SMOOTH",
"187 621 OFFCURVE",
"168 608 OFFCURVE",
"166 606 CURVE",
"165 606 OFFCURVE",
"162 603 OFFCURVE",
"162 603 CURVE",
"148 591 OFFCURVE",
"135 577 OFFCURVE",
"124 564 CURVE SMOOTH",
"113 550 OFFCURVE",
"101 537 OFFCURVE",
"93 522 CURVE SMOOTH",
"81 501 OFFCURVE",
"71 479 OFFCURVE",
"63 457 CURVE",
"63 456 OFFCURVE",
"59 448 OFFCURVE",
"59 446 CURVE SMOOTH",
"59 444 OFFCURVE",
"56 425 OFFCURVE",
"55 423 CURVE",
"55 423 OFFCURVE",
"52 417 OFFCURVE",
"52 417 CURVE",
"49 407 OFFCURVE",
"48 397 OFFCURVE",
"47 387 CURVE SMOOTH",
"44 365 OFFCURVE",
"42 342 OFFCURVE",
"42 320 CURVE SMOOTH",
"42 318 OFFCURVE",
"42 313 OFFCURVE",
"42 313 CURVE",
"42 311 OFFCURVE",
"43 295 OFFCURVE",
"43 293 CURVE SMOOTH",
"43 292 OFFCURVE",
"43 285 OFFCURVE",
"43 284 CURVE SMOOTH",
"44 278 OFFCURVE",
"46 271 OFFCURVE",
"47 264 CURVE SMOOTH",
"47 260 OFFCURVE",
"48 250 OFFCURVE",
"48 249 CURVE SMOOTH",
"48 249 OFFCURVE",
"51 242 OFFCURVE",
"51 241 CURVE SMOOTH",
"51 241 OFFCURVE",
"52 236 OFFCURVE",
"52 234 CURVE SMOOTH",
"52 234 OFFCURVE",
"54 226 OFFCURVE",
"54 225 CURVE SMOOTH",
"55 218 OFFCURVE",
"59 210 OFFCURVE",
"61 203 CURVE",
"61 203 OFFCURVE",
"62 199 OFFCURVE",
"62 198 CURVE SMOOTH",
"62 197 OFFCURVE",
"65 191 OFFCURVE",
"66 190 CURVE SMOOTH",
"67 189 OFFCURVE",
"71 176 OFFCURVE",
"71 175 CURVE SMOOTH",
"77 162 OFFCURVE",
"83 148 OFFCURVE",
"92 136 CURVE SMOOTH",
"98 126 OFFCURVE",
"105 114 OFFCURVE",
"113 105 CURVE SMOOTH",
"129 86 OFFCURVE",
"146 69 OFFCURVE",
"164 54 CURVE",
"165 54 OFFCURVE",
"168 51 OFFCURVE",
"168 51 CURVE",
"169 50 OFFCURVE",
"172 48 OFFCURVE",
"172 47 CURVE"
);
}
);
width = 686;
}
);
leftKerningGroup = O;
unicode = 0047;
},
{
glyphname = G.alt;
lastChange = "2020-03-17 07:25:14 +0000";
layers = (
{
anchors = (
{
name = bottom;
position = "{367, 0}";
},
{
name = measure;
position = "{0, 0}";
},
{
name = top;
position = "{367, 660}";
}
);
layerId = master01;
paths = (
{
closed = 1;
nodes = (
"270 3 OFFCURVE",
"296 -4 OFFCURVE",
"301 -5 CURVE SMOOTH",
"325 -11 OFFCURVE",
"348 -13 OFFCURVE",
"372 -13 CURVE SMOOTH",
"391 -13 OFFCURVE",
"410 -13 OFFCURVE",
"429 -9 CURVE",
"430 -9 OFFCURVE",
"433 -8 OFFCURVE",
"433 -8 CURVE",
"435 -8 OFFCURVE",
"449 -6 OFFCURVE",
"451 -5 CURVE SMOOTH",
"452 -4 OFFCURVE",
"466 0 OFFCURVE",
"467 0 CURVE SMOOTH",
"468 0 OFFCURVE",
"476 3 OFFCURVE",
"478 3 CURVE SMOOTH",
"478 3 OFFCURVE",
"481 4 OFFCURVE",
"482 4 CURVE SMOOTH",
"486 6 OFFCURVE",
"498 10 OFFCURVE",
"499 11 CURVE SMOOTH",
"501 12 OFFCURVE",
"520 20 OFFCURVE",
"526 23 CURVE",
"527 23 OFFCURVE",
"529 25 OFFCURVE",
"529 25 CURVE",
"529 25 OFFCURVE",
"532 27 OFFCURVE",
"532 27 CURVE",
"533 28 OFFCURVE",
"542 35 OFFCURVE",
"544 35 CURVE",
"555 43 OFFCURVE",
"564 50 OFFCURVE",
"573 60 CURVE SMOOTH",
"575 62 OFFCURVE",
"585 72 OFFCURVE",
"587 75 CURVE",
"591 76 OFFCURVE",
"590 77 OFFCURVE",
"592 80 CURVE SMOOTH",
"593 81 OFFCURVE",
"598 86 OFFCURVE",
"599 87 CURVE",
"599 87 OFFCURVE",
"602 90 OFFCURVE",
"602 91 CURVE SMOOTH",
"602 91 OFFCURVE",
"607 97 OFFCURVE",
"607 97 CURVE",
"619 113 OFFCURVE",
"629 126 OFFCURVE",
"638 143 CURVE SMOOTH",
"649 163 OFFCURVE",
"658 182 OFFCURVE",
"665 203 CURVE SMOOTH",
"666 204 OFFCURVE",
"667 209 OFFCURVE",
"668 209 CURVE",
"677 253 LINE",
"677 257 OFFCURVE",
"679 262 OFFCURVE",
"680 266 CURVE SMOOTH",
"681 276 OFFCURVE",
"685 309 OFFCURVE",
"685 312 CURVE SMOOTH",
"685 313 OFFCURVE",
"685 319 OFFCURVE",
"685 321 CURVE SMOOTH",
"685 322 OFFCURVE",
"685 328 OFFCURVE",
"685 330 CURVE SMOOTH",
"685 332 OFFCURVE",
"682 334 OFFCURVE",
"680 334 CURVE SMOOTH",
"679 334 OFFCURVE",
"671 334 OFFCURVE",
"669 334 CURVE SMOOTH",
"666 334 OFFCURVE",
"639 335 OFFCURVE",
"636 335 CURVE SMOOTH",
"633 335 OFFCURVE",
"592 335 OFFCURVE",
"577 335 CURVE SMOOTH",
"562 335 OFFCURVE",
"522 335 OFFCURVE",
"520 335 CURVE SMOOTH",
"517 335 OFFCURVE",
"497 334 OFFCURVE",
"494 334 CURVE SMOOTH",
"488 334 OFFCURVE",
"443 334 OFFCURVE",
"437 334 CURVE SMOOTH",
"435 334 OFFCURVE",
"422 333 OFFCURVE",
"420 332 CURVE",
"420 332 OFFCURVE",
"418 331 OFFCURVE",
"418 331 CURVE",
"418 330 OFFCURVE",
"416 327 OFFCURVE",
"416 326 CURVE SMOOTH",
"415 324 OFFCURVE",
"413 319 OFFCURVE",
"413 319 CURVE",
"413 318 OFFCURVE",
"412 310 OFFCURVE",
"412 309 CURVE SMOOTH",
"412 309 OFFCURVE",
"411 306 OFFCURVE",
"410 305 CURVE",
"410 304 OFFCURVE",
"406 296 OFFCURVE",
"406 294 CURVE SMOOTH",
"406 294 OFFCURVE",
"405 288 OFFCURVE",
"405 288 CURVE",
"401 276 OFFCURVE",
"393 260 OFFCURVE",
"393 248 CURVE SMOOTH",
"393 238 OFFCURVE",
"402 242 OFFCURVE",
"409 242 CURVE SMOOTH",
"414 242 OFFCURVE",
"456 240 OFFCURVE",
"462 240 CURVE SMOOTH",
"468 240 OFFCURVE",
"520 240 OFFCURVE",
"526 240 CURVE SMOOTH",
"528 240 OFFCURVE",
"540 240 OFFCURVE",
"544 239 CURVE",
"545 239 OFFCURVE",
"551 238 OFFCURVE",
"552 238 CURVE SMOOTH",
"554 237 OFFCURVE",
"553 233 OFFCURVE",
"553 232 CURVE SMOOTH",
"553 231 OFFCURVE",
"553 228 OFFCURVE",
"553 228 CURVE",
"553 227 OFFCURVE",
"549 215 OFFCURVE",
"548 211 CURVE SMOOTH",
"546 207 OFFCURVE",
"544 201 OFFCURVE",
"542 197 CURVE",
"542 197 OFFCURVE",
"540 194 OFFCURVE",
"540 193 CURVE SMOOTH",
"537 187 OFFCURVE",
"536 181 OFFCURVE",
"532 176 CURVE SMOOTH",
"530 172 OFFCURVE",
"519 158 OFFCURVE",
"517 155 CURVE",
"516 155 OFFCURVE",
"511 149 OFFCURVE",
"510 147 CURVE",
"510 147 OFFCURVE",
"509 146 OFFCURVE",
"509 146 CURVE",
"508 145 OFFCURVE",
"500 139 OFFCURVE",
"499 138 CURVE SMOOTH",
"488 128 OFFCURVE",
"477 119 OFFCURVE",
"464 112 CURVE SMOOTH",
"457 108 OFFCURVE",
"446 101 OFFCURVE",
"437 99 CURVE SMOOTH",
"424 95 OFFCURVE",
"412 95 OFFCURVE",
"399 92 CURVE",
"350 92 LINE",
"349 92 OFFCURVE",
"345 93 OFFCURVE",
"344 93 CURVE SMOOTH",
"344 93 OFFCURVE",
"343 93 OFFCURVE",
"343 93 CURVE",
"340 94 OFFCURVE",
"326 97 OFFCURVE",
"323 97 CURVE",
"316 99 OFFCURVE",
"309 101 OFFCURVE",
"302 104 CURVE SMOOTH",
"292 108 OFFCURVE",
"281 110 OFFCURVE",
"271 118 CURVE",
"271 118 OFFCURVE",
"264 124 OFFCURVE",
"263 124 CURVE SMOOTH",
"260 127 OFFCURVE",
"256 130 OFFCURVE",
"252 133 CURVE SMOOTH",
"251 134 OFFCURVE",
"239 146 OFFCURVE",
"238 147 CURVE",
"237 147 OFFCURVE",
"234 150 OFFCURVE",
"234 150 CURVE",
"225 157 OFFCURVE",
"219 166 OFFCURVE",
"212 176 CURVE SMOOTH",
"198 194 OFFCURVE",
"186 214 OFFCURVE",
"180 235 CURVE",
"178 239 OFFCURVE",
"172 261 OFFCURVE",
"170 266 CURVE SMOOTH",
"167 276 OFFCURVE",
"167 282 OFFCURVE",
"166 292 CURVE SMOOTH",
"166 294 OFFCURVE",
"165 310 OFFCURVE",
"165 312 CURVE SMOOTH",
"165 313 OFFCURVE",
"163 323 OFFCURVE",
"163 324 CURVE SMOOTH",
"163 324 OFFCURVE",
"163 327 OFFCURVE",
"163 328 CURVE SMOOTH",
"163 348 OFFCURVE",
"166 366 OFFCURVE",
"169 385 CURVE SMOOTH",
"169 388 OFFCURVE",
"171 399 OFFCURVE",
"172 401 CURVE SMOOTH",
"174 413 OFFCURVE",
"179 425 OFFCURVE",
"184 436 CURVE SMOOTH",
"189 448 OFFCURVE",
"194 459 OFFCURVE",
"201 470 CURVE SMOOTH",
"202 471 OFFCURVE",
"209 485 OFFCURVE",
"211 486 CURVE",
"222 504 OFFCURVE",
"238 518 OFFCURVE",
"255 529 CURVE SMOOTH",
"294 554 OFFCURVE",
"329 566 OFFCURVE",
"375 566 CURVE SMOOTH",
"404 566 OFFCURVE",
"438 560 OFFCURVE",
"464 548 CURVE",
"466 548 OFFCURVE",
"474 543 OFFCURVE",
"475 543 CURVE SMOOTH",
"485 538 OFFCURVE",
"496 533 OFFCURVE",
"505 525 CURVE",
"505 525 OFFCURVE",
"509 521 OFFCURVE",
"510 520 CURVE SMOOTH",
"511 519 OFFCURVE",
"517 515 OFFCURVE",
"518 514 CURVE SMOOTH",
"533 500 OFFCURVE",
"544 485 OFFCURVE",
"557 469 CURVE SMOOTH",
"558 467 OFFCURVE",
"561 465 OFFCURVE",
"561 465 CURVE",
"561 465 OFFCURVE",
"563 465 OFFCURVE",
"564 465 CURVE SMOOTH",
"565 465 OFFCURVE",
"567 465 OFFCURVE",
"567 465 CURVE",
"567 465 OFFCURVE",
"571 468 OFFCURVE",
"572 469 CURVE SMOOTH",
"575 471 OFFCURVE",
"586 478 OFFCURVE",
"588 479 CURVE",
"588 479 OFFCURVE",
"591 481 OFFCURVE",
"591 481 CURVE",
"596 485 OFFCURVE",
"602 489 OFFCURVE",
"607 493 CURVE SMOOTH",
"621 502 OFFCURVE",
"636 511 OFFCURVE",
"649 521 CURVE",
"650 521 OFFCURVE",
"650 523 OFFCURVE",
"650 523 CURVE",
"650 523 OFFCURVE",
"650 526 OFFCURVE",
"649 527 CURVE SMOOTH",
"648 528 OFFCURVE",
"644 536 OFFCURVE",
"644 537 CURVE SMOOTH",
"640 543 OFFCURVE",
"617 568 OFFCURVE",
"613 574 CURVE SMOOTH",
"612 575 OFFCURVE",
"597 588 OFFCURVE",
"591 593 CURVE SMOOTH",
"571 609 OFFCURVE",
"551 623 OFFCURVE",
"528 635 CURVE",
"518 639 OFFCURVE",
"507 643 OFFCURVE",
"498 648 CURVE SMOOTH",
"494 649 OFFCURVE",
"493 650 OFFCURVE",
"490 651 CURVE SMOOTH",
"488 652 OFFCURVE",
"483 653 OFFCURVE",
"482 653 CURVE SMOOTH",
"481 653 OFFCURVE",
"478 656 OFFCURVE",
"478 656 CURVE",
"477 656 OFFCURVE",
"472 658 OFFCURVE",
"471 658 CURVE SMOOTH",
"470 658 OFFCURVE",
"456 661 OFFCURVE",
"455 662 CURVE",
"430 668 OFFCURVE",
"405 670 OFFCURVE",
"379 670 CURVE SMOOTH",
"372 670 OFFCURVE",
"355 670 OFFCURVE",
"354 670 CURVE SMOOTH",
"336 669 OFFCURVE",
"319 665 OFFCURVE",
"301 662 CURVE SMOOTH",
"291 660 OFFCURVE",
"279 656 OFFCURVE",
"270 652 CURVE SMOOTH",
"264 649 OFFCURVE",
"257 648 OFFCURVE",
"251 645 CURVE",
"250 645 OFFCURVE",
"242 641 OFFCURVE",
"240 640 CURVE SMOOTH",
"230 635 OFFCURVE",
"218 631 OFFCURVE",
"208 625 CURVE SMOOTH",
"207 624 OFFCURVE",
"194 616 OFFCURVE",
"193 614 CURVE",
"191 613 OFFCURVE",
"175 602 OFFCURVE",
"173 601 CURVE SMOOTH",
"172 600 OFFCURVE",
"167 597 OFFCURVE",
"166 595 CURVE SMOOTH",
"164 593 OFFCURVE",
"154 584 OFFCURVE",
"151 582 CURVE",
"151 581 OFFCURVE",
"145 576 OFFCURVE",
"145 575 CURVE",
"144 575 OFFCURVE",
"140 572 OFFCURVE",
"139 571 CURVE SMOOTH",
"138 570 OFFCURVE",
"133 564 OFFCURVE",
"132 563 CURVE",
"132 562 OFFCURVE",
"125 556 OFFCURVE",
"124 555 CURVE SMOOTH",
"123 554 OFFCURVE",
"115 543 OFFCURVE",
"114 541 CURVE SMOOTH",
"110 537 OFFCURVE",
"105 533 OFFCURVE",
"103 528 CURVE",
"103 527 OFFCURVE",
"100 523 OFFCURVE",
"100 523 CURVE",
"100 523 OFFCURVE",
"99 521 OFFCURVE",
"99 521 CURVE",
"98 520 OFFCURVE",
"95 516 OFFCURVE",
"95 516 CURVE",
"79 491 OFFCURVE",
"67 465 OFFCURVE",
"58 436 CURVE SMOOTH",
"52 417 OFFCURVE",
"46 397 OFFCURVE",
"45 377 CURVE SMOOTH",
"45 375 OFFCURVE",
"45 361 OFFCURVE",
"45 359 CURVE SMOOTH",
"45 358 OFFCURVE",
"43 350 OFFCURVE",
"43 348 CURVE SMOOTH",
"43 345 OFFCURVE",
"43 321 OFFCURVE",
"43 317 CURVE SMOOTH",
"43 316 OFFCURVE",
"43 311 OFFCURVE",
"42 311 CURVE",
"44 280 OFFCURVE",
"49 249 OFFCURVE",
"58 219 CURVE",
"60 216 OFFCURVE",
"62 211 OFFCURVE",
"62 208 CURVE",
"64 202 OFFCURVE",
"67 196 OFFCURVE",
"69 191 CURVE SMOOTH",
"78 168 OFFCURVE",
"89 148 OFFCURVE",
"103 128 CURVE SMOOTH",
"109 119 OFFCURVE",
"116 111 OFFCURVE",
"123 101 CURVE",
"150 72 OFFCURVE",
"179 48 OFFCURVE",
"213 29 CURVE SMOOTH",
"224 23 OFFCURVE",
"234 17 OFFCURVE",
"246 12 CURVE SMOOTH",
"252 10 OFFCURVE",
"259 8 OFFCURVE",
"265 4 CURVE"
);
}
);
width = 733;
}
);
leftKerningGroup = O;
rightKerningGroup = O;
},
{
glyphname = G.alt.ss02;
lastChange = "2020-03-17 07:33:40 +0000";
layers = (
{
anchors = (
{
name = _measure;
position = "{0, 0}";
}
);
layerId = master01;
paths = (
{
closed = 1;
nodes = (
"683 -141 OFFCURVE",
"669 -166 OFFCURVE",
"681 -166 CURVE SMOOTH",
"681 -166 OFFCURVE",
"683 -166 OFFCURVE",
"683 -166 CURVE",
"683 -166 OFFCURVE",
"684 -164 OFFCURVE",
"684 -163 CURVE",
"684 -118 LINE",
"684 -118 OFFCURVE",
"682 -114 OFFCURVE",
"681 -113 CURVE",
"681 -113 OFFCURVE",
"681 -113 OFFCURVE",
"680 -113 CURVE SMOOTH",
"679 -113 OFFCURVE",
"677 -113 OFFCURVE",
"677 -114 CURVE",
"675 -129 LINE",
"672 -132 LINE",
"564 -132 LINE",
"561 -133 OFFCURVE",
"548 -133 OFFCURVE",
"545 -133 CURVE SMOOTH",
"536 -133 OFFCURVE",
"493 -133 OFFCURVE",
"484 -133 CURVE SMOOTH",
"472 -133 LINE",
"386 -132 LINE",
"385 -132 OFFCURVE",
"381 -133 OFFCURVE",
"379 -133 CURVE SMOOTH",
"379 -133 OFFCURVE",
"379 -133 OFFCURVE",
"379 -133 CURVE",
"379 -133 OFFCURVE",
"378 -133 OFFCURVE",
"378 -133 CURVE",
"377 -133 OFFCURVE",
"375 -132 OFFCURVE",
"374 -132 CURVE SMOOTH",
"370 -132 OFFCURVE",
"355 -132 OFFCURVE",
"352 -132 CURVE SMOOTH",
"346 -132 OFFCURVE",
"330 -132 OFFCURVE",
"329 -132 CURVE SMOOTH",
"327 -132 OFFCURVE",
"302 -133 OFFCURVE",
"300 -133 CURVE SMOOTH",
"293 -133 OFFCURVE",
"261 -133 OFFCURVE",
"254 -133 CURVE SMOOTH",
"247 -133 LINE",
"166 -132 LINE",
"161 -134 OFFCURVE",
"152 -133 OFFCURVE",
"147 -133 CURVE SMOOTH",
"143 -133 OFFCURVE",
"134 -133 OFFCURVE",
"134 -133 CURVE",
"132 -133 OFFCURVE",
"122 -132 OFFCURVE",
"120 -132 CURVE SMOOTH",
"120 -132 OFFCURVE",
"114 -133 OFFCURVE",
"114 -133 CURVE",
"114 -133 OFFCURVE",
"113 -133 OFFCURVE",
"113 -133 CURVE",
"113 -133 OFFCURVE",
"112 -133 OFFCURVE",
"112 -133 CURVE",
"109 -133 OFFCURVE",
"82 -132 OFFCURVE",
"78 -132 CURVE SMOOTH",
"77 -132 OFFCURVE",
"69 -132 OFFCURVE",
"68 -132 CURVE SMOOTH",
"66 -132 OFFCURVE",
"60 -131 OFFCURVE",
"58 -131 CURVE SMOOTH",
"58 -131 OFFCURVE",
"56 -129 OFFCURVE",
"56 -129 CURVE",
"56 -128 OFFCURVE",
"54 -123 OFFCURVE",
"54 -121 CURVE SMOOTH",
"54 -120 OFFCURVE",
"53 -116 OFFCURVE",
"53 -116 CURVE",
"52 -115 OFFCURVE",
"47 -114 OFFCURVE",
"46 -114 CURVE",
"46 -158 LINE",
"46 -158 OFFCURVE",
"48 -160 OFFCURVE",
"49 -160 CURVE SMOOTH",
"49 -160 OFFCURVE",
"49 -160 OFFCURVE",
"50 -160 CURVE SMOOTH",
"51 -160 OFFCURVE",
"53 -160 OFFCURVE",
"53 -159 CURVE",
"53 -145 LINE",
"58 -141 LINE",
"59 -141 OFFCURVE",
"69 -140 OFFCURVE",
"73 -140 CURVE SMOOTH",
"76 -140 OFFCURVE",
"105 -143 OFFCURVE",
"108 -143 CURVE SMOOTH",
"114 -143 OFFCURVE",
"165 -141 OFFCURVE",
"172 -141 CURVE SMOOTH",
"198 -141 OFFCURVE",
"322 -142 OFFCURVE",
"348 -142 CURVE SMOOTH",
"358 -142 LINE",
"495 -142 LINE",
"511 -142 LINE",
"668 -141 LINE SMOOTH"
);
},
{
closed = 1;
nodes = (
"313 -107 OFFCURVE",
"314 -114 OFFCURVE",
"325 -121 CURVE SMOOTH",
"327 -122 OFFCURVE",
"331 -124 OFFCURVE",
"331 -124 CURVE",
"331 -124 OFFCURVE",
"335 -124 OFFCURVE",
"336 -124 CURVE SMOOTH",
"341 -124 OFFCURVE",
"343 -125 OFFCURVE",
"347 -123 CURVE SMOOTH",
"355 -118 OFFCURVE",
"363 -107 OFFCURVE",
"363 -98 CURVE SMOOTH",
"363 -98 OFFCURVE",
"363 -96 OFFCURVE",
"363 -96 CURVE",
"361 -85 OFFCURVE",
"356 -78 OFFCURVE",
"344 -78 CURVE SMOOTH",
"342 -78 OFFCURVE",
"337 -78 OFFCURVE",
"337 -78 CURVE",
"337 -78 OFFCURVE",
"334 -79 OFFCURVE",
"333 -79 CURVE SMOOTH",
"331 -81 OFFCURVE",
"329 -83 OFFCURVE",
"325 -83 CURVE",
"325 -71 OFFCURVE",
"349 -62 OFFCURVE",
"349 -49 CURVE",
"346 -49 OFFCURVE",
"341 -50 OFFCURVE",
"339 -52 CURVE SMOOTH",
"337 -54 OFFCURVE",
"326 -65 OFFCURVE",
"324 -67 CURVE SMOOTH",
"317 -75 OFFCURVE",
"313 -84 OFFCURVE",
"313 -95 CURVE SMOOTH"
);
},
{
closed = 1;
nodes = (
"436 -102 OFFCURVE",
"435 -104 OFFCURVE",
"437 -105 CURVE SMOOTH",
"445 -108 OFFCURVE",
"452 -105 OFFCURVE",
"459 -108 CURVE SMOOTH",
"464 -110 OFFCURVE",
"458 -120 OFFCURVE",
"466 -120 CURVE SMOOTH",
"467 -120 OFFCURVE",
"468 -120 OFFCURVE",
"468 -118 CURVE SMOOTH",
"468 -118 OFFCURVE",
"469 -111 OFFCURVE",
"470 -110 CURVE SMOOTH",
"472 -106 OFFCURVE",
"480 -104 OFFCURVE",
"480 -99 CURVE SMOOTH",
"480 -95 OFFCURVE",
"478 -96 OFFCURVE",
"475 -94 CURVE",
"474 -94 OFFCURVE",
"470 -91 OFFCURVE",
"470 -90 CURVE",
"470 -67 LINE",
"470 -67 OFFCURVE",
"469 -65 OFFCURVE",
"468 -65 CURVE",
"468 -64 OFFCURVE",
"467 -63 OFFCURVE",
"467 -63 CURVE",
"461 -63 OFFCURVE",
"457 -69 OFFCURVE",
"455 -73 CURVE",
"454 -73 OFFCURVE",
"450 -79 OFFCURVE",
"449 -79 CURVE",
"449 -81 OFFCURVE",
"443 -89 OFFCURVE",
"443 -90 CURVE SMOOTH",
"442 -91 OFFCURVE",
"437 -98 OFFCURVE",
"436 -98 CURVE SMOOTH",
"436 -98 OFFCURVE",
"436 -100 OFFCURVE",
"436 -101 CURVE"
);
},
{
closed = 1;
nodes = (
"405 -119 LINE",
"412 -119 OFFCURVE",
"412 -116 OFFCURVE",
"416 -110 CURVE SMOOTH",
"418 -106 OFFCURVE",
"421 -101 OFFCURVE",
"424 -97 CURVE SMOOTH",
"427 -91 OFFCURVE",
"429 -84 OFFCURVE",
"433 -78 CURVE",
"433 -77 OFFCURVE",
"436 -75 OFFCURVE",
"436 -74 CURVE SMOOTH",
"437 -71 OFFCURVE",
"443 -59 OFFCURVE",
"444 -56 CURVE",
"444 -56 OFFCURVE",
"444 -54 OFFCURVE",
"444 -54 CURVE",
"444 -52 OFFCURVE",
"443 -51 OFFCURVE",
"441 -51 CURVE SMOOTH",
"436 -51 OFFCURVE",
"437 -55 OFFCURVE",
"435 -58 CURVE",
"435 -58 OFFCURVE",
"432 -60 OFFCURVE",
"432 -60 CURVE",
"429 -66 OFFCURVE",
"427 -73 OFFCURVE",
"425 -78 CURVE SMOOTH",
"423 -83 OFFCURVE",
"420 -85 OFFCURVE",
"418 -90 CURVE",
"418 -91 OFFCURVE",
"417 -95 OFFCURVE",
"417 -96 CURVE",
"405 -113 LINE"
);
},
{
closed = 1;
nodes = (
"324 -102 OFFCURVE",
"325 -98 OFFCURVE",
"325 -97 CURVE SMOOTH",
"326 -96 OFFCURVE",
"332 -89 OFFCURVE",
"333 -89 CURVE SMOOTH",
"333 -89 OFFCURVE",
"337 -87 OFFCURVE",
"339 -87 CURVE SMOOTH",
"339 -87 OFFCURVE",
"339 -87 OFFCURVE",
"339 -87 CURVE",
"347 -87 OFFCURVE",
"354 -90 OFFCURVE",
"354 -98 CURVE SMOOTH",
"354 -106 OFFCURVE",
"346 -116 OFFCURVE",
"339 -116 CURVE SMOOTH",
"331 -116 OFFCURVE",
"325 -109 OFFCURVE",
"324 -102 CURVE"
);
},
{
closed = 1;
nodes = (
"382 -91 OFFCURVE",
"382 -91 OFFCURVE",
"382 -91 CURVE",
"385 -96 OFFCURVE",
"387 -97 OFFCURVE",
"393 -97 CURVE SMOOTH",
"405 -97 OFFCURVE",
"412 -92 OFFCURVE",
"412 -79 CURVE SMOOTH",
"412 -75 OFFCURVE",
"409 -71 OFFCURVE",
"409 -67 CURVE SMOOTH",
"409 -64 OFFCURVE",
"410 -61 OFFCURVE",
"410 -58 CURVE SMOOTH",
"410 -51 OFFCURVE",
"401 -47 OFFCURVE",
"395 -47 CURVE SMOOTH",
"389 -47 OFFCURVE",
"382 -51 OFFCURVE",
"381 -58 CURVE",
"381 -58 OFFCURVE",
"381 -60 OFFCURVE",
"382 -60 CURVE SMOOTH",
"382 -60 OFFCURVE",
"383 -60 OFFCURVE",
"383 -60 CURVE",
"387 -60 OFFCURVE",
"391 -58 OFFCURVE",
"395 -58 CURVE SMOOTH",
"397 -58 OFFCURVE",
"399 -58 OFFCURVE",
"399 -60 CURVE SMOOTH",
"399 -60 OFFCURVE",
"399 -62 OFFCURVE",
"399 -62 CURVE",
"399 -62 OFFCURVE",
"395 -67 OFFCURVE",
"394 -67 CURVE SMOOTH",
"393 -68 OFFCURVE",
"389 -69 OFFCURVE",
"389 -70 CURVE SMOOTH",
"389 -70 OFFCURVE",
"389 -72 OFFCURVE",
"389 -73 CURVE SMOOTH",
"389 -82 OFFCURVE",
"399 -73 OFFCURVE",
"402 -81 CURVE",
"402 -81 OFFCURVE",
"402 -81 OFFCURVE",
"402 -82 CURVE SMOOTH",
"402 -83 OFFCURVE",
"402 -86 OFFCURVE",
"401 -86 CURVE",
"385 -86 LINE SMOOTH",
"383 -86 OFFCURVE",
"382 -90 OFFCURVE",
"382 -91 CURVE"
);
},
{
closed = 1;
nodes = (
"451 -92 OFFCURVE",
"458 -81 OFFCURVE",
"459 -81 CURVE SMOOTH",
"462 -81 OFFCURVE",
"462 -84 OFFCURVE",
"462 -85 CURVE SMOOTH",
"462 -85 OFFCURVE",
"462 -88 OFFCURVE",
"462 -89 CURVE SMOOTH",
"462 -90 OFFCURVE",
"462 -94 OFFCURVE",
"462 -94 CURVE",
"460 -96 OFFCURVE",
"458 -97 OFFCURVE",
"456 -97 CURVE SMOOTH",
"453 -97 OFFCURVE",
"451 -97 OFFCURVE",
"451 -94 CURVE SMOOTH"
);
},
{
closed = 1;
nodes = (
"660 170 OFFCURVE",
"659 165 OFFCURVE",
"662 165 CURVE SMOOTH",
"669 165 OFFCURVE",
"676 182 OFFCURVE",
"679 188 CURVE SMOOTH",
"684 199 OFFCURVE",
"690 209 OFFCURVE",
"694 222 CURVE",
"694 222 OFFCURVE",
"695 226 OFFCURVE",
"695 227 CURVE SMOOTH",
"706 259 OFFCURVE",
"712 293 OFFCURVE",
"712 327 CURVE SMOOTH",
"712 356 OFFCURVE",
"710 385 OFFCURVE",
"704 413 CURVE SMOOTH",
"704 415 OFFCURVE",
"702 423 OFFCURVE",
"702 424 CURVE SMOOTH",
"701 427 OFFCURVE",
"697 431 OFFCURVE",
"698 435 CURVE",
"691 453 OFFCURVE",
"684 470 OFFCURVE",
"677 487 CURVE SMOOTH",
"675 493 OFFCURVE",
"668 508 OFFCURVE",
"661 508 CURVE SMOOTH",
"658 508 OFFCURVE",
"658 506 OFFCURVE",
"658 504 CURVE SMOOTH",
"658 494 OFFCURVE",
"668 483 OFFCURVE",
"672 474 CURVE SMOOTH",
"676 465 OFFCURVE",
"680 454 OFFCURVE",
"684 444 CURVE SMOOTH",
"685 443 OFFCURVE",
"687 438 OFFCURVE",
"687 438 CURVE",
"698 402 OFFCURVE",
"703 365 OFFCURVE",
"703 328 CURVE SMOOTH",
"703 307 OFFCURVE",
"700 286 OFFCURVE",
"695 265 CURVE",
"695 264 OFFCURVE",
"694 261 OFFCURVE",
"694 261 CURVE",
"694 261 OFFCURVE",
"694 258 OFFCURVE",
"694 258 CURVE",
"692 251 OFFCURVE",
"690 247 OFFCURVE",
"688 240 CURVE SMOOTH",
"687 238 OFFCURVE",
"681 218 OFFCURVE",
"680 216 CURVE SMOOTH",
"679 214 OFFCURVE",
"671 195 OFFCURVE",
"668 189 CURVE SMOOTH",
"665 184 OFFCURVE",
"660 177 OFFCURVE",
"660 171 CURVE"
);
}
);
userData = {
com.typemytype.robofont.mark = (
0.939,
1,
0.6,
1
);
};
width = 733;
}
);
leftKerningGroup = O;
rightKerningGroup = O;
},
{
glyphname = G.ss02;
lastChange = "2020-03-17 07:33:44 +0000";
layers = (
{
anchors = (
{
name = _measure;
position = "{0, 0}";
}
);
layerId = master01;
paths = (
{
closed = 1;
nodes = (
"51 -162 LINE",
"51 -163 OFFCURVE",
"53 -170 OFFCURVE",
"54 -173 CURVE",
"54 -174 OFFCURVE",
"55 -174 OFFCURVE",
"56 -174 CURVE SMOOTH",
"61 -174 OFFCURVE",
"62 -169 OFFCURVE",
"62 -166 CURVE SMOOTH",
"62 -164 OFFCURVE",
"62 -153 OFFCURVE",
"62 -150 CURVE SMOOTH",
"62 -150 OFFCURVE",
"63 -149 OFFCURVE",
"63 -149 CURVE",
"65 -148 OFFCURVE",
"70 -147 OFFCURVE",
"71 -147 CURVE SMOOTH",
"79 -147 OFFCURVE",
"112 -147 OFFCURVE",
"120 -147 CURVE SMOOTH",
"121 -147 OFFCURVE",
"129 -146 OFFCURVE",
"131 -146 CURVE SMOOTH",
"131 -146 OFFCURVE",
"131 -146 OFFCURVE",
"131 -146 CURVE",
"226 -146 OFFCURVE",
"321 -147 OFFCURVE",
"415 -147 CURVE SMOOTH",
"435 -147 OFFCURVE",
"525 -147 OFFCURVE",
"543 -147 CURVE SMOOTH",
"547 -147 OFFCURVE",
"564 -146 OFFCURVE",
"568 -146 CURVE SMOOTH",
"568 -146 OFFCURVE",
"570 -146 OFFCURVE",
"572 -146 CURVE SMOOTH",
"572 -146 OFFCURVE",
"576 -146 OFFCURVE",
"576 -146 CURVE",
"579 -146 OFFCURVE",
"609 -147 OFFCURVE",
"612 -147 CURVE SMOOTH",
"614 -147 OFFCURVE",
"620 -148 OFFCURVE",
"620 -151 CURVE SMOOTH",
"620 -169 LINE",
"620 -170 OFFCURVE",
"624 -174 OFFCURVE",
"625 -174 CURVE SMOOTH",
"628 -174 OFFCURVE",
"630 -170 OFFCURVE",
"630 -168 CURVE SMOOTH",
"630 -166 OFFCURVE",
"630 -155 OFFCURVE",
"630 -153 CURVE SMOOTH",
"630 -149 OFFCURVE",
"630 -139 OFFCURVE",
"630 -138 CURVE SMOOTH",
"630 -134 OFFCURVE",
"628 -115 OFFCURVE",
"628 -111 CURVE SMOOTH",
"628 -109 OFFCURVE",
"627 -107 OFFCURVE",
"624 -107 CURVE SMOOTH",
"620 -107 OFFCURVE",
"619 -110 OFFCURVE",
"619 -114 CURVE SMOOTH",
"619 -116 OFFCURVE",
"619 -130 OFFCURVE",
"619 -133 CURVE",
"618 -134 OFFCURVE",
"616 -135 OFFCURVE",
"615 -135 CURVE SMOOTH",
"610 -135 OFFCURVE",
"589 -136 OFFCURVE",
"584 -137 CURVE",
"583 -137 OFFCURVE",
"579 -138 OFFCURVE",
"578 -138 CURVE SMOOTH",
"578 -138 OFFCURVE",
"578 -138 OFFCURVE",
"578 -138 CURVE",
"575 -138 OFFCURVE",
"574 -137 OFFCURVE",
"571 -137 CURVE SMOOTH",
"568 -137 OFFCURVE",
"566 -138 OFFCURVE",
"564 -138 CURVE SMOOTH",
"564 -138 OFFCURVE",
"564 -138 OFFCURVE",
"564 -138 CURVE",
"564 -138 OFFCURVE",
"561 -137 OFFCURVE",
"561 -137 CURVE",
"560 -137 OFFCURVE",
"554 -137 OFFCURVE",
"553 -137 CURVE SMOOTH",
"552 -137 OFFCURVE",
"541 -135 OFFCURVE",
"539 -135 CURVE SMOOTH",
"537 -135 OFFCURVE",
"518 -137 OFFCURVE",
"516 -137 CURVE SMOOTH",
"516 -137 OFFCURVE",
"506 -137 OFFCURVE",
"502 -137 CURVE SMOOTH",
"498 -137 OFFCURVE",
"485 -137 OFFCURVE",
"484 -137 CURVE SMOOTH",
"473 -137 OFFCURVE",
"422 -136 OFFCURVE",
"411 -136 CURVE SMOOTH",
"406 -136 LINE",
"65 -137 LINE",
"65 -137 OFFCURVE",
"63 -136 OFFCURVE",
"63 -135 CURVE SMOOTH",
"63 -135 OFFCURVE",
"62 -131 OFFCURVE",
"62 -130 CURVE SMOOTH",
"61 -124 OFFCURVE",
"64 -111 OFFCURVE",
"54 -111 CURVE SMOOTH",
"54 -111 OFFCURVE",
"54 -111 OFFCURVE",
"54 -111 CURVE",
"51 -116 LINE"
);
},
{
closed = 1;
nodes = (
"313 -108 OFFCURVE",
"325 -123 OFFCURVE",
"339 -123 CURVE SMOOTH",
"349 -123 OFFCURVE",
"358 -115 OFFCURVE",
"364 -108 CURVE",
"365 -108 OFFCURVE",
"367 -105 OFFCURVE",
"367 -104 CURVE SMOOTH",
"368 -100 OFFCURVE",
"368 -96 OFFCURVE",
"368 -92 CURVE SMOOTH",
"368 -83 OFFCURVE",
"360 -71 OFFCURVE",
"349 -69 CURVE SMOOTH",
"347 -69 OFFCURVE",
"337 -70 OFFCURVE",
"334 -70 CURVE",
"334 -66 OFFCURVE",
"336 -64 OFFCURVE",
"338 -61 CURVE SMOOTH",
"340 -59 OFFCURVE",
"348 -48 OFFCURVE",
"349 -46 CURVE",
"349 -46 OFFCURVE",
"349 -44 OFFCURVE",
"349 -44 CURVE",
"349 -41 OFFCURVE",
"349 -41 OFFCURVE",
"346 -41 CURVE SMOOTH",
"340 -41 OFFCURVE",
"336 -46 OFFCURVE",
"333 -50 CURVE SMOOTH",
"332 -51 OFFCURVE",
"330 -55 OFFCURVE",
"330 -56 CURVE SMOOTH",
"330 -57 OFFCURVE",
"323 -66 OFFCURVE",
"322 -68 CURVE SMOOTH",
"318 -76 OFFCURVE",
"315 -85 OFFCURVE",
"313 -93 CURVE",
"313 -93 OFFCURVE",
"313 -94 OFFCURVE",
"313 -94 CURVE"
);
},
{
closed = 1;
nodes = (
"325 -85 OFFCURVE",
"334 -81 OFFCURVE",
"342 -81 CURVE SMOOTH",
"349 -81 OFFCURVE",
"356 -87 OFFCURVE",
"356 -94 CURVE SMOOTH",
"356 -96 OFFCURVE",
"356 -100 OFFCURVE",
"355 -102 CURVE",
"354 -102 OFFCURVE",
"349 -107 OFFCURVE",
"348 -108 CURVE SMOOTH",
"346 -110 OFFCURVE",
"343 -110 OFFCURVE",
"341 -110 CURVE SMOOTH",
"340 -110 OFFCURVE",
"338 -110 OFFCURVE",
"338 -110 CURVE",
"336 -109 OFFCURVE",
"330 -105 OFFCURVE",
"329 -104 CURVE",
"328 -104 OFFCURVE",
"326 -98 OFFCURVE",
"325 -96 CURVE",
"325 -96 OFFCURVE",
"325 -95 OFFCURVE",
"325 -94 CURVE"
);
}
);
userData = {
com.typemytype.robofont.mark = (
0.939,
1,
0.6,
1
);
};
width = 686;
}
);
leftKerningGroup = O;
},
{
glyphname = H;
lastChange = "2020-03-17 07:23:01 +0000";
layers = (
{
anchors = (
{
name = bottom;
position = "{323, 0}";
},
{
name = center;
position = "{323, 330}";
},
{
name = measure;
position = "{0, 0}";
},
{
name = top;
position = "{323, 660}";
},
{
name = topleft;
position = "{20, 660}";
}
);
layerId = master01;
paths = (
{
closed = 1;
nodes = (
"461 2 OFFCURVE",
"488 0 OFFCURVE",
"494 0 CURVE SMOOTH",
"495 0 OFFCURVE",
"515 0 OFFCURVE",
"521 0 CURVE SMOOTH",
"525 0 OFFCURVE",
"545 0 OFFCURVE",
"549 0 CURVE SMOOTH",
"550 0 OFFCURVE",
"557 2 OFFCURVE",
"558 2 CURVE SMOOTH",
"560 2 OFFCURVE",
"564 2 OFFCURVE",
"564 6 CURVE SMOOTH",
"564 247 LINE",
"566 286 LINE",
"566 504 LINE",
"566 510 LINE",
"566 612 LINE",
"566 613 OFFCURVE",
"568 621 OFFCURVE",
"568 622 CURVE SMOOTH",
"568 622 OFFCURVE",
"568 623 OFFCURVE",
"568 623 CURVE",
"568 623 OFFCURVE",
"568 624 OFFCURVE",
"568 624 CURVE",
"568 626 OFFCURVE",
"566 643 OFFCURVE",
"566 645 CURVE SMOOTH",
"566 649 OFFCURVE",
"567 659 OFFCURVE",
"561 659 CURVE SMOOTH",
"453 659 LINE SMOOTH",
"450 659 OFFCURVE",
"446 656 OFFCURVE",
"445 653 CURVE",
"446 645 OFFCURVE",
"446 603 OFFCURVE",
"446 594 CURVE SMOOTH",
"446 590 OFFCURVE",
"446 521 OFFCURVE",
"446 496 CURVE SMOOTH",
"446 481 OFFCURVE",
"446 412 OFFCURVE",
"446 397 CURVE",
"447 394 OFFCURVE",
"441 393 OFFCURVE",
"440 393 CURVE SMOOTH",
"438 393 OFFCURVE",
"432 392 OFFCURVE",
"430 392 CURVE SMOOTH",
"426 392 OFFCURVE",
"407 392 OFFCURVE",
"403 392 CURVE SMOOTH",
"336 392 OFFCURVE",
"271 394 OFFCURVE",
"205 393 CURVE",
"202 392 OFFCURVE",
"199 395 OFFCURVE",
"200 398 CURVE",
"200 411 OFFCURVE",
"200 467 OFFCURVE",
"200 479 CURVE SMOOTH",
"200 500 OFFCURVE",
"200 556 OFFCURVE",
"200 559 CURVE SMOOTH",
"200 564 OFFCURVE",
"201 606 OFFCURVE",
"201 612 CURVE SMOOTH",
"201 612 OFFCURVE",
"201 620 OFFCURVE",
"201 622 CURVE SMOOTH",
"201 634 OFFCURVE",
"199 644 OFFCURVE",
"200 656 CURVE",
"198 658 OFFCURVE",
"196 660 OFFCURVE",
"193 660 CURVE SMOOTH",
"102 660 LINE SMOOTH",
"99 660 OFFCURVE",
"97 659 OFFCURVE",
"94 659 CURVE SMOOTH",
"94 659 OFFCURVE",
"93 659 OFFCURVE",
"93 659 CURVE",
"92 659 OFFCURVE",
"88 660 OFFCURVE",
"88 660 CURVE",
"87 660 OFFCURVE",
"83 660 OFFCURVE",
"82 659 CURVE",
"82 658 OFFCURVE",
"80 657 OFFCURVE",
"80 656 CURVE",
"80 512 LINE",
"79 479 OFFCURVE",
"78 326 OFFCURVE",
"78 293 CURVE SMOOTH",
"78 281 OFFCURVE",
"80 184 OFFCURVE",
"80 172 CURVE SMOOTH",
"80 148 OFFCURVE",
"80 39 OFFCURVE",
"80 15 CURVE SMOOTH",
"80 14 OFFCURVE",
"81 10 OFFCURVE",
"81 10 CURVE",
"81 8 OFFCURVE",
"80 6 OFFCURVE",
"82 4 CURVE",
"83 4 OFFCURVE",
"88 3 OFFCURVE",
"89 3 CURVE SMOOTH",
"97 3 OFFCURVE",
"135 2 OFFCURVE",
"143 2 CURVE SMOOTH",
"143 2 OFFCURVE",
"144 2 OFFCURVE",
"144 2 CURVE",
"144 2 OFFCURVE",
"144 2 OFFCURVE",
"144 2 CURVE",
"156 2 OFFCURVE",
"185 3 OFFCURVE",
"186 3 CURVE SMOOTH",
"190 3 OFFCURVE",
"196 3 OFFCURVE",
"197 8 CURVE SMOOTH",
"198 11 OFFCURVE",
"198 22 OFFCURVE",
"198 25 CURVE SMOOTH",
"198 25 OFFCURVE",
"198 37 OFFCURVE",
"198 42 CURVE SMOOTH",
"198 71 OFFCURVE",
"197 99 OFFCURVE",
"197 128 CURVE SMOOTH",
"197 134 OFFCURVE",
"197 149 OFFCURVE",
"197 150 CURVE SMOOTH",
"197 154 OFFCURVE",
"198 187 OFFCURVE",
"198 191 CURVE SMOOTH",
"198 197 OFFCURVE",
"198 253 OFFCURVE",
"198 259 CURVE SMOOTH",
"198 261 OFFCURVE",
"200 276 OFFCURVE",
"200 278 CURVE SMOOTH",
"200 279 OFFCURVE",
"200 284 OFFCURVE",
"200 285 CURVE SMOOTH",
"200 285 OFFCURVE",
"200 286 OFFCURVE",
"201 286 CURVE SMOOTH",
"202 287 OFFCURVE",
"208 288 OFFCURVE",
"209 288 CURVE",
"445 288 LINE",
"445 288 OFFCURVE",
"446 287 OFFCURVE",
"446 286 CURVE SMOOTH",
"446 286 OFFCURVE",
"448 283 OFFCURVE",
"448 282 CURVE SMOOTH",
"448 271 OFFCURVE",
"448 216 OFFCURVE",
"448 204 CURVE SMOOTH",
"448 202 OFFCURVE",
"449 189 OFFCURVE",
"449 187 CURVE SMOOTH",
"449 182 OFFCURVE",
"448 149 OFFCURVE",
"448 145 CURVE SMOOTH",
"448 145 OFFCURVE",
"448 141 OFFCURVE",
"448 141 CURVE",
"448 139 OFFCURVE",
"448 137 OFFCURVE",
"448 137 CURVE",
"448 135 OFFCURVE",
"449 121 OFFCURVE",
"449 119 CURVE SMOOTH",
"449 113 OFFCURVE",
"449 64 OFFCURVE",
"449 58 CURVE SMOOTH",
"449 50 OFFCURVE",
"450 14 OFFCURVE",
"450 6 CURVE",
"452 4 OFFCURVE",
"454 2 OFFCURVE",
"456 2 CURVE SMOOTH"
);
}
);
width = 646;
}
);
unicode = 0048;
},
{
glyphname = H.ss02;
lastChange = "2020-03-17 07:25:20 +0000";
layers = (
{
anchors = (
{
name = _measure;
position = "{0, 0}";
}
);
layerId = master01;
paths = (
{
closed = 1;
nodes = (
"82 -109 OFFCURVE",
"80 -114 OFFCURVE",
"80 -116 CURVE SMOOTH",
"80 -156 LINE SMOOTH",
"80 -159 OFFCURVE",
"82 -163 OFFCURVE",
"85 -163 CURVE SMOOTH",
"85 -163 OFFCURVE",
"86 -162 OFFCURVE",
"86 -162 CURVE",
"90 -156 OFFCURVE",
"90 -150 OFFCURVE",
"89 -144 CURVE",
"89 -143 OFFCURVE",
"91 -141 OFFCURVE",
"92 -141 CURVE SMOOTH",
"92 -141 OFFCURVE",
"93 -141 OFFCURVE",
"93 -141 CURVE",
"96 -141 OFFCURVE",
"109 -140 OFFCURVE",
"112 -140 CURVE SMOOTH",
"124 -140 OFFCURVE",
"179 -141 OFFCURVE",
"191 -141 CURVE SMOOTH",
"215 -141 OFFCURVE",
"327 -141 OFFCURVE",
"351 -141 CURVE SMOOTH",
"352 -141 OFFCURVE",
"357 -143 OFFCURVE",
"359 -143 CURVE SMOOTH",
"359 -143 OFFCURVE",
"359 -143 OFFCURVE",
"359 -143 CURVE",
"359 -143 OFFCURVE",
"360 -143 OFFCURVE",
"360 -143 CURVE",
"363 -143 OFFCURVE",
"388 -141 OFFCURVE",
"391 -141 CURVE SMOOTH",
"393 -141 OFFCURVE",
"430 -141 OFFCURVE",
"444 -141 CURVE SMOOTH",
"458 -141 OFFCURVE",
"496 -141 OFFCURVE",
"499 -141 CURVE SMOOTH",
"507 -141 OFFCURVE",
"546 -143 OFFCURVE",
"554 -143 CURVE",
"558 -147 OFFCURVE",
"553 -156 OFFCURVE",
"560 -160 CURVE",
"560 -160 OFFCURVE",
"560 -160 OFFCURVE",
"560 -160 CURVE",
"560 -160 OFFCURVE",
"561 -160 OFFCURVE",
"561 -160 CURVE",
"562 -160 OFFCURVE",
"564 -158 OFFCURVE",
"564 -158 CURVE",
"564 -157 OFFCURVE",
"565 -151 OFFCURVE",
"565 -150 CURVE SMOOTH",
"565 -149 OFFCURVE",
"565 -137 OFFCURVE",
"565 -133 CURVE SMOOTH",
"565 -129 OFFCURVE",
"565 -118 OFFCURVE",
"565 -117 CURVE SMOOTH",
"565 -116 OFFCURVE",
"564 -111 OFFCURVE",
"564 -110 CURVE SMOOTH",
"564 -110 OFFCURVE",
"562 -108 OFFCURVE",
"561 -108 CURVE SMOOTH",
"561 -108 OFFCURVE",
"560 -108 OFFCURVE",
"560 -108 CURVE",
"560 -108 OFFCURVE",
"560 -108 OFFCURVE",
"560 -108 CURVE",
"553 -112 OFFCURVE",
"559 -132 OFFCURVE",
"552 -132 CURVE SMOOTH",
"231 -132 LINE",
"226 -131 OFFCURVE",
"202 -131 OFFCURVE",
"197 -131 CURVE SMOOTH",
"193 -131 OFFCURVE",
"164 -132 OFFCURVE",
"160 -132 CURVE SMOOTH",
"159 -132 OFFCURVE",
"144 -132 OFFCURVE",
"140 -132 CURVE SMOOTH",
"134 -132 OFFCURVE",
"119 -132 OFFCURVE",
"119 -132 CURVE",
"115 -132 OFFCURVE",
"96 -131 OFFCURVE",
"92 -131 CURVE",
"86 -128 OFFCURVE",
"90 -109 OFFCURVE",
"84 -109 CURVE SMOOTH"
);
},
{
closed = 1;
nodes = (
"299 -113 OFFCURVE",
"308 -117 OFFCURVE",
"314 -118 CURVE SMOOTH",
"316 -119 OFFCURVE",
"322 -120 OFFCURVE",
"324 -120 CURVE SMOOTH",
"329 -120 OFFCURVE",
"341 -112 OFFCURVE",
"343 -106 CURVE",
"343 -105 OFFCURVE",
"345 -99 OFFCURVE",
"345 -98 CURVE SMOOTH",
"345 -98 OFFCURVE",
"345 -94 OFFCURVE",
"345 -93 CURVE SMOOTH",
"345 -91 OFFCURVE",
"346 -85 OFFCURVE",
"344 -83 CURVE",
"343 -83 OFFCURVE",
"338 -77 OFFCURVE",
"336 -75 CURVE",
"335 -75 OFFCURVE",
"332 -73 OFFCURVE",
"332 -73 CURVE",
"316 -73 LINE",
"316 -71 OFFCURVE",
"314 -67 OFFCURVE",
"314 -66 CURVE SMOOTH",
"314 -66 OFFCURVE",
"317 -64 OFFCURVE",
"318 -63 CURVE SMOOTH",
"320 -62 OFFCURVE",
"326 -60 OFFCURVE",
"326 -60 CURVE",
"328 -60 OFFCURVE",
"336 -60 OFFCURVE",
"338 -60 CURVE SMOOTH",
"338 -60 OFFCURVE",
"340 -57 OFFCURVE",
"340 -56 CURVE SMOOTH",
"340 -56 OFFCURVE",
"340 -56 OFFCURVE",
"340 -56 CURVE",
"340 -55 OFFCURVE",
"340 -54 OFFCURVE",
"338 -54 CURVE",
"332 -51 OFFCURVE",
"324 -53 OFFCURVE",
"317 -52 CURVE",
"316 -52 OFFCURVE",
"312 -51 OFFCURVE",
"312 -51 CURVE",
"312 -51 OFFCURVE",
"310 -51 OFFCURVE",
"310 -51 CURVE",
"309 -51 OFFCURVE",
"309 -51 OFFCURVE",
"309 -51 CURVE",
"308 -51 OFFCURVE",
"304 -53 OFFCURVE",
"303 -54 CURVE",
"304 -64 OFFCURVE",
"303 -74 OFFCURVE",
"302 -83 CURVE",
"303 -86 LINE",
"303 -86 OFFCURVE",
"306 -86 OFFCURVE",
"307 -86 CURVE SMOOTH",
"312 -86 OFFCURVE",
"317 -85 OFFCURVE",
"322 -85 CURVE SMOOTH",
"330 -85 OFFCURVE",
"333 -89 OFFCURVE",
"333 -97 CURVE SMOOTH",
"333 -104 OFFCURVE",
"327 -108 OFFCURVE",
"321 -108 CURVE SMOOTH",
"318 -108 OFFCURVE",
"316 -108 OFFCURVE",
"313 -106 CURVE",
"312 -106 OFFCURVE",
"307 -102 OFFCURVE",
"306 -101 CURVE",
"306 -101 OFFCURVE",
"305 -101 OFFCURVE",
"305 -101 CURVE",
"302 -101 OFFCURVE",
"299 -102 OFFCURVE",
"299 -106 CURVE SMOOTH"
);
}
);
userData = {
com.typemytype.robofont.mark = (
0.939,
1,
0.6,
1
);
};
width = 646;
}
);
},
{
glyphname = I;
lastChange = "2020-03-17 07:23:06 +0000";
layers = (
{
anchors = (
{
name = bottom;
position = "{138, 0}";
},
{
name = measure;
position = "{0, 0}";
},
{
name = ogonek;
position = "{248, 10}";
},
{
name = top;
position = "{138, 660}";
},
{
name = topleft;
position = "{20, 660}";
}
);
layerId = master01;
paths = (
{
closed = 1;
nodes = (
"78 16 LINE",
"78 15 OFFCURVE",
"79 8 OFFCURVE",
"79 6 CURVE SMOOTH",
"79 6 OFFCURVE",
"81 2 OFFCURVE",
"82 2 CURVE",
"93 0 LINE",
"186 0 LINE",
"186 0 OFFCURVE",
"188 1 OFFCURVE",
"189 2 CURVE",
"189 2 OFFCURVE",
"192 5 OFFCURVE",
"193 6 CURVE",
"193 10 OFFCURVE",
"194 27 OFFCURVE",
"194 31 CURVE SMOOTH",
"194 31 OFFCURVE",
"194 33 OFFCURVE",
"194 35 CURVE SMOOTH",
"194 35 OFFCURVE",
"194 38 OFFCURVE",
"194 38 CURVE",
"194 43 OFFCURVE",
"193 88 OFFCURVE",
"193 93 CURVE SMOOTH",
"193 102 OFFCURVE",
"194 172 OFFCURVE",
"194 181 CURVE SMOOTH",
"194 200 OFFCURVE",
"194 286 OFFCURVE",
"194 305 CURVE",
"195 307 OFFCURVE",
"195 318 OFFCURVE",
"195 320 CURVE SMOOTH",
"195 321 OFFCURVE",
"194 329 OFFCURVE",
"194 330 CURVE SMOOTH",
"194 333 OFFCURVE",
"195 359 OFFCURVE",
"195 362 CURVE SMOOTH",
"195 377 OFFCURVE",
"195 497 OFFCURVE",
"195 512 CURVE SMOOTH",
"195 516 OFFCURVE",
"197 548 OFFCURVE",
"197 552 CURVE SMOOTH",
"197 554 OFFCURVE",
"197 576 OFFCURVE",
"197 584 CURVE SMOOTH",
"197 592 OFFCURVE",
"197 614 OFFCURVE",
"197 616 CURVE SMOOTH",
"197 621 OFFCURVE",
"195 645 OFFCURVE",
"195 651 CURVE SMOOTH",
"195 655 OFFCURVE",
"191 658 OFFCURVE",
"187 658 CURVE SMOOTH",
"83 658 LINE SMOOTH",
"81 658 OFFCURVE",
"77 653 OFFCURVE",
"77 651 CURVE SMOOTH",
"77 647 OFFCURVE",
"77 628 OFFCURVE",
"77 624 CURVE SMOOTH",
"77 618 OFFCURVE",
"77 599 OFFCURVE",
"77 598 CURVE SMOOTH",
"77 596 OFFCURVE",
"77 585 OFFCURVE",
"78 583 CURVE",
"78 405 LINE SMOOTH",
"78 401 OFFCURVE",
"77 381 OFFCURVE",
"77 377 CURVE SMOOTH",
"77 376 OFFCURVE",
"77 369 OFFCURVE",
"77 366 CURVE SMOOTH",
"77 363 OFFCURVE",
"77 356 OFFCURVE",
"77 355 CURVE SMOOTH",
"77 349 OFFCURVE",
"78 319 OFFCURVE",
"78 313 CURVE"
);
}
);
width = 276;
}
);
unicode = 0049;
},
{
glyphname = I.ss02;
lastChange = "2020-03-17 07:25:23 +0000";
layers = (
{
anchors = (
{
name = _measure;
position = "{0, 0}";
}
);
layerId = master01;
paths = (
{
closed = 1;
nodes = (
"183 -148 OFFCURVE",
"185 -160 OFFCURVE",
"185 -163 CURVE SMOOTH",
"185 -164 OFFCURVE",
"186 -166 OFFCURVE",
"186 -167 CURVE SMOOTH",
"186 -168 OFFCURVE",
"187 -168 OFFCURVE",
"187 -168 CURVE",
"187 -168 OFFCURVE",
"189 -168 OFFCURVE",
"190 -168 CURVE SMOOTH",
"191 -168 OFFCURVE",
"193 -168 OFFCURVE",
"193 -168 CURVE",
"193 -168 OFFCURVE",
"194 -166 OFFCURVE",
"194 -166 CURVE",
"194 -164 OFFCURVE",
"195 -156 OFFCURVE",
"195 -154 CURVE SMOOTH",
"195 -153 OFFCURVE",
"195 -145 OFFCURVE",
"195 -142 CURVE SMOOTH",
"195 -139 OFFCURVE",
"195 -131 OFFCURVE",
"195 -131 CURVE",
"195 -128 OFFCURVE",
"194 -116 OFFCURVE",
"194 -113 CURVE",
"193 -112 OFFCURVE",
"191 -110 OFFCURVE",
"190 -109 CURVE",
"190 -109 OFFCURVE",
"189 -109 OFFCURVE",
"189 -109 CURVE",
"187 -109 OFFCURVE",
"185 -114 OFFCURVE",
"185 -116 CURVE SMOOTH",
"185 -116 OFFCURVE",
"185 -125 OFFCURVE",
"185 -125 CURVE",
"185 -126 OFFCURVE",
"183 -130 OFFCURVE",
"183 -131 CURVE SMOOTH",
"183 -131 OFFCURVE",
"182 -132 OFFCURVE",
"182 -132 CURVE",
"174 -132 OFFCURVE",
"138 -132 OFFCURVE",
"131 -132 CURVE SMOOTH",
"129 -132 OFFCURVE",
"118 -133 OFFCURVE",
"117 -133 CURVE SMOOTH",
"117 -133 OFFCURVE",
"116 -133 OFFCURVE",
"116 -133 CURVE",
"116 -133 OFFCURVE",
"116 -133 OFFCURVE",
"116 -133 CURVE",
"114 -133 OFFCURVE",
"104 -132 OFFCURVE",
"102 -132 CURVE SMOOTH",
"101 -132 OFFCURVE",
"91 -132 OFFCURVE",
"90 -132 CURVE SMOOTH",
"89 -132 OFFCURVE",
"85 -131 OFFCURVE",
"85 -129 CURVE SMOOTH",
"85 -124 OFFCURVE",
"85 -114 OFFCURVE",
"78 -114 CURVE SMOOTH",
"74 -114 OFFCURVE",
"74 -116 OFFCURVE",
"74 -120 CURVE SMOOTH",
"74 -120 OFFCURVE",
"74 -121 OFFCURVE",
"74 -121 CURVE",
"74 -127 OFFCURVE",
"75 -154 OFFCURVE",
"75 -160 CURVE",
"76 -162 OFFCURVE",
"77 -164 OFFCURVE",
"79 -164 CURVE SMOOTH",
"79 -164 OFFCURVE",
"79 -164 OFFCURVE",
"79 -164 CURVE",
"81 -164 OFFCURVE",
"84 -160 OFFCURVE",
"84 -160 CURVE",
"84 -143 LINE",
"174 -143 LINE SMOOTH",
"176 -143 OFFCURVE",
"181 -143 OFFCURVE",
"183 -145 CURVE"
);
},
{
closed = 1;
nodes = (
"129 -71 OFFCURVE",
"131 -71 OFFCURVE",
"131 -73 CURVE SMOOTH",
"131 -113 LINE SMOOTH",
"131 -116 OFFCURVE",
"132 -118 OFFCURVE",
"135 -118 CURVE SMOOTH",
"139 -118 OFFCURVE",
"140 -110 OFFCURVE",
"140 -108 CURVE SMOOTH",
"141 -105 OFFCURVE",
"141 -95 OFFCURVE",
"141 -93 CURVE SMOOTH",
"141 -91 OFFCURVE",
"141 -73 OFFCURVE",
"141 -71 CURVE SMOOTH",
"141 -71 OFFCURVE",
"143 -64 OFFCURVE",
"143 -63 CURVE SMOOTH",
"143 -63 OFFCURVE",
"143 -60 OFFCURVE",
"143 -58 CURVE SMOOTH",
"143 -58 OFFCURVE",
"143 -54 OFFCURVE",
"143 -54 CURVE",
"142 -53 OFFCURVE",
"139 -51 OFFCURVE",
"139 -51 CURVE",
"136 -50 OFFCURVE",
"114 -71 OFFCURVE",
"114 -73 CURVE SMOOTH",
"114 -73 OFFCURVE",
"116 -76 OFFCURVE",
"117 -77 CURVE",
"117 -77 OFFCURVE",
"118 -77 OFFCURVE",
"118 -77 CURVE",
"123 -77 OFFCURVE",
"125 -71 OFFCURVE",
"129 -71 CURVE"
);
}
);
userData = {
com.typemytype.robofont.mark = (
0.939,
1,
0.6,
1
);
};
width = 276;
}
);
},
{
glyphname = J;
lastChange = "2020-03-17 07:33:52 +0000";
layers = (
{
anchors = (
{
name = bottom;
position = "{209, 0}";
},
{
name = measure;
position = "{0, 0}";
},
{
name = top;
position = "{209, 660}";
}
);
layerId = master01;
paths = (
{
closed = 1;
nodes = (
"20 100 OFFCURVE",
"23 89 OFFCURVE",
"27 77 CURVE SMOOTH",
"28 76 OFFCURVE",
"32 66 OFFCURVE",
"32 65 CURVE SMOOTH",
"32 64 OFFCURVE",
"34 60 OFFCURVE",
"34 60 CURVE",
"35 58 OFFCURVE",
"37 52 OFFCURVE",
"38 52 CURVE",
"52 30 OFFCURVE",
"66 16 OFFCURVE",
"88 3 CURVE SMOOTH",
"97 -2 OFFCURVE",
"105 -5 OFFCURVE",
"115 -8 CURVE",
"116 -8 OFFCURVE",
"130 -13 OFFCURVE",
"131 -13 CURVE SMOOTH",
"132 -13 OFFCURVE",
"140 -13 OFFCURVE",
"140 -13 CURVE",
"141 -13 OFFCURVE",
"146 -15 OFFCURVE",
"147 -15 CURVE SMOOTH",
"150 -15 OFFCURVE",
"156 -16 OFFCURVE",
"157 -16 CURVE SMOOTH",
"158 -16 OFFCURVE",
"170 -15 OFFCURVE",
"171 -15 CURVE SMOOTH",
"172 -15 OFFCURVE",
"176 -15 OFFCURVE",
"177 -15 CURVE SMOOTH",
"177 -15 OFFCURVE",
"180 -13 OFFCURVE",
"181 -13 CURVE SMOOTH",
"183 -13 OFFCURVE",
"199 -12 OFFCURVE",
"201 -12 CURVE SMOOTH",
"215 -10 OFFCURVE",
"226 -8 OFFCURVE",
"239 -4 CURVE SMOOTH",
"245 -2 OFFCURVE",
"250 3 OFFCURVE",
"256 6 CURVE",
"257 6 OFFCURVE",
"260 7 OFFCURVE",
"260 7 CURVE",
"261 7 OFFCURVE",
"265 10 OFFCURVE",
"266 11 CURVE SMOOTH",
"267 12 OFFCURVE",
"276 17 OFFCURVE",
"277 18 CURVE SMOOTH",
"289 28 OFFCURVE",
"301 40 OFFCURVE",
"310 53 CURVE",
"312 54 OFFCURVE",
"315 60 OFFCURVE",
"316 61 CURVE SMOOTH",
"331 89 OFFCURVE",
"337 117 OFFCURVE",
"339 149 CURVE SMOOTH",
"339 151 OFFCURVE",
"340 166 OFFCURVE",
"340 168 CURVE SMOOTH",
"340 170 OFFCURVE",
"339 184 OFFCURVE",
"339 187 CURVE SMOOTH",
"339 489 LINE SMOOTH",
"339 494 OFFCURVE",
"340 520 OFFCURVE",
"340 525 CURVE SMOOTH",
"340 531 OFFCURVE",
"340 575 OFFCURVE",
"340 581 CURVE SMOOTH",
"340 584 OFFCURVE",
"341 608 OFFCURVE",
"341 612 CURVE SMOOTH",
"341 612 OFFCURVE",
"341 626 OFFCURVE",
"341 631 CURVE SMOOTH",
"341 633 OFFCURVE",
"341 647 OFFCURVE",
"341 649 CURVE SMOOTH",
"341 652 OFFCURVE",
"340 658 OFFCURVE",
"336 658 CURVE SMOOTH",
"275 658 LINE",
"274 658 OFFCURVE",
"267 659 OFFCURVE",
"266 659 CURVE SMOOTH",
"264 659 OFFCURVE",
"251 658 OFFCURVE",
"250 658 CURVE SMOOTH",
"242 657 OFFCURVE",
"224 661 OFFCURVE",
"224 648 CURVE SMOOTH",
"224 647 OFFCURVE",
"224 644 OFFCURVE",
"224 644 CURVE",
"224 641 OFFCURVE",
"225 622 OFFCURVE",
"225 620 CURVE SMOOTH",
"225 614 OFFCURVE",
"225 566 OFFCURVE",
"225 560 CURVE SMOOTH",
"225 557 OFFCURVE",
"226 542 OFFCURVE",
"227 539 CURVE",
"227 162 LINE SMOOTH",
"227 158 OFFCURVE",
"226 141 OFFCURVE",
"225 137 CURVE SMOOTH",
"225 135 OFFCURVE",
"223 126 OFFCURVE",
"223 123 CURVE",
"222 121 OFFCURVE",
"220 114 OFFCURVE",
"220 114 CURVE",
"220 113 OFFCURVE",
"216 109 OFFCURVE",
"216 108 CURVE SMOOTH",
"216 108 OFFCURVE",
"215 105 OFFCURVE",
"215 104 CURVE SMOOTH",
"211 100 OFFCURVE",
"208 97 OFFCURVE",
"204 95 CURVE SMOOTH",
"200 92 OFFCURVE",
"188 86 OFFCURVE",
"188 85 CURVE",
"184 83 OFFCURVE",
"177 84 OFFCURVE",
"173 84 CURVE SMOOTH",
"170 84 OFFCURVE",
"163 84 OFFCURVE",
"163 84 CURVE",
"163 84 OFFCURVE",
"161 85 OFFCURVE",
"159 85 CURVE",
"147 90 OFFCURVE",
"137 96 OFFCURVE",
"130 107 CURVE SMOOTH",
"126 113 OFFCURVE",
"123 119 OFFCURVE",
"120 126 CURVE SMOOTH",
"119 129 OFFCURVE",
"119 137 OFFCURVE",
"116 139 CURVE",
"115 141 OFFCURVE",
"113 141 OFFCURVE",
"111 141 CURVE SMOOTH",
"111 141 OFFCURVE",
"109 141 OFFCURVE",
"109 141 CURVE",
"73 133 LINE",
"70 130 OFFCURVE",
"68 132 OFFCURVE",
"65 131 CURVE SMOOTH",
"63 131 OFFCURVE",
"45 128 OFFCURVE",
"43 127 CURVE SMOOTH",
"39 126 OFFCURVE",
"28 124 OFFCURVE",
"24 122 CURVE",
"24 121 OFFCURVE",
"21 118 OFFCURVE",
"20 118 CURVE",
"20 117 OFFCURVE",
"20 113 OFFCURVE",
"20 112 CURVE"
);
}
);
width = 418;
}
);
leftKerningGroup = J;
unicode = 004A;
},
{
glyphname = J.ss02;
lastChange = "2020-03-17 07:33:52 +0000";
layers = (
{
anchors = (
{
name = _measure;
position = "{0, 0}";
}
);
layerId = master01;
paths = (
{
closed = 1;
nodes = (
"332 -146 OFFCURVE",
"322 -170 OFFCURVE",
"335 -170 CURVE SMOOTH",
"335 -170 OFFCURVE",
"336 -170 OFFCURVE",
"336 -170 CURVE",
"337 -170 OFFCURVE",
"337 -168 OFFCURVE",
"337 -167 CURVE SMOOTH",
"337 -164 OFFCURVE",
"339 -150 OFFCURVE",
"339 -147 CURVE SMOOTH",
"339 -146 OFFCURVE",
"339 -136 OFFCURVE",
"339 -132 CURVE SMOOTH",
"339 -130 OFFCURVE",
"339 -119 OFFCURVE",
"339 -117 CURVE SMOOTH",
"338 -114 OFFCURVE",
"336 -110 OFFCURVE",
"333 -110 CURVE SMOOTH",
"332 -110 OFFCURVE",
"331 -110 OFFCURVE",
"331 -110 CURVE",
"330 -111 OFFCURVE",
"328 -114 OFFCURVE",
"328 -116 CURVE SMOOTH",
"327 -118 OFFCURVE",
"327 -127 OFFCURVE",
"327 -129 CURVE SMOOTH",
"327 -130 OFFCURVE",
"326 -131 OFFCURVE",
"325 -131 CURVE SMOOTH",
"325 -131 OFFCURVE",
"318 -131 OFFCURVE",
"317 -131 CURVE SMOOTH",
"298 -131 OFFCURVE",
"277 -133 OFFCURVE",
"258 -133 CURVE SMOOTH",
"258 -133 OFFCURVE",
"256 -133 OFFCURVE",
"255 -133 CURVE SMOOTH",
"250 -133 OFFCURVE",
"246 -132 OFFCURVE",
"241 -132 CURVE SMOOTH",
"241 -132 OFFCURVE",
"240 -132 OFFCURVE",
"240 -132 CURVE",
"239 -132 OFFCURVE",
"225 -133 OFFCURVE",
"224 -133 CURVE SMOOTH",
"222 -133 OFFCURVE",
"203 -132 OFFCURVE",
"201 -132 CURVE SMOOTH",
"200 -132 OFFCURVE",
"194 -132 OFFCURVE",
"192 -132 CURVE SMOOTH",
"190 -132 OFFCURVE",
"184 -132 OFFCURVE",
"184 -132 CURVE",
"182 -132 OFFCURVE",
"173 -133 OFFCURVE",
"171 -133 CURVE SMOOTH",
"171 -133 OFFCURVE",
"168 -133 OFFCURVE",
"167 -132 CURVE",
"165 -132 OFFCURVE",
"153 -133 OFFCURVE",
"150 -133 CURVE SMOOTH",
"149 -133 OFFCURVE",
"142 -133 OFFCURVE",
"140 -133 CURVE SMOOTH",
"134 -133 OFFCURVE",
"129 -134 OFFCURVE",
"123 -132 CURVE",
"49 -132 LINE",
"48 -132 OFFCURVE",
"43 -131 OFFCURVE",
"42 -131 CURVE SMOOTH",
"42 -131 OFFCURVE",
"41 -129 OFFCURVE",
"41 -129 CURVE",
"41 -127 OFFCURVE",
"40 -116 OFFCURVE",
"39 -114 CURVE SMOOTH",
"39 -112 OFFCURVE",
"36 -109 OFFCURVE",
"34 -109 CURVE SMOOTH",
"30 -109 OFFCURVE",
"28 -114 OFFCURVE",
"28 -116 CURVE SMOOTH",
"28 -116 OFFCURVE",
"28 -118 OFFCURVE",
"28 -118 CURVE",
"28 -120 OFFCURVE",
"30 -129 OFFCURVE",
"30 -131 CURVE SMOOTH",
"30 -136 OFFCURVE",
"30 -160 OFFCURVE",
"30 -166 CURVE SMOOTH",
"30 -166 OFFCURVE",
"32 -168 OFFCURVE",
"32 -168 CURVE",
"32 -168 OFFCURVE",
"33 -168 OFFCURVE",
"34 -168 CURVE SMOOTH",
"37 -168 OFFCURVE",
"39 -166 OFFCURVE",
"39 -163 CURVE SMOOTH",
"39 -160 OFFCURVE",
"41 -147 OFFCURVE",
"41 -144 CURVE",
"42 -143 LINE",
"119 -143 LINE SMOOTH",
"121 -143 OFFCURVE",
"132 -141 OFFCURVE",
"134 -141 CURVE SMOOTH",
"134 -141 OFFCURVE",
"135 -141 OFFCURVE",
"136 -141 CURVE SMOOTH",
"155 -141 OFFCURVE",
"173 -143 OFFCURVE",
"192 -143 CURVE SMOOTH",
"198 -143 OFFCURVE",
"215 -143 OFFCURVE",
"216 -143 CURVE SMOOTH",
"218 -143 OFFCURVE",
"233 -141 OFFCURVE",
"235 -141 CURVE SMOOTH",
"238 -141 OFFCURVE",
"260 -143 OFFCURVE",
"263 -143 CURVE SMOOTH",
"273 -143 OFFCURVE",
"316 -143 OFFCURVE",
"325 -143 CURVE"
);
},
{
closed = 1;
nodes = (
"166 -112 OFFCURVE",
"180 -117 OFFCURVE",
"187 -117 CURVE SMOOTH",
"200 -117 OFFCURVE",
"212 -107 OFFCURVE",
"212 -94 CURVE SMOOTH",
"212 -84 OFFCURVE",
"204 -83 OFFCURVE",
"204 -77 CURVE SMOOTH",
"204 -73 OFFCURVE",
"206 -69 OFFCURVE",
"206 -64 CURVE SMOOTH",
"206 -55 OFFCURVE",
"195 -48 OFFCURVE",
"187 -48 CURVE SMOOTH",
"180 -48 OFFCURVE",
"167 -57 OFFCURVE",
"167 -65 CURVE SMOOTH",
"167 -65 OFFCURVE",
"168 -68 OFFCURVE",
"169 -69 CURVE",
"178 -67 OFFCURVE",
"180 -60 OFFCURVE",
"189 -60 CURVE SMOOTH",
"190 -60 OFFCURVE",
"192 -60 OFFCURVE",
"193 -60 CURVE SMOOTH",
"195 -62 OFFCURVE",
"194 -65 OFFCURVE",
"194 -67 CURVE SMOOTH",
"194 -69 OFFCURVE",
"195 -70 OFFCURVE",
"193 -71 CURVE SMOOTH",
"188 -74 OFFCURVE",
"177 -75 OFFCURVE",
"177 -82 CURVE SMOOTH",
"177 -88 OFFCURVE",
"192 -86 OFFCURVE",
"196 -89 CURVE SMOOTH",
"197 -90 OFFCURVE",
"200 -92 OFFCURVE",
"200 -95 CURVE SMOOTH",
"200 -101 OFFCURVE",
"195 -106 OFFCURVE",
"189 -106 CURVE SMOOTH",
"182 -106 OFFCURVE",
"177 -100 OFFCURVE",
"173 -96 CURVE",
"172 -96 OFFCURVE",
"169 -96 OFFCURVE",
"169 -97 CURVE SMOOTH",
"169 -97 OFFCURVE",
"167 -101 OFFCURVE",
"166 -102 CURVE",
"166 -102 OFFCURVE",
"166 -103 OFFCURVE",
"166 -103 CURVE"
);
}
);
userData = {
com.typemytype.robofont.mark = (
0.939,
1,
0.6,
1
);
};
width = 418;
}
);
leftKerningGroup = J;
},
{
glyphname = K;
lastChange = "2020-03-17 07:33:59 +0000";
layers = (
{
anchors = (
{
name = bottom;
position = "{301, 0}";
},
{
name = measure;
position = "{0, 0}";
},
{
name = top;
position = "{301, 660}";
}
);
layerId = master01;
paths = (
{
closed = 1;
nodes = (
"539 -2 OFFCURVE",
"546 -2 OFFCURVE",
"552 -2 CURVE SMOOTH",
"556 -2 OFFCURVE",
"560 0 OFFCURVE",
"560 5 CURVE SMOOTH",
"560 10 OFFCURVE",
"554 15 OFFCURVE",
"551 19 CURVE SMOOTH",
"550 21 OFFCURVE",
"540 35 OFFCURVE",
"539 37 CURVE SMOOTH",
"523 58 OFFCURVE",
"505 79 OFFCURVE",
"490 100 CURVE",
"480 117 OFFCURVE",
"463 131 OFFCURVE",
"453 147 CURVE SMOOTH",
"450 151 OFFCURVE",
"440 167 OFFCURVE",
"438 169 CURVE SMOOTH",
"436 171 OFFCURVE",
"426 184 OFFCURVE",
"424 187 CURVE",
"424 187 OFFCURVE",
"420 194 OFFCURVE",
"419 195 CURVE",
"418 195 OFFCURVE",
"413 201 OFFCURVE",
"412 203 CURVE",
"412 203 OFFCURVE",
"409 205 OFFCURVE",
"409 205 CURVE",
"403 215 OFFCURVE",
"396 224 OFFCURVE",
"389 234 CURVE",
"389 234 OFFCURVE",
"388 235 OFFCURVE",
"388 235 CURVE",
"380 245 OFFCURVE",
"347 289 OFFCURVE",
"339 299 CURVE",
"339 299 OFFCURVE",
"337 302 OFFCURVE",
"337 303 CURVE",
"336 303 OFFCURVE",
"332 309 OFFCURVE",
"331 309 CURVE",
"322 323 OFFCURVE",
"312 338 OFFCURVE",
"301 351 CURVE SMOOTH",
"300 353 OFFCURVE",
"296 355 OFFCURVE",
"296 359 CURVE SMOOTH",
"296 361 OFFCURVE",
"299 365 OFFCURVE",
"300 366 CURVE SMOOTH",
"301 367 OFFCURVE",
"311 377 OFFCURVE",
"312 378 CURVE",
"312 379 OFFCURVE",
"315 382 OFFCURVE",
"315 382 CURVE",
"320 388 OFFCURVE",
"324 395 OFFCURVE",
"330 401 CURVE",
"330 402 OFFCURVE",
"333 404 OFFCURVE",
"334 405 CURVE SMOOTH",
"335 406 OFFCURVE",
"341 415 OFFCURVE",
"342 416 CURVE SMOOTH",
"369 449 OFFCURVE",
"396 481 OFFCURVE",
"423 514 CURVE",
"430 524 OFFCURVE",
"465 566 OFFCURVE",
"473 575 CURVE",
"475 581 OFFCURVE",
"480 583 OFFCURVE",
"482 589 CURVE",
"486 594 OFFCURVE",
"507 620 OFFCURVE",
"511 625 CURVE",
"511 626 OFFCURVE",
"513 628 OFFCURVE",
"513 629 CURVE SMOOTH",
"518 635 OFFCURVE",
"523 641 OFFCURVE",
"528 647 CURVE SMOOTH",
"529 648 OFFCURVE",
"529 649 OFFCURVE",
"529 651 CURVE SMOOTH",
"529 651 OFFCURVE",
"529 652 OFFCURVE",
"529 652 CURVE",
"523 657 OFFCURVE",
"515 655 OFFCURVE",
"508 655 CURVE SMOOTH",
"478 655 OFFCURVE",
"448 658 OFFCURVE",
"417 658 CURVE SMOOTH",
"415 658 OFFCURVE",
"401 658 OFFCURVE",
"399 658 CURVE",
"390 653 OFFCURVE",
"386 642 OFFCURVE",
"380 635 CURVE SMOOTH",
"379 634 OFFCURVE",
"374 628 OFFCURVE",
"373 628 CURVE",
"362 615 OFFCURVE",
"351 602 OFFCURVE",
"341 589 CURVE",
"341 589 OFFCURVE",
"339 586 OFFCURVE",
"339 586 CURVE",
"339 585 OFFCURVE",
"335 581 OFFCURVE",
"334 581 CURVE",
"333 579 OFFCURVE",
"322 565 OFFCURVE",
"320 563 CURVE",
"320 563 OFFCURVE",
"318 560 OFFCURVE",
"318 560 CURVE",
"314 556 OFFCURVE",
"311 550 OFFCURVE",
"307 544 CURVE SMOOTH",
"300 535 OFFCURVE",
"293 527 OFFCURVE",
"287 519 CURVE SMOOTH",
"285 516 OFFCURVE",
"283 513 OFFCURVE",
"281 510 CURVE SMOOTH",
"279 506 OFFCURVE",
"275 503 OFFCURVE",
"272 500 CURVE SMOOTH",
"270 497 OFFCURVE",
"260 485 OFFCURVE",
"258 482 CURVE SMOOTH",
"254 476 OFFCURVE",
"250 469 OFFCURVE",
"245 463 CURVE SMOOTH",
"236 453 OFFCURVE",
"227 443 OFFCURVE",
"219 432 CURVE SMOOTH",
"216 427 OFFCURVE",
"200 407 OFFCURVE",
"196 402 CURVE",
"196 401 OFFCURVE",
"195 399 OFFCURVE",
"194 398 CURVE",
"194 402 OFFCURVE",
"192 404 OFFCURVE",
"192 408 CURVE SMOOTH",
"192 412 OFFCURVE",
"194 417 OFFCURVE",
"194 421 CURVE SMOOTH",
"194 421 OFFCURVE",
"194 421 OFFCURVE",
"194 421 CURVE",
"194 423 OFFCURVE",
"192 441 OFFCURVE",
"192 443 CURVE SMOOTH",
"192 444 OFFCURVE",
"192 467 OFFCURVE",
"192 476 CURVE SMOOTH",
"192 485 OFFCURVE",
"192 508 OFFCURVE",
"192 509 CURVE SMOOTH",
"192 511 OFFCURVE",
"194 525 OFFCURVE",
"194 527 CURVE SMOOTH",
"194 531 OFFCURVE",
"194 569 OFFCURVE",
"194 574 CURVE SMOOTH",
"194 581 OFFCURVE",
"195 639 OFFCURVE",
"195 645 CURVE SMOOTH",
"195 646 OFFCURVE",
"195 649 OFFCURVE",
"195 649 CURVE",
"195 652 OFFCURVE",
"195 656 OFFCURVE",
"192 658 CURVE",
"190 658 OFFCURVE",
"177 659 OFFCURVE",
"175 659 CURVE SMOOTH",
"175 659 OFFCURVE",
"174 659 OFFCURVE",
"174 659 CURVE",
"174 659 OFFCURVE",
"173 659 OFFCURVE",
"173 659 CURVE",
"171 659 OFFCURVE",
"162 658 OFFCURVE",
"160 658 CURVE SMOOTH",
"157 659 LINE",
"84 659 LINE SMOOTH",
"82 659 OFFCURVE",
"80 655 OFFCURVE",
"79 655 CURVE",
"79 654 OFFCURVE",
"79 651 OFFCURVE",
"79 650 CURVE SMOOTH",
"79 646 OFFCURVE",
"79 644 OFFCURVE",
"80 640 CURVE",
"80 4 LINE",
"80 4 OFFCURVE",
"82 2 OFFCURVE",
"83 2 CURVE SMOOTH",
"84 1 OFFCURVE",
"88 0 OFFCURVE",
"88 0 CURVE",
"191 0 LINE",
"194 3 LINE",
"194 3 OFFCURVE",
"194 16 OFFCURVE",
"194 21 CURVE SMOOTH",
"194 72 OFFCURVE",
"192 123 OFFCURVE",
"192 174 CURVE SMOOTH",
"192 182 OFFCURVE",
"192 222 OFFCURVE",
"192 230 CURVE",
"194 236 OFFCURVE",
"199 243 OFFCURVE",
"203 247 CURVE SMOOTH",
"206 250 OFFCURVE",
"217 263 OFFCURVE",
"219 266 CURVE",
"219 266 OFFCURVE",
"221 266 OFFCURVE",
"221 266 CURVE",
"222 266 OFFCURVE",
"225 262 OFFCURVE",
"226 261 CURVE SMOOTH",
"227 260 OFFCURVE",
"229 256 OFFCURVE",
"230 255 CURVE SMOOTH",
"241 243 OFFCURVE",
"250 228 OFFCURVE",
"260 215 CURVE",
"260 215 OFFCURVE",
"261 214 OFFCURVE",
"261 214 CURVE",
"274 195 OFFCURVE",
"287 178 OFFCURVE",
"300 161 CURVE SMOOTH",
"302 158 OFFCURVE",
"305 155 OFFCURVE",
"307 153 CURVE SMOOTH",
"318 137 OFFCURVE",
"329 121 OFFCURVE",
"341 106 CURVE SMOOTH",
"342 104 OFFCURVE",
"343 101 OFFCURVE",
"345 100 CURVE",
"382 48 LINE SMOOTH",
"385 45 OFFCURVE",
"388 39 OFFCURVE",
"391 37 CURVE",
"391 35 OFFCURVE",
"398 26 OFFCURVE",
"399 25 CURVE",
"399 24 OFFCURVE",
"405 17 OFFCURVE",
"405 16 CURVE",
"406 16 OFFCURVE",
"410 9 OFFCURVE",
"411 8 CURVE SMOOTH",
"412 7 OFFCURVE",
"417 2 OFFCURVE",
"419 0 CURVE",
"422 0 OFFCURVE",
"436 -1 OFFCURVE",
"439 -1 CURVE SMOOTH",
"453 -1 OFFCURVE",
"519 -1 OFFCURVE",
"533 -1 CURVE"
);
}
);
width = 602;
}
);
rightKerningGroup = K;
unicode = 004B;
},
{
glyphname = K.ss02;
lastChange = "2020-03-17 07:33:59 +0000";
layers = (
{
anchors = (
{
name = _measure;
position = "{0, 0}";
}
);
layerId = master01;
paths = (
{
closed = 1;
nodes = (
"552 -148 OFFCURVE",
"554 -162 OFFCURVE",
"554 -164 CURVE SMOOTH",
"554 -166 OFFCURVE",
"555 -168 OFFCURVE",
"555 -168 CURVE",
"555 -168 OFFCURVE",
"557 -169 OFFCURVE",
"558 -169 CURVE SMOOTH",
"558 -169 OFFCURVE",
"560 -168 OFFCURVE",
"560 -168 CURVE",
"561 -168 OFFCURVE",
"563 -164 OFFCURVE",
"563 -163 CURVE SMOOTH",
"563 -160 OFFCURVE",
"563 -148 OFFCURVE",
"563 -145 CURVE SMOOTH",
"563 -141 OFFCURVE",
"563 -129 OFFCURVE",
"563 -128 CURVE SMOOTH",
"563 -126 OFFCURVE",
"562 -118 OFFCURVE",
"562 -117 CURVE SMOOTH",
"562 -116 OFFCURVE",
"559 -114 OFFCURVE",
"558 -113 CURVE",
"558 -113 OFFCURVE",
"557 -113 OFFCURVE",
"557 -113 CURVE",
"557 -113 OFFCURVE",
"556 -113 OFFCURVE",
"556 -113 CURVE",
"548 -118 OFFCURVE",
"556 -127 OFFCURVE",
"550 -132 CURVE",
"548 -132 OFFCURVE",
"540 -133 OFFCURVE",
"539 -133 CURVE SMOOTH",
"534 -134 OFFCURVE",
"520 -135 OFFCURVE",
"519 -135 CURVE SMOOTH",
"518 -135 OFFCURVE",
"510 -133 OFFCURVE",
"509 -133 CURVE SMOOTH",
"508 -133 OFFCURVE",
"497 -135 OFFCURVE",
"496 -135 CURVE SMOOTH",
"492 -135 OFFCURVE",
"476 -134 OFFCURVE",
"473 -133 CURVE",
"345 -133 LINE SMOOTH",
"343 -133 OFFCURVE",
"337 -132 OFFCURVE",
"335 -132 CURVE SMOOTH",
"335 -132 OFFCURVE",
"321 -132 OFFCURVE",
"316 -132 CURVE SMOOTH",
"313 -132 OFFCURVE",
"299 -132 OFFCURVE",
"296 -132 CURVE",
"293 -134 OFFCURVE",
"290 -133 OFFCURVE",
"287 -133 CURVE SMOOTH",
"281 -133 OFFCURVE",
"278 -133 OFFCURVE",
"272 -132 CURVE SMOOTH",
"268 -132 OFFCURVE",
"251 -132 OFFCURVE",
"247 -132 CURVE SMOOTH",
"240 -132 OFFCURVE",
"223 -132 OFFCURVE",
"222 -132 CURVE SMOOTH",
"221 -132 OFFCURVE",
"211 -133 OFFCURVE",
"210 -133 CURVE SMOOTH",
"210 -133 OFFCURVE",
"206 -133 OFFCURVE",
"205 -133 CURVE SMOOTH",
"204 -133 OFFCURVE",
"200 -133 OFFCURVE",
"200 -133 CURVE",
"198 -133 OFFCURVE",
"190 -132 OFFCURVE",
"188 -132 CURVE SMOOTH",
"176 -132 OFFCURVE",
"119 -132 OFFCURVE",
"107 -132 CURVE SMOOTH",
"105 -132 OFFCURVE",
"91 -131 OFFCURVE",
"88 -131 CURVE SMOOTH",
"88 -131 OFFCURVE",
"87 -129 OFFCURVE",
"87 -129 CURVE",
"87 -129 OFFCURVE",
"86 -124 OFFCURVE",
"86 -123 CURVE SMOOTH",
"85 -118 OFFCURVE",
"88 -109 OFFCURVE",
"80 -109 CURVE SMOOTH",
"79 -109 OFFCURVE",
"77 -108 OFFCURVE",
"76 -110 CURVE SMOOTH",
"76 -112 OFFCURVE",
"75 -121 OFFCURVE",
"75 -123 CURVE SMOOTH",
"75 -123 OFFCURVE",
"75 -126 OFFCURVE",
"75 -127 CURVE SMOOTH",
"75 -128 OFFCURVE",
"75 -131 OFFCURVE",
"75 -132 CURVE SMOOTH",
"75 -137 OFFCURVE",
"76 -158 OFFCURVE",
"76 -163 CURVE SMOOTH",
"76 -165 OFFCURVE",
"79 -167 OFFCURVE",
"81 -167 CURVE SMOOTH",
"85 -167 OFFCURVE",
"85 -164 OFFCURVE",
"86 -160 CURVE SMOOTH",
"86 -158 OFFCURVE",
"87 -147 OFFCURVE",
"87 -144 CURVE",
"88 -143 LINE",
"95 -143 OFFCURVE",
"127 -143 OFFCURVE",
"134 -143 CURVE SMOOTH",
"138 -143 OFFCURVE",
"171 -141 OFFCURVE",
"175 -141 CURVE SMOOTH",
"178 -141 OFFCURVE",
"196 -142 OFFCURVE",
"199 -143 CURVE",
"232 -143 OFFCURVE",
"384 -143 OFFCURVE",
"417 -143 CURVE SMOOTH",
"454 -143 OFFCURVE",
"491 -145 OFFCURVE",
"527 -145 CURVE SMOOTH",
"535 -145 OFFCURVE",
"542 -144 OFFCURVE",
"548 -144 CURVE SMOOTH",
"550 -144 OFFCURVE",
"552 -143 OFFCURVE",
"552 -145 CURVE SMOOTH"
);
},
{
closed = 1;
nodes = (
"298 -115 OFFCURVE",
"306 -121 OFFCURVE",
"316 -121 CURVE SMOOTH",
"322 -121 OFFCURVE",
"327 -119 OFFCURVE",
"331 -116 CURVE SMOOTH",
"338 -110 OFFCURVE",
"342 -105 OFFCURVE",
"342 -96 CURVE SMOOTH",
"342 -94 OFFCURVE",
"342 -91 OFFCURVE",
"342 -91 CURVE",
"342 -91 OFFCURVE",
"338 -85 OFFCURVE",
"337 -83 CURVE SMOOTH",
"335 -81 OFFCURVE",
"332 -77 OFFCURVE",
"328 -77 CURVE",
"326 -76 OFFCURVE",
"317 -74 OFFCURVE",
"315 -74 CURVE SMOOTH",
"314 -74 OFFCURVE",
"312 -72 OFFCURVE",
"312 -71 CURVE SMOOTH",
"312 -71 OFFCURVE",
"312 -71 OFFCURVE",
"312 -70 CURVE SMOOTH",
"312 -65 OFFCURVE",
"319 -67 OFFCURVE",
"322 -66 CURVE SMOOTH",
"324 -65 OFFCURVE",
"332 -63 OFFCURVE",
"333 -63 CURVE SMOOTH",
"333 -63 OFFCURVE",
"335 -61 OFFCURVE",
"335 -60 CURVE",
"336 -60 OFFCURVE",
"337 -58 OFFCURVE",
"337 -58 CURVE",
"337 -55 OFFCURVE",
"333 -54 OFFCURVE",
"331 -54 CURVE SMOOTH",
"303 -54 LINE",
"302 -54 OFFCURVE",
"300 -56 OFFCURVE",
"300 -58 CURVE SMOOTH",
"300 -58 OFFCURVE",
"300 -64 OFFCURVE",
"300 -65 CURVE SMOOTH",
"300 -65 OFFCURVE",
"299 -69 OFFCURVE",
"299 -70 CURVE SMOOTH",
"299 -70 OFFCURVE",
"299 -71 OFFCURVE",
"299 -71 CURVE",
"299 -71 OFFCURVE",
"299 -71 OFFCURVE",
"299 -71 CURVE",
"299 -74 OFFCURVE",
"300 -85 OFFCURVE",
"300 -87 CURVE SMOOTH",
"301 -89 OFFCURVE",
"303 -89 OFFCURVE",
"304 -89 CURVE SMOOTH",
"309 -89 OFFCURVE",
"313 -86 OFFCURVE",
"318 -86 CURVE SMOOTH",
"325 -86 OFFCURVE",
"331 -91 OFFCURVE",
"331 -98 CURVE SMOOTH",
"331 -100 OFFCURVE",
"328 -105 OFFCURVE",
"327 -106 CURVE SMOOTH",
"326 -108 OFFCURVE",
"321 -110 OFFCURVE",
"320 -110 CURVE SMOOTH",
"320 -110 OFFCURVE",
"314 -108 OFFCURVE",
"312 -108 CURVE",
"308 -106 OFFCURVE",
"305 -100 OFFCURVE",
"301 -100 CURVE SMOOTH",
"301 -100 OFFCURVE",
"300 -100 OFFCURVE",
"300 -100 CURVE",
"299 -100 OFFCURVE",
"295 -104 OFFCURVE",
"295 -105 CURVE"
);
},
{
closed = 1;
nodes = (
"551 56 OFFCURVE",
"551 52 OFFCURVE",
"551 52 CURVE",
"551 50 OFFCURVE",
"553 39 OFFCURVE",
"554 37 CURVE",
"554 37 OFFCURVE",
"556 37 OFFCURVE",
"556 37 CURVE",
"560 37 OFFCURVE",
"560 37 OFFCURVE",
"562 41 CURVE",
"562 44 OFFCURVE",
"563 62 OFFCURVE",
"563 65 CURVE SMOOTH",
"563 66 OFFCURVE",
"563 73 OFFCURVE",
"563 77 CURVE SMOOTH",
"563 95 OFFCURVE",
"562 113 OFFCURVE",
"562 132 CURVE SMOOTH",
"562 139 OFFCURVE",
"563 147 OFFCURVE",
"563 155 CURVE SMOOTH",
"563 161 OFFCURVE",
"563 165 OFFCURVE",
"562 172 CURVE",
"562 288 LINE",
"563 290 OFFCURVE",
"563 304 OFFCURVE",
"563 307 CURVE SMOOTH",
"563 309 OFFCURVE",
"562 326 OFFCURVE",
"562 328 CURVE SMOOTH",
"562 332 OFFCURVE",
"562 361 OFFCURVE",
"562 365 CURVE SMOOTH",
"562 372 OFFCURVE",
"560 430 OFFCURVE",
"560 438 CURVE SMOOTH",
"560 438 OFFCURVE",
"560 445 OFFCURVE",
"560 447 CURVE SMOOTH",
"560 492 OFFCURVE",
"562 538 OFFCURVE",
"562 583 CURVE SMOOTH",
"562 593 OFFCURVE",
"562 635 OFFCURVE",
"562 644 CURVE SMOOTH",
"562 645 OFFCURVE",
"560 650 OFFCURVE",
"559 651 CURVE",
"559 651 OFFCURVE",
"557 652 OFFCURVE",
"556 652 CURVE SMOOTH",
"554 652 OFFCURVE",
"552 649 OFFCURVE",
"551 648 CURVE",
"551 639 OFFCURVE",
"551 597 OFFCURVE",
"551 589 CURVE SMOOTH",
"551 586 OFFCURVE",
"550 563 OFFCURVE",
"550 560 CURVE SMOOTH",
"550 560 OFFCURVE",
"550 560 OFFCURVE",
"550 560 CURVE",
"550 560 OFFCURVE",
"550 559 OFFCURVE",
"550 559 CURVE",
"550 558 OFFCURVE",
"551 550 OFFCURVE",
"551 548 CURVE SMOOTH",
"551 548 OFFCURVE",
"551 535 OFFCURVE",
"551 531 CURVE SMOOTH",
"551 518 OFFCURVE",
"550 504 OFFCURVE",
"550 491 CURVE SMOOTH",
"550 491 OFFCURVE",
"550 490 OFFCURVE",
"550 490 CURVE",
"550 488 OFFCURVE",
"551 472 OFFCURVE",
"551 470 CURVE SMOOTH",
"551 462 OFFCURVE",
"550 429 OFFCURVE",
"550 423 CURVE SMOOTH",
"550 417 LINE",
"550 328 LINE SMOOTH",
"550 326 OFFCURVE",
"551 317 OFFCURVE",
"551 315 CURVE SMOOTH",
"551 307 OFFCURVE",
"551 272 OFFCURVE",
"551 265 CURVE",
"552 261 OFFCURVE",
"552 259 OFFCURVE",
"552 256 CURVE SMOOTH",
"552 249 OFFCURVE",
"551 242 OFFCURVE",
"551 235 CURVE SMOOTH",
"551 232 OFFCURVE",
"552 228 OFFCURVE",
"552 225 CURVE SMOOTH",
"552 222 OFFCURVE",
"551 220 OFFCURVE",
"551 216 CURVE SMOOTH",
"551 216 OFFCURVE",
"551 214 OFFCURVE",
"551 214 CURVE",
"551 213 OFFCURVE",
"552 207 OFFCURVE",
"552 207 CURVE",
"552 205 OFFCURVE",
"551 197 OFFCURVE",
"551 196 CURVE SMOOTH",
"551 195 OFFCURVE",
"552 181 OFFCURVE",
"552 180 CURVE SMOOTH",
"552 180 OFFCURVE",
"552 171 OFFCURVE",
"552 168 CURVE SMOOTH",
"552 131 OFFCURVE",
"551 95 OFFCURVE",
"551 58 CURVE SMOOTH"
);
}
);
userData = {
com.typemytype.robofont.mark = (
0.939,
1,
0.6,
1
);
};
width = 602;
}
);
rightKerningGroup = K;
},
{
glyphname = L;
lastChange = "2020-03-17 07:34:03 +0000";
layers = (
{
anchors = (
{
name = bottom;
position = "{213, 0}";
},
{
name = center;
position = "{213, 330}";
},
{
name = measure;
position = "{0, 0}";
},
{
name = top;
position = "{213, 660}";
},
{
name = topright;
position = "{405, 660}";
}
);
layerId = master01;
paths = (
{
closed = 1;
nodes = (
"80 8 LINE",
"80 8 OFFCURVE",
"81 3 OFFCURVE",
"82 2 CURVE",
"82 2 OFFCURVE",
"83 0 OFFCURVE",
"83 0 CURVE",
"85 0 OFFCURVE",
"88 -1 OFFCURVE",
"89 -1 CURVE",
"380 -1 LINE",
"381 -1 OFFCURVE",
"383 3 OFFCURVE",
"384 4 CURVE SMOOTH",
"385 6 OFFCURVE",
"385 9 OFFCURVE",
"385 10 CURVE",
"385 93 LINE",
"385 94 OFFCURVE",
"383 97 OFFCURVE",
"381 97 CURVE",
"379 99 OFFCURVE",
"377 99 OFFCURVE",
"374 99 CURVE SMOOTH",
"349 99 OFFCURVE",
"323 97 OFFCURVE",
"298 96 CURVE SMOOTH",
"296 96 OFFCURVE",
"279 96 OFFCURVE",
"277 96 CURVE SMOOTH",
"275 96 OFFCURVE",
"262 95 OFFCURVE",
"260 95 CURVE SMOOTH",
"259 95 OFFCURVE",
"255 95 OFFCURVE",
"254 96 CURVE",
"206 96 LINE",
"205 96 OFFCURVE",
"203 97 OFFCURVE",
"202 97 CURVE SMOOTH",
"201 98 OFFCURVE",
"199 100 OFFCURVE",
"199 100 CURVE",
"199 182 LINE",
"198 186 OFFCURVE",
"198 187 OFFCURVE",
"198 191 CURVE SMOOTH",
"198 197 OFFCURVE",
"199 205 OFFCURVE",
"199 211 CURVE SMOOTH",
"199 327 LINE SMOOTH",
"199 329 OFFCURVE",
"198 337 OFFCURVE",
"198 339 CURVE SMOOTH",
"198 339 OFFCURVE",
"198 340 OFFCURVE",
"198 341 CURVE SMOOTH",
"198 370 OFFCURVE",
"199 400 OFFCURVE",
"199 429 CURVE SMOOTH",
"199 502 OFFCURVE",
"197 573 OFFCURVE",
"198 645 CURVE SMOOTH",
"198 647 OFFCURVE",
"197 653 OFFCURVE",
"196 655 CURVE",
"196 655 OFFCURVE",
"194 658 OFFCURVE",
"194 658 CURVE",
"93 658 LINE SMOOTH",
"87 658 OFFCURVE",
"78 655 OFFCURVE",
"78 648 CURVE SMOOTH",
"78 564 LINE",
"80 551 LINE",
"80 405 LINE",
"80 401 LINE"
);
}
);
width = 425;
}
);
rightKerningGroup = L;
unicode = 004C;
},
{
glyphname = L.ss02;
lastChange = "2020-03-17 07:34:03 +0000";
layers = (
{
anchors = (
{
name = _measure;
position = "{0, 0}";
}
);
layerId = master01;
paths = (
{
closed = 1;
nodes = (
"82 -146 OFFCURVE",
"81 -155 OFFCURVE",
"83 -166 CURVE",
"83 -166 OFFCURVE",
"85 -168 OFFCURVE",
"85 -168 CURVE",
"85 -168 OFFCURVE",
"87 -168 OFFCURVE",
"87 -168 CURVE",
"90 -168 OFFCURVE",
"91 -169 OFFCURVE",
"91 -166 CURVE SMOOTH",
"91 -164 OFFCURVE",
"93 -155 OFFCURVE",
"93 -152 CURVE SMOOTH",
"93 -152 OFFCURVE",
"93 -147 OFFCURVE",
"93 -147 CURVE",
"93 -146 OFFCURVE",
"95 -144 OFFCURVE",
"95 -144 CURVE",
"96 -143 OFFCURVE",
"101 -143 OFFCURVE",
"102 -143 CURVE",
"372 -143 LINE SMOOTH",
"375 -143 OFFCURVE",
"376 -146 OFFCURVE",
"376 -148 CURVE SMOOTH",
"376 -150 OFFCURVE",
"376 -158 OFFCURVE",
"376 -159 CURVE SMOOTH",
"376 -160 OFFCURVE",
"377 -167 OFFCURVE",
"377 -168 CURVE SMOOTH",
"377 -168 OFFCURVE",
"379 -168 OFFCURVE",
"379 -168 CURVE",
"384 -168 OFFCURVE",
"387 -159 OFFCURVE",
"387 -155 CURVE SMOOTH",
"387 -155 OFFCURVE",
"387 -154 OFFCURVE",
"387 -154 CURVE",
"387 -148 OFFCURVE",
"385 -123 OFFCURVE",
"385 -117 CURVE SMOOTH",
"385 -116 OFFCURVE",
"383 -114 OFFCURVE",
"383 -114 CURVE",
"383 -114 OFFCURVE",
"381 -114 OFFCURVE",
"381 -114 CURVE",
"374 -114 OFFCURVE",
"376 -125 OFFCURVE",
"375 -129 CURVE",
"375 -129 OFFCURVE",
"373 -131 OFFCURVE",
"373 -131 CURVE",
"370 -131 OFFCURVE",
"358 -132 OFFCURVE",
"356 -132 CURVE SMOOTH",
"344 -132 OFFCURVE",
"287 -132 OFFCURVE",
"275 -132 CURVE",
"270 -134 OFFCURVE",
"263 -133 OFFCURVE",
"258 -133 CURVE SMOOTH",
"248 -133 OFFCURVE",
"237 -132 OFFCURVE",
"227 -132 CURVE SMOOTH",
"205 -132 OFFCURVE",
"183 -134 OFFCURVE",
"161 -133 CURVE",
"160 -135 OFFCURVE",
"158 -135 OFFCURVE",
"156 -135 CURVE SMOOTH",
"155 -135 OFFCURVE",
"153 -135 OFFCURVE",
"153 -135 CURVE",
"153 -135 OFFCURVE",
"145 -133 OFFCURVE",
"144 -133 CURVE SMOOTH",
"137 -133 OFFCURVE",
"105 -132 OFFCURVE",
"98 -132 CURVE SMOOTH",
"89 -132 OFFCURVE",
"95 -121 OFFCURVE",
"89 -116 CURVE SMOOTH",
"88 -115 OFFCURVE",
"86 -114 OFFCURVE",
"86 -114 CURVE",
"84 -114 OFFCURVE",
"82 -116 OFFCURVE",
"82 -118 CURVE SMOOTH",
"82 -121 OFFCURVE",
"82 -133 OFFCURVE",
"82 -135 CURVE SMOOTH"
);
},
{
closed = 1;
nodes = (
"213 -103 OFFCURVE",
"213 -104 OFFCURVE",
"213 -104 CURVE",
"213 -104 OFFCURVE",
"214 -107 OFFCURVE",
"214 -108 CURVE SMOOTH",
"217 -116 OFFCURVE",
"223 -121 OFFCURVE",
"232 -121 CURVE SMOOTH",
"239 -121 OFFCURVE",
"245 -118 OFFCURVE",
"250 -113 CURVE SMOOTH",
"252 -112 OFFCURVE",
"256 -108 OFFCURVE",
"256 -108 CURVE",
"257 -105 OFFCURVE",
"257 -98 OFFCURVE",
"257 -95 CURVE SMOOTH",
"257 -88 OFFCURVE",
"253 -83 OFFCURVE",
"253 -76 CURVE SMOOTH",
"253 -75 OFFCURVE",
"253 -74 OFFCURVE",
"253 -74 CURVE",
"253 -73 OFFCURVE",
"254 -68 OFFCURVE",
"254 -67 CURVE SMOOTH",
"254 -57 OFFCURVE",
"246 -51 OFFCURVE",
"236 -51 CURVE SMOOTH",
"229 -51 OFFCURVE",
"221 -54 OFFCURVE",
"217 -60 CURVE SMOOTH",
"216 -61 OFFCURVE",
"215 -63 OFFCURVE",
"215 -63 CURVE",
"215 -66 OFFCURVE",
"219 -67 OFFCURVE",
"221 -67 CURVE SMOOTH",
"225 -67 OFFCURVE",
"228 -62 OFFCURVE",
"233 -62 CURVE SMOOTH",
"238 -62 OFFCURVE",
"239 -63 OFFCURVE",
"241 -67 CURVE SMOOTH",
"242 -68 OFFCURVE",
"242 -70 OFFCURVE",
"242 -70 CURVE",
"242 -79 OFFCURVE",
"230 -74 OFFCURVE",
"225 -78 CURVE SMOOTH",
"223 -79 OFFCURVE",
"222 -81 OFFCURVE",
"222 -83 CURVE SMOOTH",
"222 -87 OFFCURVE",
"226 -88 OFFCURVE",
"229 -89 CURVE",
"230 -89 OFFCURVE",
"238 -90 OFFCURVE",
"238 -90 CURVE",
"240 -91 OFFCURVE",
"244 -92 OFFCURVE",
"245 -93 CURVE",
"245 -93 OFFCURVE",
"246 -97 OFFCURVE",
"246 -98 CURVE SMOOTH",
"246 -98 OFFCURVE",
"246 -100 OFFCURVE",
"246 -100 CURVE",
"246 -104 OFFCURVE",
"240 -110 OFFCURVE",
"235 -110 CURVE SMOOTH",
"235 -110 OFFCURVE",
"234 -110 OFFCURVE",
"234 -110 CURVE",
"232 -110 OFFCURVE",
"227 -107 OFFCURVE",
"226 -106 CURVE",
"226 -106 OFFCURVE",
"225 -104 OFFCURVE",
"225 -104 CURVE",
"225 -103 OFFCURVE",
"223 -100 OFFCURVE",
"223 -100 CURVE",
"223 -100 OFFCURVE",
"219 -98 OFFCURVE",
"218 -97 CURVE",
"218 -97 OFFCURVE",
"217 -97 OFFCURVE",
"217 -97 CURVE",
"215 -97 OFFCURVE",
"213 -101 OFFCURVE",
"213 -103 CURVE"
);
}
);
userData = {
com.typemytype.robofont.mark = (
0.939,
1,
0.6,
1
);
};
width = 425;
}
);
rightKerningGroup = L;
},
{
glyphname = M;
lastChange = "2020-03-17 07:34:08 +0000";
layers = (
{
anchors = (
{
name = bottom;
position = "{396, 0}";
},
{
name = measure;
position = "{0, 0}";
},
{
name = top;
position = "{396, 660}";
}
);
layerId = master01;
paths = (
{
closed = 1;
nodes = (
"584 369 OFFCURVE",
"585 360 OFFCURVE",
"585 358 CURVE SMOOTH",
"585 358 OFFCURVE",
"585 355 OFFCURVE",
"585 355 CURVE",
"586 350 OFFCURVE",
"590 308 OFFCURVE",
"591 303 CURVE SMOOTH",
"591 301 OFFCURVE",
"591 289 OFFCURVE",
"591 288 CURVE SMOOTH",
"591 287 OFFCURVE",
"592 280 OFFCURVE",
"592 280 CURVE",
"593 274 OFFCURVE",
"595 255 OFFCURVE",
"595 253 CURVE SMOOTH",
"595 252 OFFCURVE",
"595 244 OFFCURVE",
"595 243 CURVE SMOOTH",
"595 239 OFFCURVE",
"599 208 OFFCURVE",
"599 204 CURVE SMOOTH",
"599 203 OFFCURVE",
"599 197 OFFCURVE",
"599 196 CURVE SMOOTH",
"600 180 OFFCURVE",
"601 166 OFFCURVE",
"603 150 CURVE",
"603 144 OFFCURVE",
"605 121 OFFCURVE",
"605 118 CURVE SMOOTH",
"605 117 OFFCURVE",
"605 109 OFFCURVE",
"605 108 CURVE SMOOTH",
"605 108 OFFCURVE",
"607 102 OFFCURVE",
"607 101 CURVE SMOOTH",
"607 99 OFFCURVE",
"609 77 OFFCURVE",
"610 69 CURVE",
"610 69 OFFCURVE",
"610 66 OFFCURVE",
"610 66 CURVE",
"610 66 OFFCURVE",
"611 58 OFFCURVE",
"611 57 CURVE SMOOTH",
"612 39 OFFCURVE",
"612 21 OFFCURVE",
"616 4 CURVE",
"616 4 OFFCURVE",
"616 3 OFFCURVE",
"616 3 CURVE",
"618 -1 OFFCURVE",
"620 -2 OFFCURVE",
"624 -2 CURVE SMOOTH",
"634 -2 OFFCURVE",
"712 -4 OFFCURVE",
"721 -4 CURVE SMOOTH",
"721 -4 OFFCURVE",
"723 -4 OFFCURVE",
"723 -4 CURVE",
"729 -4 OFFCURVE",
"730 2 OFFCURVE",
"730 6 CURVE SMOOTH",
"730 7 OFFCURVE",
"730 10 OFFCURVE",
"730 10 CURVE",
"729 14 OFFCURVE",
"726 52 OFFCURVE",
"726 57 CURVE SMOOTH",
"726 57 OFFCURVE",
"726 60 OFFCURVE",
"726 60 CURVE",
"726 60 OFFCURVE",
"724 64 OFFCURVE",
"724 65 CURVE SMOOTH",
"723 73 OFFCURVE",
"723 81 OFFCURVE",
"723 89 CURVE SMOOTH",
"723 90 OFFCURVE",
"721 98 OFFCURVE",
"721 99 CURVE SMOOTH",
"721 100 OFFCURVE",
"721 110 OFFCURVE",
"721 111 CURVE SMOOTH",
"721 112 OFFCURVE",
"720 120 OFFCURVE",
"720 120 CURVE",
"719 128 OFFCURVE",
"717 155 OFFCURVE",
"716 160 CURVE SMOOTH",
"715 168 OFFCURVE",
"715 178 OFFCURVE",
"715 187 CURVE SMOOTH",
"715 187 OFFCURVE",
"713 195 OFFCURVE",
"713 196 CURVE SMOOTH",
"712 209 OFFCURVE",
"707 270 OFFCURVE",
"707 284 CURVE SMOOTH",
"707 284 OFFCURVE",
"707 288 OFFCURVE",
"707 289 CURVE SMOOTH",
"707 291 OFFCURVE",
"704 310 OFFCURVE",
"704 312 CURVE SMOOTH",
"703 325 OFFCURVE",
"703 338 OFFCURVE",
"701 351 CURVE SMOOTH",
"701 355 OFFCURVE",
"698 390 OFFCURVE",
"697 394 CURVE",
"694 429 OFFCURVE",
"692 464 OFFCURVE",
"689 498 CURVE",
"689 499 OFFCURVE",
"689 500 OFFCURVE",
"689 501 CURVE",
"682 577 LINE",
"682 577 OFFCURVE",
"682 579 OFFCURVE",
"682 579 CURVE",
"682 581 OFFCURVE",
"681 596 OFFCURVE",
"681 598 CURVE SMOOTH",
"680 608 OFFCURVE",
"680 619 OFFCURVE",
"678 629 CURVE SMOOTH",
"678 631 OFFCURVE",
"677 645 OFFCURVE",
"677 647 CURVE SMOOTH",
"677 647 OFFCURVE",
"676 650 OFFCURVE",
"676 651 CURVE SMOOTH",
"674 653 OFFCURVE",
"672 655 OFFCURVE",
"669 655 CURVE SMOOTH",
"664 655 OFFCURVE",
"644 655 OFFCURVE",
"639 655 CURVE SMOOTH",
"635 655 OFFCURVE",
"600 656 OFFCURVE",
"596 656 CURVE SMOOTH",
"595 656 OFFCURVE",
"587 655 OFFCURVE",
"585 655 CURVE SMOOTH",
"585 655 OFFCURVE",
"585 655 OFFCURVE",
"585 655 CURVE",
"583 655 OFFCURVE",
"582 656 OFFCURVE",
"581 656 CURVE SMOOTH",
"568 656 OFFCURVE",
"567 645 OFFCURVE",
"564 636 CURVE",
"562 633 OFFCURVE",
"560 628 OFFCURVE",
"560 625 CURVE SMOOTH",
"560 624 OFFCURVE",
"558 619 OFFCURVE",
"558 618 CURVE SMOOTH",
"558 616 OFFCURVE",
"555 616 OFFCURVE",
"556 613 CURVE",
"549 591 OFFCURVE",
"540 570 OFFCURVE",
"533 548 CURVE SMOOTH",
"532 545 OFFCURVE",
"525 527 OFFCURVE",
"525 524 CURVE",
"520 512 OFFCURVE",
"516 503 OFFCURVE",
"512 492 CURVE SMOOTH",
"506 474 OFFCURVE",
"499 458 OFFCURVE",
"494 440 CURVE",
"492 436 OFFCURVE",
"493 435 OFFCURVE",
"491 431 CURVE SMOOTH",
"483 411 OFFCURVE",
"476 392 OFFCURVE",
"469 371 CURVE",
"469 371 OFFCURVE",
"467 366 OFFCURVE",
"467 365 CURVE SMOOTH",
"466 364 OFFCURVE",
"462 357 OFFCURVE",
"462 357 CURVE",
"462 355 OFFCURVE",
"458 338 OFFCURVE",
"457 336 CURVE SMOOTH",
"452 321 OFFCURVE",
"446 307 OFFCURVE",
"441 292 CURVE SMOOTH",
"439 286 OFFCURVE",
"433 268 OFFCURVE",
"433 266 CURVE SMOOTH",
"433 265 OFFCURVE",
"430 261 OFFCURVE",
"430 261 CURVE",
"430 261 OFFCURVE",
"430 258 OFFCURVE",
"430 258 CURVE",
"430 257 OFFCURVE",
"427 253 OFFCURVE",
"427 253 CURVE",
"424 244 OFFCURVE",
"422 234 OFFCURVE",
"418 226 CURVE SMOOTH",
"417 224 OFFCURVE",
"415 220 OFFCURVE",
"415 219 CURVE SMOOTH",
"411 205 OFFCURVE",
"407 192 OFFCURVE",
"399 178 CURVE",
"399 178 OFFCURVE",
"398 178 OFFCURVE",
"398 178 CURVE",
"395 178 OFFCURVE",
"394 183 OFFCURVE",
"394 185 CURVE SMOOTH",
"393 187 OFFCURVE",
"390 194 OFFCURVE",
"390 196 CURVE SMOOTH",
"390 197 OFFCURVE",
"388 199 OFFCURVE",
"388 200 CURVE SMOOTH",
"388 201 OFFCURVE",
"386 203 OFFCURVE",
"386 204 CURVE SMOOTH",
"383 210 OFFCURVE",
"382 217 OFFCURVE",
"379 223 CURVE SMOOTH",
"378 225 OFFCURVE",
"370 243 OFFCURVE",
"369 245 CURVE SMOOTH",
"369 247 OFFCURVE",
"363 261 OFFCURVE",
"363 263 CURVE",
"359 272 OFFCURVE",
"353 281 OFFCURVE",
"352 289 CURVE",
"340 317 OFFCURVE",
"328 346 OFFCURVE",
"315 374 CURVE",
"315 375 OFFCURVE",
"313 377 OFFCURVE",
"314 378 CURVE",
"299 411 OFFCURVE",
"286 446 OFFCURVE",
"272 479 CURVE",
"272 479 OFFCURVE",
"272 481 OFFCURVE",
"272 481 CURVE",
"272 481 OFFCURVE",
"270 485 OFFCURVE",
"270 486 CURVE SMOOTH",
"268 489 OFFCURVE",
"260 512 OFFCURVE",
"259 514 CURVE SMOOTH",
"258 515 OFFCURVE",
"255 522 OFFCURVE",
"255 523 CURVE SMOOTH",
"248 539 OFFCURVE",
"243 556 OFFCURVE",
"236 572 CURVE",
"236 573 OFFCURVE",
"233 577 OFFCURVE",
"233 578 CURVE SMOOTH",
"233 579 OFFCURVE",
"232 583 OFFCURVE",
"232 583 CURVE",
"226 599 OFFCURVE",
"218 615 OFFCURVE",
"213 631 CURVE SMOOTH",
"210 638 OFFCURVE",
"208 647 OFFCURVE",
"204 653 CURVE SMOOTH",
"203 654 OFFCURVE",
"199 657 OFFCURVE",
"198 658 CURVE SMOOTH",
"194 660 OFFCURVE",
"190 659 OFFCURVE",
"186 659 CURVE SMOOTH",
"163 659 OFFCURVE",
"139 657 OFFCURVE",
"116 658 CURVE SMOOTH",
"113 658 OFFCURVE",
"110 656 OFFCURVE",
"109 653 CURVE SMOOTH",
"109 651 OFFCURVE",
"109 641 OFFCURVE",
"109 639 CURVE SMOOTH",
"109 637 OFFCURVE",
"108 625 OFFCURVE",
"108 624 CURVE SMOOTH",
"108 622 OFFCURVE",
"108 613 OFFCURVE",
"108 612 CURVE SMOOTH",
"108 611 OFFCURVE",
"106 603 OFFCURVE",
"106 602 CURVE SMOOTH",
"104 579 OFFCURVE",
"102 554 OFFCURVE",
"101 531 CURVE",
"101 530 OFFCURVE",
"101 523 OFFCURVE",
"101 523 CURVE",
"101 521 OFFCURVE",
"98 507 OFFCURVE",
"98 505 CURVE SMOOTH",
"97 495 OFFCURVE",
"98 484 OFFCURVE",
"97 474 CURVE",
"97 473 OFFCURVE",
"96 465 OFFCURVE",
"96 463 CURVE SMOOTH",
"96 462 OFFCURVE",
"96 454 OFFCURVE",
"96 454 CURVE",
"95 446 OFFCURVE",
"94 438 OFFCURVE",
"93 429 CURVE",
"93 428 OFFCURVE",
"93 416 OFFCURVE",
"93 415 CURVE SMOOTH",
"93 414 OFFCURVE",
"92 411 OFFCURVE",
"92 411 CURVE",
"92 409 OFFCURVE",
"92 396 OFFCURVE",
"92 394 CURVE SMOOTH",
"92 393 OFFCURVE",
"90 385 OFFCURVE",
"90 384 CURVE SMOOTH",
"90 382 OFFCURVE",
"89 369 OFFCURVE",
"89 366 CURVE SMOOTH",
"89 365 OFFCURVE",
"89 363 OFFCURVE",
"89 362 CURVE SMOOTH",
"88 357 OFFCURVE",
"87 353 OFFCURVE",
"88 348 CURVE",
"81 257 LINE",
"81 256 OFFCURVE",
"81 251 OFFCURVE",
"81 250 CURVE SMOOTH",
"81 250 OFFCURVE",
"79 249 OFFCURVE",
"79 249 CURVE",
"79 248 OFFCURVE",
"79 241 OFFCURVE",
"79 240 CURVE SMOOTH",
"79 240 OFFCURVE",
"78 233 OFFCURVE",
"78 232 CURVE SMOOTH",
"78 231 OFFCURVE",
"78 220 OFFCURVE",
"78 219 CURVE SMOOTH",
"78 214 OFFCURVE",
"76 188 OFFCURVE",
"75 181 CURVE",
"75 180 OFFCURVE",
"74 172 OFFCURVE",
"74 172 CURVE",
"72 154 OFFCURVE",
"71 136 OFFCURVE",
"70 118 CURVE",
"70 117 OFFCURVE",
"70 114 OFFCURVE",
"70 114 CURVE",
"62 15 LINE",
"62 2 LINE",
"62 2 OFFCURVE",
"63 0 OFFCURVE",
"63 0 CURVE",
"67 -2 OFFCURVE",
"71 -2 OFFCURVE",
"75 -2 CURVE SMOOTH",
"75 -2 OFFCURVE",
"75 -2 OFFCURVE",
"75 -2 CURVE",
"80 -2 OFFCURVE",
"115 -1 OFFCURVE",
"120 -1 CURVE SMOOTH",
"127 -1 OFFCURVE",
"161 -1 OFFCURVE",
"168 -1 CURVE",
"170 0 OFFCURVE",
"170 2 OFFCURVE",
"171 3 CURVE",
"172 9 OFFCURVE",
"175 39 OFFCURVE",
"175 45 CURVE SMOOTH",
"175 46 OFFCURVE",
"175 60 OFFCURVE",
"175 61 CURVE SMOOTH",
"175 62 OFFCURVE",
"177 70 OFFCURVE",
"177 72 CURVE SMOOTH",
"178 82 OFFCURVE",
"177 93 OFFCURVE",
"178 103 CURVE SMOOTH",
"178 105 OFFCURVE",
"181 121 OFFCURVE",
"181 123 CURVE SMOOTH",
"181 124 OFFCURVE",
"182 139 OFFCURVE",
"182 143 CURVE SMOOTH",
"182 144 OFFCURVE",
"182 147 OFFCURVE",
"182 147 CURVE",
"182 149 OFFCURVE",
"185 163 OFFCURVE",
"185 165 CURVE SMOOTH",
"186 173 OFFCURVE",
"185 182 OFFCURVE",
"186 191 CURVE SMOOTH",
"187 207 OFFCURVE",
"189 223 OFFCURVE",
"190 239 CURVE SMOOTH",
"190 242 OFFCURVE",
"193 266 OFFCURVE",
"193 269 CURVE SMOOTH",
"193 270 OFFCURVE",
"193 282 OFFCURVE",
"193 284 CURVE SMOOTH",
"193 285 OFFCURVE",
"194 296 OFFCURVE",
"194 299 CURVE SMOOTH",
"194 299 OFFCURVE",
"195 306 OFFCURVE",
"195 307 CURVE SMOOTH",
"195 307 OFFCURVE",
"195 314 OFFCURVE",
"195 315 CURVE SMOOTH",
"195 316 OFFCURVE",
"197 324 OFFCURVE",
"197 326 CURVE SMOOTH",
"197 334 OFFCURVE",
"196 343 OFFCURVE",
"199 351 CURVE",
"199 351 OFFCURVE",
"200 351 OFFCURVE",
"200 351 CURVE",
"203 351 OFFCURVE",
"203 347 OFFCURVE",
"204 346 CURVE",
"204 344 OFFCURVE",
"207 338 OFFCURVE",
"208 336 CURVE",
"208 336 OFFCURVE",
"211 329 OFFCURVE",
"212 328 CURVE",
"212 327 OFFCURVE",
"216 315 OFFCURVE",
"217 313 CURVE SMOOTH",
"226 290 OFFCURVE",
"235 267 OFFCURVE",
"245 245 CURVE",
"245 245 OFFCURVE",
"247 242 OFFCURVE",
"247 242 CURVE",
"247 241 OFFCURVE",
"248 237 OFFCURVE",
"248 236 CURVE SMOOTH",
"249 235 OFFCURVE",
"253 227 OFFCURVE",
"253 226 CURVE SMOOTH",
"254 224 OFFCURVE",
"257 215 OFFCURVE",
"257 214 CURVE SMOOTH",
"260 207 OFFCURVE",
"263 200 OFFCURVE",
"266 193 CURVE SMOOTH",
"269 184 OFFCURVE",
"273 176 OFFCURVE",
"276 168 CURVE",
"276 167 OFFCURVE",
"278 164 OFFCURVE",
"278 164 CURVE",
"278 162 OFFCURVE",
"282 154 OFFCURVE",
"283 153 CURVE SMOOTH",
"284 152 OFFCURVE",
"286 144 OFFCURVE",
"286 143 CURVE SMOOTH",
"286 143 OFFCURVE",
"288 138 OFFCURVE",
"288 137 CURVE SMOOTH",
"288 136 OFFCURVE",
"291 132 OFFCURVE",
"291 131 CURVE SMOOTH",
"292 129 OFFCURVE",
"295 123 OFFCURVE",
"295 122 CURVE SMOOTH",
"301 106 OFFCURVE",
"307 89 OFFCURVE",
"314 73 CURVE SMOOTH",
"321 56 OFFCURVE",
"329 38 OFFCURVE",
"336 21 CURVE SMOOTH",
"338 14 OFFCURVE",
"338 12 OFFCURVE",
"341 7 CURVE SMOOTH",
"343 4 OFFCURVE",
"347 -2 OFFCURVE",
"352 -2 CURVE SMOOTH",
"440 -2 LINE SMOOTH",
"443 -2 OFFCURVE",
"445 2 OFFCURVE",
"446 4 CURVE SMOOTH",
"447 6 OFFCURVE",
"449 10 OFFCURVE",
"449 11 CURVE SMOOTH",
"450 15 OFFCURVE",
"457 35 OFFCURVE",
"458 39 CURVE",
"458 40 OFFCURVE",
"460 44 OFFCURVE",
"460 45 CURVE SMOOTH",
"460 45 OFFCURVE",
"462 50 OFFCURVE",
"462 50 CURVE",
"462 51 OFFCURVE",
"464 55 OFFCURVE",
"464 56 CURVE SMOOTH",
"468 67 OFFCURVE",
"473 79 OFFCURVE",
"477 91 CURVE SMOOTH",
"483 108 OFFCURVE",
"489 126 OFFCURVE",
"496 143 CURVE SMOOTH",
"503 162 OFFCURVE",
"511 180 OFFCURVE",
"516 199 CURVE",
"516 199 OFFCURVE",
"518 202 OFFCURVE",
"518 203 CURVE SMOOTH",
"527 228 OFFCURVE",
"537 252 OFFCURVE",
"546 277 CURVE SMOOTH",
"547 280 OFFCURVE",
"557 307 OFFCURVE",
"558 311 CURVE SMOOTH",
"559 313 OFFCURVE",
"568 334 OFFCURVE",
"569 336 CURVE SMOOTH",
"570 338 OFFCURVE",
"575 355 OFFCURVE",
"576 357 CURVE",
"576 357 OFFCURVE",
"579 364 OFFCURVE",
"580 365 CURVE",
"581 365 OFFCURVE",
"581 371 OFFCURVE",
"583 371 CURVE SMOOTH",
"583 371 OFFCURVE",
"584 371 OFFCURVE",
"584 371 CURVE"
);
}
);
width = 792;
}
);
leftKerningGroup = M;
rightKerningGroup = M;
unicode = 004D;
},
{
glyphname = M.ss02;
lastChange = "2020-03-17 07:34:08 +0000";
layers = (
{
anchors = (
{
name = _measure;
position = "{0, 0}";
}
);
layerId = master01;
paths = (
{
closed = 1;
nodes = (
"60 -161 OFFCURVE",
"62 -164 OFFCURVE",
"65 -164 CURVE SMOOTH",
"69 -164 OFFCURVE",
"69 -161 OFFCURVE",
"69 -158 CURVE SMOOTH",
"69 -156 OFFCURVE",
"69 -148 OFFCURVE",
"66 -147 CURVE",
"67 -144 OFFCURVE",
"70 -143 OFFCURVE",
"73 -143 CURVE SMOOTH",
"93 -143 OFFCURVE",
"186 -143 OFFCURVE",
"206 -143 CURVE SMOOTH",
"213 -143 OFFCURVE",
"267 -141 OFFCURVE",
"274 -141 CURVE SMOOTH",
"276 -141 OFFCURVE",
"313 -141 OFFCURVE",
"326 -141 CURVE SMOOTH",
"339 -141 OFFCURVE",
"374 -141 OFFCURVE",
"376 -141 CURVE SMOOTH",
"380 -141 OFFCURVE",
"410 -143 OFFCURVE",
"414 -143 CURVE SMOOTH",
"415 -143 OFFCURVE",
"418 -143 OFFCURVE",
"419 -143 CURVE SMOOTH",
"423 -143 OFFCURVE",
"425 -143 OFFCURVE",
"427 -141 CURVE",
"558 -142 LINE",
"718 -142 LINE",
"720 -144 LINE",
"720 -147 OFFCURVE",
"721 -158 OFFCURVE",
"721 -160 CURVE SMOOTH",
"722 -163 OFFCURVE",
"724 -164 OFFCURVE",
"727 -164 CURVE SMOOTH",
"727 -164 OFFCURVE",
"728 -164 OFFCURVE",
"728 -164 CURVE",
"731 -155 LINE",
"731 -124 LINE SMOOTH",
"731 -121 OFFCURVE",
"729 -116 OFFCURVE",
"726 -116 CURVE SMOOTH",
"725 -116 OFFCURVE",
"724 -116 OFFCURVE",
"724 -116 CURVE",
"717 -119 OFFCURVE",
"724 -129 OFFCURVE",
"716 -131 CURVE",
"715 -131 OFFCURVE",
"707 -131 OFFCURVE",
"705 -131 CURVE SMOOTH",
"597 -131 LINE SMOOTH",
"594 -131 OFFCURVE",
"578 -132 OFFCURVE",
"574 -132 CURVE SMOOTH",
"574 -132 OFFCURVE",
"567 -132 OFFCURVE",
"565 -132 CURVE SMOOTH",
"563 -132 OFFCURVE",
"557 -132 OFFCURVE",
"557 -132 CURVE",
"555 -132 OFFCURVE",
"545 -131 OFFCURVE",
"543 -131 CURVE SMOOTH",
"537 -131 OFFCURVE",
"509 -131 OFFCURVE",
"503 -131 CURVE SMOOTH",
"493 -131 OFFCURVE",
"465 -131 OFFCURVE",
"462 -131 CURVE SMOOTH",
"450 -131 OFFCURVE",
"394 -132 OFFCURVE",
"382 -132 CURVE SMOOTH",
"369 -131 OFFCURVE",
"359 -131 OFFCURVE",
"346 -131 CURVE SMOOTH",
"342 -131 OFFCURVE",
"329 -131 OFFCURVE",
"328 -131 CURVE SMOOTH",
"322 -131 OFFCURVE",
"295 -132 OFFCURVE",
"290 -132 CURVE SMOOTH",
"75 -132 LINE SMOOTH",
"71 -132 OFFCURVE",
"69 -129 OFFCURVE",
"69 -125 CURVE SMOOTH",
"69 -124 OFFCURVE",
"69 -116 OFFCURVE",
"69 -114 CURVE",
"68 -114 OFFCURVE",
"65 -111 OFFCURVE",
"65 -110 CURVE SMOOTH",
"65 -110 OFFCURVE",
"63 -110 OFFCURVE",
"63 -110 CURVE",
"60 -110 OFFCURVE",
"59 -112 OFFCURVE",
"58 -114 CURVE SMOOTH",
"58 -116 OFFCURVE",
"58 -126 OFFCURVE",
"58 -128 CURVE SMOOTH",
"58 -131 OFFCURVE",
"58 -141 OFFCURVE",
"58 -141 CURVE",
"58 -144 OFFCURVE",
"59 -156 OFFCURVE",
"59 -159 CURVE"
);
},
{
closed = 1;
nodes = (
"371 -115 OFFCURVE",
"371 -116 OFFCURVE",
"371 -116 CURVE",
"371 -116 OFFCURVE",
"374 -120 OFFCURVE",
"375 -120 CURVE SMOOTH",
"375 -120 OFFCURVE",
"375 -120 OFFCURVE",
"376 -120 CURVE SMOOTH",
"380 -120 OFFCURVE",
"382 -116 OFFCURVE",
"384 -113 CURVE SMOOTH",
"385 -112 OFFCURVE",
"389 -104 OFFCURVE",
"390 -102 CURVE",
"390 -102 OFFCURVE",
"393 -94 OFFCURVE",
"394 -93 CURVE",
"394 -92 OFFCURVE",
"396 -89 OFFCURVE",
"396 -89 CURVE",
"396 -88 OFFCURVE",
"398 -87 OFFCURVE",
"398 -86 CURVE SMOOTH",
"398 -85 OFFCURVE",
"401 -76 OFFCURVE",
"402 -75 CURVE",
"402 -75 OFFCURVE",
"408 -67 OFFCURVE",
"410 -65 CURVE",
"410 -65 OFFCURVE",
"413 -62 OFFCURVE",
"413 -62 CURVE",
"413 -62 OFFCURVE",
"413 -61 OFFCURVE",
"413 -60 CURVE SMOOTH",
"413 -59 OFFCURVE",
"412 -54 OFFCURVE",
"410 -54 CURVE SMOOTH",
"376 -54 LINE",
"375 -53 OFFCURVE",
"371 -52 OFFCURVE",
"369 -52 CURVE SMOOTH",
"369 -52 OFFCURVE",
"365 -54 OFFCURVE",
"364 -55 CURVE SMOOTH",
"362 -57 OFFCURVE",
"363 -62 OFFCURVE",
"363 -64 CURVE SMOOTH",
"363 -67 OFFCURVE",
"362 -75 OFFCURVE",
"367 -75 CURVE SMOOTH",
"373 -75 OFFCURVE",
"371 -65 OFFCURVE",
"378 -65 CURVE SMOOTH",
"392 -65 LINE",
"395 -67 LINE",
"394 -68 OFFCURVE",
"393 -73 OFFCURVE",
"392 -74 CURVE",
"392 -75 OFFCURVE",
"391 -77 OFFCURVE",
"391 -78 CURVE SMOOTH",
"391 -79 OFFCURVE",
"388 -81 OFFCURVE",
"388 -82 CURVE SMOOTH",
"387 -84 OFFCURVE",
"379 -102 OFFCURVE",
"378 -104 CURVE SMOOTH",
"377 -105 OFFCURVE",
"372 -113 OFFCURVE",
"371 -114 CURVE",
"371 -114 OFFCURVE",
"371 -115 OFFCURVE",
"371 -115 CURVE"
);
}
);
userData = {
com.typemytype.robofont.mark = (
0.939,
1,
0.6,
1
);
};
width = 792;
}
);
leftKerningGroup = M;
rightKerningGroup = M;
},
{
glyphname = N;
lastChange = "2020-03-17 07:23:18 +0000";
layers = (
{
anchors = (
{
name = bottom;
position = "{348, 0}";
},
{
name = measure;
position = "{0, 0}";
},
{
name = top;
position = "{348, 660}";
}
);
layerId = master01;
paths = (
{
closed = 1;
nodes = (
"528 -6 OFFCURVE",
"549 -5 OFFCURVE",
"568 -5 CURVE SMOOTH",
"573 -5 OFFCURVE",
"598 -5 OFFCURVE",
"603 -5 CURVE SMOOTH",
"604 -5 OFFCURVE",
"605 -4 OFFCURVE",
"606 -4 CURVE SMOOTH",
"607 -3 OFFCURVE",
"610 0 OFFCURVE",
"610 0 CURVE",
"611 37 LINE",
"611 42 LINE SMOOTH",
"610 72 OFFCURVE",
"609 211 OFFCURVE",
"609 240 CURVE SMOOTH",
"609 255 OFFCURVE",
"609 319 OFFCURVE",
"609 334 CURVE SMOOTH",
"609 336 OFFCURVE",
"607 348 OFFCURVE",
"607 351 CURVE SMOOTH",
"607 352 OFFCURVE",
"607 362 OFFCURVE",
"607 365 CURVE SMOOTH",
"607 373 OFFCURVE",
"607 382 OFFCURVE",
"609 389 CURVE",
"609 645 LINE",
"609 646 OFFCURVE",
"608 649 OFFCURVE",
"607 651 CURVE",
"607 651 OFFCURVE",
"606 654 OFFCURVE",
"605 655 CURVE",
"603 655 OFFCURVE",
"599 656 OFFCURVE",
"598 656 CURVE SMOOTH",
"597 656 OFFCURVE",
"588 656 OFFCURVE",
"584 656 CURVE SMOOTH",
"580 656 OFFCURVE",
"570 656 OFFCURVE",
"570 656 CURVE",
"568 656 OFFCURVE",
"556 655 OFFCURVE",
"555 655 CURVE SMOOTH",
"554 655 OFFCURVE",
"551 655 OFFCURVE",
"551 656 CURVE",
"500 656 LINE SMOOTH",
"493 656 OFFCURVE",
"493 650 OFFCURVE",
"493 646 CURVE SMOOTH",
"493 645 OFFCURVE",
"493 642 OFFCURVE",
"493 641 CURVE SMOOTH",
"493 639 OFFCURVE",
"494 624 OFFCURVE",
"494 622 CURVE SMOOTH",
"494 612 OFFCURVE",
"495 552 OFFCURVE",
"495 537 CURVE SMOOTH",
"495 532 LINE",
"495 348 LINE SMOOTH",
"495 344 OFFCURVE",
"497 321 OFFCURVE",
"497 316 CURVE SMOOTH",
"497 315 OFFCURVE",
"497 293 OFFCURVE",
"497 286 CURVE SMOOTH",
"497 278 OFFCURVE",
"497 257 OFFCURVE",
"497 255 CURVE SMOOTH",
"497 247 OFFCURVE",
"495 227 OFFCURVE",
"495 227 CURVE",
"494 226 LINE",
"493 226 OFFCURVE",
"489 230 OFFCURVE",
"489 231 CURVE SMOOTH",
"488 232 OFFCURVE",
"485 236 OFFCURVE",
"485 236 CURVE",
"475 249 OFFCURVE",
"465 260 OFFCURVE",
"456 273 CURVE SMOOTH",
"455 274 OFFCURVE",
"450 281 OFFCURVE",
"450 282 CURVE SMOOTH",
"443 291 OFFCURVE",
"436 300 OFFCURVE",
"429 309 CURVE SMOOTH",
"425 316 OFFCURVE",
"421 323 OFFCURVE",
"416 330 CURVE SMOOTH",
"407 342 OFFCURVE",
"397 352 OFFCURVE",
"389 365 CURVE",
"389 365 OFFCURVE",
"388 367 OFFCURVE",
"388 367 CURVE",
"373 386 OFFCURVE",
"359 404 OFFCURVE",
"344 423 CURVE",
"344 423 OFFCURVE",
"342 425 OFFCURVE",
"342 425 CURVE",
"342 426 OFFCURVE",
"339 430 OFFCURVE",
"339 431 CURVE SMOOTH",
"338 433 OFFCURVE",
"332 441 OFFCURVE",
"331 443 CURVE SMOOTH",
"319 459 OFFCURVE",
"307 477 OFFCURVE",
"293 492 CURVE",
"292 492 OFFCURVE",
"288 496 OFFCURVE",
"288 497 CURVE SMOOTH",
"287 498 OFFCURVE",
"284 504 OFFCURVE",
"284 505 CURVE SMOOTH",
"284 506 OFFCURVE",
"280 510 OFFCURVE",
"278 512 CURVE SMOOTH",
"277 513 OFFCURVE",
"268 523 OFFCURVE",
"268 524 CURVE SMOOTH",
"267 525 OFFCURVE",
"264 530 OFFCURVE",
"263 531 CURVE",
"263 531 OFFCURVE",
"261 535 OFFCURVE",
"261 535 CURVE",
"248 551 OFFCURVE",
"237 568 OFFCURVE",
"224 585 CURVE",
"224 585 OFFCURVE",
"223 586 OFFCURVE",
"223 586 CURVE",
"211 604 OFFCURVE",
"198 622 OFFCURVE",
"185 640 CURVE",
"185 641 OFFCURVE",
"183 643 OFFCURVE",
"183 644 CURVE SMOOTH",
"183 645 OFFCURVE",
"181 649 OFFCURVE",
"180 649 CURVE",
"179 651 OFFCURVE",
"176 654 OFFCURVE",
"176 654 CURVE",
"126 654 LINE",
"122 654 LINE SMOOTH",
"120 654 OFFCURVE",
"100 654 OFFCURVE",
"94 653 CURVE SMOOTH",
"91 653 OFFCURVE",
"83 652 OFFCURVE",
"81 652 CURVE SMOOTH",
"79 651 OFFCURVE",
"77 649 OFFCURVE",
"76 648 CURVE",
"76 639 OFFCURVE",
"76 597 OFFCURVE",
"76 588 CURVE SMOOTH",
"76 572 OFFCURVE",
"76 531 OFFCURVE",
"76 528 CURVE SMOOTH",
"76 523 OFFCURVE",
"77 488 OFFCURVE",
"77 483 CURVE SMOOTH",
"77 476 OFFCURVE",
"77 413 OFFCURVE",
"77 405 CURVE SMOOTH",
"77 379 OFFCURVE",
"79 257 OFFCURVE",
"79 231 CURVE SMOOTH",
"79 222 LINE SMOOTH",
"79 209 OFFCURVE",
"80 153 OFFCURVE",
"80 141 CURVE SMOOTH",
"80 127 OFFCURVE",
"79 19 OFFCURVE",
"79 6 CURVE SMOOTH",
"79 6 OFFCURVE",
"79 4 OFFCURVE",
"79 3 CURVE SMOOTH",
"79 1 OFFCURVE",
"79 -1 OFFCURVE",
"81 -2 CURVE",
"110 -2 OFFCURVE",
"137 -4 OFFCURVE",
"166 -4 CURVE SMOOTH",
"169 -4 OFFCURVE",
"186 -4 OFFCURVE",
"189 -4 CURVE SMOOTH",
"189 -4 OFFCURVE",
"193 -2 OFFCURVE",
"193 -1 CURVE",
"195 11 LINE",
"195 16 OFFCURVE",
"195 80 OFFCURVE",
"195 103 CURVE SMOOTH",
"195 135 OFFCURVE",
"195 233 OFFCURVE",
"195 242 CURVE SMOOTH",
"195 249 OFFCURVE",
"193 300 OFFCURVE",
"193 307 CURVE SMOOTH",
"193 311 OFFCURVE",
"193 340 OFFCURVE",
"193 344 CURVE SMOOTH",
"193 347 OFFCURVE",
"192 369 OFFCURVE",
"192 371 CURVE SMOOTH",
"192 379 OFFCURVE",
"193 413 OFFCURVE",
"193 421 CURVE SMOOTH",
"193 421 OFFCURVE",
"193 421 OFFCURVE",
"193 421 CURVE",
"193 421 OFFCURVE",
"195 420 OFFCURVE",
"195 420 CURVE",
"205 406 OFFCURVE",
"214 393 OFFCURVE",
"224 380 CURVE SMOOTH",
"250 345 OFFCURVE",
"276 311 OFFCURVE",
"303 278 CURVE",
"303 278 OFFCURVE",
"304 277 OFFCURVE",
"304 277 CURVE",
"305 276 OFFCURVE",
"309 270 OFFCURVE",
"309 269 CURVE SMOOTH",
"323 251 OFFCURVE",
"337 233 OFFCURVE",
"350 215 CURVE SMOOTH",
"359 203 OFFCURVE",
"367 191 OFFCURVE",
"375 178 CURVE SMOOTH",
"379 173 OFFCURVE",
"384 168 OFFCURVE",
"388 162 CURVE SMOOTH",
"391 157 OFFCURVE",
"394 152 OFFCURVE",
"397 147 CURVE SMOOTH",
"400 142 OFFCURVE",
"406 136 OFFCURVE",
"409 130 CURVE",
"436 95 OFFCURVE",
"463 58 OFFCURVE",
"489 22 CURVE SMOOTH",
"495 13 OFFCURVE",
"500 4 OFFCURVE",
"509 -4 CURVE"
);
}
);
width = 695;
}
);
unicode = 004E;
},
{
glyphname = N.ss02;
lastChange = "2020-03-17 07:25:36 +0000";
layers = (
{
anchors = (
{
name = _measure;
position = "{0, 0}";
}
);
layerId = master01;
paths = (
{
closed = 1;
nodes = (
"598 -144 LINE",
"598 -144 OFFCURVE",
"600 -145 OFFCURVE",
"601 -145 CURVE",
"601 -146 OFFCURVE",
"603 -147 OFFCURVE",
"603 -147 CURVE",
"603 -163 LINE",
"603 -164 OFFCURVE",
"606 -166 OFFCURVE",
"607 -167 CURVE",
"608 -167 OFFCURVE",
"611 -165 OFFCURVE",
"611 -164 CURVE SMOOTH",
"612 -163 OFFCURVE",
"613 -160 OFFCURVE",
"613 -159 CURVE",
"613 -120 LINE SMOOTH",
"613 -116 OFFCURVE",
"611 -114 OFFCURVE",
"608 -114 CURVE SMOOTH",
"606 -114 OFFCURVE",
"603 -115 OFFCURVE",
"602 -117 CURVE",
"603 -122 OFFCURVE",
"603 -127 OFFCURVE",
"601 -131 CURVE",
"601 -131 OFFCURVE",
"599 -132 OFFCURVE",
"599 -132 CURVE",
"599 -132 OFFCURVE",
"593 -132 OFFCURVE",
"593 -132 CURVE",
"592 -132 OFFCURVE",
"589 -133 OFFCURVE",
"589 -133 CURVE",
"307 -133 LINE SMOOTH",
"303 -133 OFFCURVE",
"282 -132 OFFCURVE",
"278 -132 CURVE SMOOTH",
"278 -132 OFFCURVE",
"276 -132 OFFCURVE",
"276 -132 CURVE",
"276 -132 OFFCURVE",
"274 -132 OFFCURVE",
"274 -132 CURVE",
"274 -132 OFFCURVE",
"267 -133 OFFCURVE",
"266 -133 CURVE SMOOTH",
"265 -133 OFFCURVE",
"255 -133 OFFCURVE",
"251 -133 CURVE SMOOTH",
"239 -133 OFFCURVE",
"231 -133 OFFCURVE",
"219 -132 CURVE",
"92 -132 LINE",
"89 -131 LINE",
"89 -129 OFFCURVE",
"89 -121 OFFCURVE",
"88 -118 CURVE",
"88 -117 OFFCURVE",
"86 -114 OFFCURVE",
"85 -113 CURVE",
"85 -113 OFFCURVE",
"83 -112 OFFCURVE",
"83 -112 CURVE",
"82 -112 OFFCURVE",
"80 -113 OFFCURVE",
"80 -113 CURVE",
"79 -113 OFFCURVE",
"79 -116 OFFCURVE",
"79 -117 CURVE",
"79 -160 LINE",
"79 -161 OFFCURVE",
"79 -164 OFFCURVE",
"80 -164 CURVE",
"81 -166 OFFCURVE",
"83 -166 OFFCURVE",
"84 -166 CURVE SMOOTH",
"85 -166 OFFCURVE",
"87 -166 OFFCURVE",
"87 -166 CURVE",
"87 -166 OFFCURVE",
"88 -164 OFFCURVE",
"88 -163 CURVE SMOOTH",
"89 -160 OFFCURVE",
"89 -150 OFFCURVE",
"89 -147 CURVE",
"90 -145 OFFCURVE",
"94 -144 OFFCURVE",
"95 -144 CURVE SMOOTH",
"96 -144 OFFCURVE",
"102 -143 OFFCURVE",
"103 -143 CURVE SMOOTH",
"110 -143 OFFCURVE",
"145 -143 OFFCURVE",
"153 -143 CURVE SMOOTH",
"166 -143 OFFCURVE",
"201 -143 OFFCURVE",
"203 -143 CURVE SMOOTH",
"208 -143 OFFCURVE",
"254 -144 OFFCURVE",
"259 -144 CURVE SMOOTH",
"263 -144 OFFCURVE",
"287 -143 OFFCURVE",
"290 -143 CURVE SMOOTH",
"290 -143 OFFCURVE",
"293 -143 OFFCURVE",
"294 -143 CURVE SMOOTH",
"294 -143 OFFCURVE",
"297 -143 OFFCURVE",
"297 -143 CURVE",
"303 -143 OFFCURVE",
"332 -144 OFFCURVE",
"338 -144 CURVE"
);
},
{
closed = 1;
nodes = (
"393 -121 OFFCURVE",
"395 -123 OFFCURVE",
"400 -123 CURVE SMOOTH",
"400 -123 OFFCURVE",
"402 -123 OFFCURVE",
"402 -123 CURVE",
"403 -123 OFFCURVE",
"408 -121 OFFCURVE",
"409 -121 CURVE SMOOTH",
"411 -121 OFFCURVE",
"422 -121 OFFCURVE",
"424 -121 CURVE SMOOTH",
"425 -121 OFFCURVE",
"427 -119 OFFCURVE",
"427 -118 CURVE SMOOTH",
"427 -118 OFFCURVE",
"427 -117 OFFCURVE",
"427 -116 CURVE SMOOTH",
"427 -109 OFFCURVE",
"416 -112 OFFCURVE",
"416 -108 CURVE SMOOTH",
"416 -108 OFFCURVE",
"416 -108 OFFCURVE",
"416 -108 CURVE",
"417 -107 OFFCURVE",
"421 -102 OFFCURVE",
"421 -101 CURVE SMOOTH",
"422 -100 OFFCURVE",
"425 -94 OFFCURVE",
"425 -93 CURVE SMOOTH",
"425 -93 OFFCURVE",
"425 -92 OFFCURVE",
"425 -91 CURVE SMOOTH",
"425 -82 OFFCURVE",
"424 -74 OFFCURVE",
"413 -74 CURVE SMOOTH",
"410 -74 OFFCURVE",
"404 -74 OFFCURVE",
"401 -75 CURVE",
"400 -75 OFFCURVE",
"396 -80 OFFCURVE",
"394 -82 CURVE",
"394 -83 OFFCURVE",
"392 -85 OFFCURVE",
"392 -86 CURVE SMOOTH",
"392 -86 OFFCURVE",
"392 -87 OFFCURVE",
"392 -87 CURVE",
"392 -91 OFFCURVE",
"394 -93 OFFCURVE",
"398 -93 CURVE SMOOTH",
"398 -93 OFFCURVE",
"398 -93 OFFCURVE",
"398 -93 CURVE",
"402 -89 OFFCURVE",
"404 -86 OFFCURVE",
"408 -86 CURVE SMOOTH",
"411 -86 OFFCURVE",
"413 -87 OFFCURVE",
"413 -90 CURVE SMOOTH",
"413 -102 OFFCURVE",
"393 -104 OFFCURVE",
"393 -116 CURVE SMOOTH"
);
},
{
closed = 1;
nodes = (
"286 -109 OFFCURVE",
"288 -111 OFFCURVE",
"290 -113 CURVE SMOOTH",
"292 -114 OFFCURVE",
"298 -118 OFFCURVE",
"299 -118 CURVE SMOOTH",
"299 -118 OFFCURVE",
"302 -118 OFFCURVE",
"303 -118 CURVE SMOOTH",
"310 -118 OFFCURVE",
"318 -117 OFFCURVE",
"323 -113 CURVE SMOOTH",
"325 -112 OFFCURVE",
"328 -105 OFFCURVE",
"328 -104 CURVE SMOOTH",
"328 -103 OFFCURVE",
"331 -100 OFFCURVE",
"331 -100 CURVE",
"331 -100 OFFCURVE",
"331 -98 OFFCURVE",
"331 -97 CURVE SMOOTH",
"331 -78 OFFCURVE",
"321 -73 OFFCURVE",
"303 -74 CURVE",
"301 -73 OFFCURVE",
"300 -70 OFFCURVE",
"300 -68 CURVE SMOOTH",
"300 -68 OFFCURVE",
"300 -67 OFFCURVE",
"300 -67 CURVE",
"301 -67 OFFCURVE",
"303 -63 OFFCURVE",
"304 -63 CURVE SMOOTH",
"305 -62 OFFCURVE",
"309 -62 OFFCURVE",
"311 -62 CURVE SMOOTH",
"311 -62 OFFCURVE",
"314 -63 OFFCURVE",
"315 -63 CURVE SMOOTH",
"319 -63 OFFCURVE",
"330 -61 OFFCURVE",
"330 -55 CURVE SMOOTH",
"330 -54 OFFCURVE",
"330 -53 OFFCURVE",
"328 -52 CURVE SMOOTH",
"326 -52 OFFCURVE",
"315 -51 OFFCURVE",
"313 -51 CURVE SMOOTH",
"313 -51 OFFCURVE",
"307 -51 OFFCURVE",
"305 -51 CURVE SMOOTH",
"304 -51 OFFCURVE",
"299 -51 OFFCURVE",
"297 -51 CURVE SMOOTH",
"293 -52 OFFCURVE",
"289 -56 OFFCURVE",
"289 -60 CURVE SMOOTH",
"289 -61 OFFCURVE",
"290 -69 OFFCURVE",
"290 -70 CURVE SMOOTH",
"290 -72 OFFCURVE",
"290 -83 OFFCURVE",
"290 -85 CURVE SMOOTH",
"290 -85 OFFCURVE",
"292 -87 OFFCURVE",
"293 -87 CURVE SMOOTH",
"293 -87 OFFCURVE",
"294 -87 OFFCURVE",
"295 -87 CURVE SMOOTH",
"296 -87 OFFCURVE",
"297 -87 OFFCURVE",
"297 -87 CURVE",
"298 -87 OFFCURVE",
"302 -85 OFFCURVE",
"303 -85 CURVE SMOOTH",
"303 -85 OFFCURVE",
"307 -85 OFFCURVE",
"309 -85 CURVE SMOOTH",
"309 -85 OFFCURVE",
"314 -85 OFFCURVE",
"315 -85 CURVE SMOOTH",
"319 -88 OFFCURVE",
"320 -91 OFFCURVE",
"320 -96 CURVE SMOOTH",
"320 -97 OFFCURVE",
"320 -100 OFFCURVE",
"320 -100 CURVE",
"320 -100 OFFCURVE",
"315 -105 OFFCURVE",
"313 -106 CURVE SMOOTH",
"311 -108 OFFCURVE",
"310 -108 OFFCURVE",
"307 -108 CURVE SMOOTH",
"297 -108 OFFCURVE",
"299 -98 OFFCURVE",
"292 -98 CURVE SMOOTH",
"288 -98 OFFCURVE",
"286 -102 OFFCURVE",
"286 -106 CURVE SMOOTH"
);
},
{
closed = 1;
nodes = (
"365 -117 OFFCURVE",
"365 -118 OFFCURVE",
"367 -118 CURVE SMOOTH",
"367 -118 OFFCURVE",
"367 -118 OFFCURVE",
"367 -118 CURVE",
"368 -118 OFFCURVE",
"370 -117 OFFCURVE",
"370 -117 CURVE",
"378 -110 OFFCURVE",
"378 -102 OFFCURVE",
"382 -93 CURVE SMOOTH",
"384 -87 OFFCURVE",
"386 -83 OFFCURVE",
"388 -78 CURVE",
"388 -78 OFFCURVE",
"388 -77 OFFCURVE",
"388 -77 CURVE",
"388 -76 OFFCURVE",
"390 -72 OFFCURVE",
"390 -71 CURVE SMOOTH",
"391 -69 OFFCURVE",
"394 -60 OFFCURVE",
"394 -59 CURVE SMOOTH",
"394 -59 OFFCURVE",
"394 -58 OFFCURVE",
"394 -58 CURVE",
"394 -55 OFFCURVE",
"391 -54 OFFCURVE",
"389 -54 CURVE SMOOTH",
"386 -54 OFFCURVE",
"383 -60 OFFCURVE",
"382 -62 CURVE",
"382 -62 OFFCURVE",
"382 -65 OFFCURVE",
"382 -65 CURVE",
"381 -66 OFFCURVE",
"377 -79 OFFCURVE",
"377 -81 CURVE SMOOTH",
"377 -81 OFFCURVE",
"375 -85 OFFCURVE",
"375 -86 CURVE SMOOTH",
"372 -96 OFFCURVE",
"365 -105 OFFCURVE",
"365 -116 CURVE"
);
},
{
closed = 1;
nodes = (
"354 -92 OFFCURVE",
"355 -94 OFFCURVE",
"358 -94 CURVE SMOOTH",
"361 -94 OFFCURVE",
"365 -91 OFFCURVE",
"366 -87 CURVE SMOOTH",
"366 -84 OFFCURVE",
"366 -68 OFFCURVE",
"366 -65 CURVE SMOOTH",
"366 -64 OFFCURVE",
"367 -57 OFFCURVE",
"367 -56 CURVE SMOOTH",
"367 -56 OFFCURVE",
"367 -55 OFFCURVE",
"367 -55 CURVE",
"367 -52 OFFCURVE",
"365 -51 OFFCURVE",
"363 -51 CURVE SMOOTH",
"359 -51 OFFCURVE",
"343 -62 OFFCURVE",
"343 -65 CURVE SMOOTH",
"343 -65 OFFCURVE",
"343 -69 OFFCURVE",
"344 -69 CURVE",
"355 -69 LINE",
"355 -70 OFFCURVE",
"355 -77 OFFCURVE",
"355 -78 CURVE SMOOTH",
"355 -79 OFFCURVE",
"354 -87 OFFCURVE",
"354 -87 CURVE",
"354 -87 OFFCURVE",
"354 -89 OFFCURVE",
"354 -89 CURVE"
);
}
);
userData = {
com.typemytype.robofont.mark = (
0.939,
1,
0.6,
1
);
};
width = 695;
}
);
},
